<svg xmlns="http://www.w3.org/2000/svg" viewBox="0 0 1261.44 1261.44"><title>Logos</title><path d="M427.6,669.13h2.59l-9,19.39H420l-9-19.39h2.56l7,15.52Z" style="fill:#fff"/><path d="M436.82,688.52h-2.4V669.13h2.4Z" style="fill:#fff"/><path d="M457.25,671.14h-6.66v17.38H448.2V671.14h-6.63v-2h15.68Z" style="fill:#fff"/><path d="M472.18,683.66h-10l-2.15,4.86h-2.47l9-19.39h1.29l9,19.39h-2.48Zm-9.13-1.93h8.28l-4.15-9.38Z" style="fill:#fff"/><path d="M493.88,686.57v1.95H480.76V669.13h2.36v17.44Z" style="fill:#fff"/><path d="M510.57,671.14v8.61h9.93v2h-9.93v6.76h-2.28V669.13H522v2Z" style="fill:#fff"/><path d="M545.42,678.84A10.26,10.26,0,1,1,535.16,669,10.06,10.06,0,0,1,545.42,678.84Zm-2.43,0a7.84,7.84,0,1,0-7.83,7.68A7.75,7.75,0,0,0,543,678.84Z" style="fill:#fff"/><path d="M569.89,678.84A10.25,10.25,0,1,1,559.63,669,10.06,10.06,0,0,1,569.89,678.84Zm-2.42,0a7.84,7.84,0,1,0-7.84,7.68A7.75,7.75,0,0,0,567.47,678.84Z" style="fill:#fff"/><path d="M582.15,688.52h-7.37V669.13h6.74a9.74,9.74,0,0,1,9.76,9.71C591.28,684,587.24,688.52,582.15,688.52Zm-.19-2.11c3.82,0,7-3.55,7-7.57a7.49,7.49,0,0,0-7.42-7.59h-4.46v15.16Z" style="fill:#fff"/><path d="M452.91,717.2a6,6,0,0,1,5.23,6.19c0,3.22-2,6.13-5.86,6.13h-9.87V710.13h7.64a4.07,4.07,0,0,1,4.29,3.94A3.91,3.91,0,0,1,452.91,717.2Zm-8.22-.22H450a2.24,2.24,0,0,0,2.25-2.39c0-1.4-1.2-2.45-2.91-2.45h-4.62Zm6.49,10.54a4.13,4.13,0,0,0,4.51-4.35,4.26,4.26,0,0,0-4.48-4.4h-6.49v8.75Z" style="fill:#fff"/><path d="M475.57,724.66h-10l-2.15,4.86H461l9-19.39h1.29l9,19.39h-2.47Zm-9.13-1.93h8.28l-4.15-9.38Z" style="fill:#fff"/><path d="M497.27,727.57v1.95H484.15V710.13h2.37v17.44Z" style="fill:#fff"/><path d="M514.51,724.66h-10l-2.14,4.86h-2.48l9-19.39h1.29l9,19.39h-2.47Zm-9.13-1.93h8.28l-4.15-9.38Z" style="fill:#fff"/><path d="M539.68,710.13v19.39h-1.24l-13-15v15h-2.37V710.13h1.24l13,15v-15Z" style="fill:#fff"/><path d="M560.85,724.49l1.82,1.51a10.25,10.25,0,0,1-7.92,3.69,9.87,9.87,0,1,1,0-19.72,10.3,10.3,0,0,1,7.92,3.71l-1.82,1.52a7.65,7.65,0,1,0,0,9.29Z" style="fill:#fff"/><path d="M581.37,727.52v2h-14V710.13h13.45v2H569.62v7h9.46v2h-9.46v6.41Z" style="fill:#fff"/><path d="M515.64,751.13l-7.59,12.74v6.65h-2.36v-6.65l-7.59-12.74h2.69l6.08,10.29,6-10.29Z" style="fill:#fff"/><path d="M537.31,760.84A10.25,10.25,0,1,1,527.05,751,10.05,10.05,0,0,1,537.31,760.84Zm-2.42,0a7.84,7.84,0,1,0-7.84,7.68A7.75,7.75,0,0,0,534.89,760.84Z" style="fill:#fff"/><path d="M559.67,761.23v6.62a13.38,13.38,0,0,1-8.39,2.84,9.86,9.86,0,1,1,0-19.7,11.12,11.12,0,0,1,7.67,2.78l-1.48,1.63a9.08,9.08,0,0,0-6.19-2.23,7.72,7.72,0,1,0,0,15.43,10,10,0,0,0,6-1.9v-3.52h-6.49v-1.95Z" style="fill:#fff"/><path d="M577.57,765.65h-10l-2.15,4.87H563l9-19.39h1.29l9,19.39h-2.48Zm-9.13-1.92h8.28l-4.16-9.38Z" style="fill:#fff"/><path d="M471.45,519.91v.38c-.66.72-1.29,1.47-2,2.16a66.67,66.67,0,0,0-5.56,6.32c-.19.25-.45.45-.66.68a103,103,0,0,0-6.82,7.92c-.86,1.14-1.91,2.14-2.82,3.24-1.58,1.91-3.11,3.86-4.67,5.77-.79,1-1.57,1.94-2.44,2.83a49.11,49.11,0,0,0-5.2,6.31,17.15,17.15,0,0,1-2.19,2.54,38.56,38.56,0,0,0-3.53,4.33c-1.57,2.07-3.25,4.06-4.91,6.06-.87,1.06-1.82,2-2.69,3.11-1.53,1.86-3,3.77-4.53,5.64-.87,1-1.82,2-2.7,3.1s-1.93,2.42-2.9,3.61c-.75.92-1.5,1.84-2.29,2.71-1.65,1.81-3.35,3.57-5,5.38a28.77,28.77,0,0,1-5.54,4.36,5.29,5.29,0,0,1-5.87-.51,20.71,20.71,0,0,1-2-2.42,10.06,10.06,0,0,0-1-1.31,12.38,12.38,0,0,1-3.64-6.69,24.74,24.74,0,0,1-.78-7.18,54,54,0,0,0,0-5.69,43.45,43.45,0,0,1,.49-8.23c.28-2.28,0-4.69,1.05-6.87a9.94,9.94,0,0,1,.4-3.68c.56-2.18.89-4.41,1.29-6.62.37-2,1.15-4,1.38-6a22,22,0,0,1,.73-3.19c.62-2.34,1.26-4.68,1.89-7,.54-2,1-4,1.65-6,1.06-3.4,2-6.84,3.22-10.21.67-1.88,1.28-3.78,1.86-5.69s1.18-3.95,1.88-5.87c1.24-3.42,2.32-6.89,3.7-10.26.66-1.61,1.16-3.31,1.75-5,.7-1.94,1.45-3.86,2.19-5.78.65-1.7,1.32-3.39,2-5.09.37-1,.76-1.91,1.14-2.87s.71-1.81,1.08-2.7a20.07,20.07,0,0,0,1.11-2.69,3.86,3.86,0,0,1,.73-1.46c.15-.21.09-.57.19-1.25-1.6,1.59-2.9,2.92-4.24,4.22-2.8,2.7-5.53,5.51-8.49,8-1.92,1.63-3.63,3.46-5.47,5.17s-3.86,3.79-5.95,5.5c-1.31,1.07-2.43,2.35-3.75,3.4-1.91,1.53-3.52,3.4-5.39,5-1.25,1.05-2.32,2.29-3.61,3.26-2.08,1.57-3.72,3.57-5.63,5.28-1.39,1.24-2.87,2.37-4.3,3.57-.53.44-1,.93-1.49,1.35a44.78,44.78,0,0,1,2,7.53c.21,1.57.49,3.14.77,4.7s0,3,.67,4.34a3,3,0,0,1,0,1.13c0,3.23,0,6.46,0,9.68,0,1-.29,2.07-.35,3.11a25.39,25.39,0,0,1-.05,3c-.38,1.88-.45,3.8-.82,5.64-.45,2.32-.73,4.68-1.33,7s-1,4.61-1.57,6.92-1.36,4.65-2,7a101,101,0,0,1-3.8,10.4,30.52,30.52,0,0,1-1.6,3.84c-.66,1.17-1.15,2.42-1.71,3.64-.74,1.61-1.41,3.25-2.21,4.82-1.3,2.55-2.76,5-4,7.57s-2.84,4.69-4.07,7.14a34,34,0,0,1-2.24,3.37c-1.39,2.1-2.68,4.26-4.15,6.29a49,49,0,0,1-4.8,6.33,9.54,9.54,0,0,0-.6.91c-.48.65-1,1.3-1.48,1.91-1.44,1.71-2.9,3.41-4.35,5.11-.25.29-.54.54-.81.81-1.69,1.7-3.31,3.5-5.12,5.07-2.06,1.78-4.08,3.61-6.22,5.31-1.94,1.55-4,2.89-6.06,4.23a51.88,51.88,0,0,1-9.42,4.81c-3.4,1.35-6.92,2.21-10.39,3.26-1.16.35-2.49.14-3.65.48-1.93.57-3.86.31-5.78.32a17.93,17.93,0,0,1-6-1,5.48,5.48,0,0,0-1.38-.2c-1-.39-1.71-.66-2.43-1a20,20,0,0,1-8.13-6.57,22.41,22.41,0,0,1-2.6-3.8,19.36,19.36,0,0,1-2.12-7.89c0-.53-.37-1.07-.33-1.59.11-1.4.35-2.8.55-4.19,0-.18.16-.34.17-.52a27.46,27.46,0,0,1,2.54-9.09c.46-1,.79-2.16,1.21-3.24s1-1.95,1.45-2.93.91-1.85,1.35-2.77c1.26-2.66,3-5.05,4.47-7.56.56-.94,1.13-1.88,1.76-2.78,1-1.47,2.08-2.91,3.14-4.34,1.47-2,2.93-4,4.44-5.9s3-3.79,4.52-5.65c1-1.15,2-2.24,3-3.37,1.59-1.83,3.13-3.7,4.76-5.5,1.11-1.22,2.37-2.29,3.47-3.51,7.15-7.85,14.87-15.14,22.33-22.67,3.12-3.15,6.28-6.26,9.61-9.17,1.94-1.7,3.7-3.57,5.61-5.3s3.67-3.18,5.5-4.76a3.44,3.44,0,0,0,.27-.27c2.33-2.2,4.63-4.43,7-6.59,1.84-1.68,3.75-3.27,5.64-4.9l.13-.14c2.15-2,4.29-4.06,6.45-6.06,1.38-1.27,2.81-2.5,4.22-3.75a18.69,18.69,0,0,0-6.94-8.57,12.16,12.16,0,0,1-1.47-.54,12.18,12.18,0,0,0-3.81-1.19A29.39,29.39,0,0,0,352,499a27.29,27.29,0,0,0-5.47.68,40,40,0,0,0-7.57,2c-1.82.65-3.6,1.42-5.41,2.14a51.65,51.65,0,0,0-7.17,3.19c-3.53,2.08-7.23,3.87-10.77,5.93a15,15,0,0,1-4.49,2c-.64.13-1.28.33-1.88.49L307.42,514l-2.61-6.21c.17-1.08.31-1.93.45-2.77l-.25-.12c1.88-2.86,3.63-5.82,5.7-8.55,1.9-2.5,3.71-5.06,5.62-7.56,1.53-2,3.2-3.94,4.75-5.94,1.44-1.84,2.79-3.75,4.21-5.61,1.84-2.4,3.79-4.73,5.53-7.2,1.05-1.5,2.31-2.86,3.22-4.48.72-1.28,1.8-2.35,2.6-3.59,1.39-2.16,3.05-4.14,4.23-6.44,1.35-1,1.71-2.69,2.67-4a29.37,29.37,0,0,0,2.15-3.57c.78-1.45,1.57-2.89,2.33-4.34.88-1.66,1.53-3.44,2.32-5.15a26.79,26.79,0,0,0,2-6.6c.15-.84.24-1.69.36-2.51a4,4,0,0,0-2.65-1,25.15,25.15,0,0,0-4,0,29.17,29.17,0,0,0-5.12,1.24,42.74,42.74,0,0,0-6.66,2.9c-1.28.7-2.61,1.3-3.91,2a83.8,83.8,0,0,0-8.91,5.48q-3.84,2.53-7.55,5.28c-1.59,1.18-3.08,2.5-4.58,3.79-2.12,1.84-4.13,3.81-6.36,5.52-1.46,1.12-2.64,2.48-4,3.69-.69.61-1.44,1.18-2.14,1.79a6.05,6.05,0,0,0-.78.82c-.35.42-.65.89-1,1.31-1,1.24-2.41,2.07-3.43,3.35-1.8,2.25-4,4.21-5.87,6.38-1.63,1.85-3.11,3.84-4.67,5.76-.83,1-1.71,2-2.58,3a5.38,5.38,0,0,0-.52.55c-1.78,3-4.14,5.64-6,8.62-1.22,2-2.57,3.87-3.77,5.86-1.74,2.87-3.52,5.72-5.07,8.69-2.3,4.39-4.59,8.79-6.78,13.23-1.62,3.27-3.09,6.6-4.61,9.92-1,2.1-2,4.17-2.78,6.35-1.48,4.25-3.75,8.16-5,12.5-.38,1.27-.93,2.49-1.29,3.78a7.2,7.2,0,0,1-1.44,2c-1.63-.14-2.76-.72-3.31-2.17a2,2,0,0,0-.34-.65c-.88-1-1.78-2.08-2.6-3-.88-2.48-.32-4.8.09-7.19.3-1.74.72-3.47.95-5.22a26.09,26.09,0,0,1,.73-3.38c.58-2.3,1-4.62,1.54-6.94.27-1.18.49-2.37.84-3.54s.42-2.15.71-3.2a18.48,18.48,0,0,0,.78-3c.12-1,.61-1.95.84-3,.51-2.3,1.17-4.57,1.77-6.85.52-2,1-4,1.56-6a8.71,8.71,0,0,0,.66-2.44c-.06-1.2.89-2,.88-3.19,0-1,.67-1.93.86-2.94.62-3.16,1.72-6.18,2.56-9.28.7-2.56,1.23-5.17,2.14-7.69.72-2,1-4.13,1.56-6.17a4.07,4.07,0,0,1,1.07-2c1.86,1.27,3.27,2.8,3.46,5.36a4.8,4.8,0,0,0-.3,1.39,20.78,20.78,0,0,1-.44,5.57c-.46,2.15-.48,4.36-1,6.51-.48,1.82-.41,3.78-.85,5.63s-.41,3.74-1,5.56c-.32.94-.06,2.08-.44,3.1a8.09,8.09,0,0,0-.38,1.77c-.28,2.31-.91,4.56-1.19,6.87-.17,1.49-.71,2.94-1,4.42a9.07,9.07,0,0,0,0,1.74c.23-.18.42-.27.5-.41.81-1.44,1.67-2.85,2.4-4.33a114.81,114.81,0,0,1,6-10.52c1.63-2.58,3.07-5.29,4.74-7.85s3.58-5,5.32-7.52a31.15,31.15,0,0,1,2.6-3.8c.79-.85,1.34-1.92,2.13-2.77a48,48,0,0,0,3.62-4.69,11.89,11.89,0,0,1,1.28-1.38,16.07,16.07,0,0,0,2.91-3.61,4.18,4.18,0,0,1,.64-.7c4.48-4.61,8.95-9.23,13.46-13.82.87-.88,1.87-1.63,2.81-2.45a27.79,27.79,0,0,1,2.8-2.49,30.93,30.93,0,0,0,3.52-3.08c2.23-2.06,4.71-3.8,7.12-5.62q4.86-3.66,10-6.91c1.76-1.11,3.65-2,5.35-3.18a42.27,42.27,0,0,1,6.38-3.2,45.88,45.88,0,0,1,8.52-3.14,15.48,15.48,0,0,1,5.75-.4,6.24,6.24,0,0,1,4.31,2.41,35.51,35.51,0,0,1,3.67,5.73,6.88,6.88,0,0,1,.84,3.55,2.46,2.46,0,0,0,.29,1.81,2,2,0,0,1,.06,1.29,59.19,59.19,0,0,1-1.51,7.33,90.87,90.87,0,0,1-6.74,15.56c-1.91,3.55-4,7-6.21,10.38-1.64,2.53-3.42,5-5.09,7.45-1.95,2.9-4.1,5.66-6.07,8.55-1.42,2.1-3.23,3.92-4.71,6s-3.12,3.65-4.35,5.74a22.26,22.26,0,0,1-2.53,3c-.24.29-.52.55-.73.86a5.16,5.16,0,0,0-.33.9c1.08-.44,2.05-.77,3-1.21a77.55,77.55,0,0,1,12.87-5c2-.56,4-1.51,6.21-1.4,1-.73,2.24,0,3.2-.74.12-.09.37,0,.56,0,2.59,0,5.2-.17,7.78.05a18.09,18.09,0,0,1,7.39,2.44,21.19,21.19,0,0,1,5.48,4.8,46.57,46.57,0,0,1,3.36,4.82c.52.76,1,1.55,1.56,2.46.42-.48.75-.87,1.09-1.24,1.85-2,4-3.6,6-5.42.75-.7,1.52-1.37,2.27-2.07,2.71-2.53,5.29-5.21,8.1-7.63,2.2-1.9,4.11-4.09,6.32-5.93,1.84-1.54,3.38-3.38,5.23-4.87,2.07-1.66,3.74-3.74,5.78-5.39,2.27-1.83,4.1-4.1,6.3-5.95,4.36-3.67,8.1-7.95,12.21-11.87a10.19,10.19,0,0,0,2.78-4.49,31.92,31.92,0,0,1,1.73-3.83c1.11-2.37,2.23-4.75,3.35-7.12,2.27-4.8,4.59-9.58,6.78-14.41.73-1.61,1.61-3.12,2.39-4.68s1.48-3.32,2.32-4.94c1.84-3.57,3.6-7.19,5.68-10.65,1.35-2.25,2.55-4.59,3.94-6.81s2.76-4.21,4.24-6.24a20.14,20.14,0,0,1,3.4-4.19c.29-.23.52-.56.82-.77a2,2,0,0,1,2.73,0A11.1,11.1,0,0,1,468,392.3c.11,3-.84,5.88-1.64,8.78-.5,1.77-1.26,3.41-1.88,5.12-1,2.8-2.42,5.45-3.67,8.16-1.9,4.12-4.36,7.9-6.63,11.8-1.6,2.75-3.62,5.25-4.87,8.19a51.4,51.4,0,0,0-2.61,6.22,19.28,19.28,0,0,1-1.07,2.13c-1.05,2.59-2.06,5.19-3.08,7.79-.88,2.25-1.75,4.52-2.66,6.77-.73,1.8-1.53,3.58-2.27,5.37s-1.47,3.6-2.18,5.4q-1,2.46-1.89,4.92c-.8,2.1-1.45,4.26-2.41,6.28-1.42,3-2.12,6.2-3.51,9.18a32.68,32.68,0,0,0-1.22,3.41c-1,2.75-2,5.47-2.92,8.22s-1.76,5.28-2.64,7.92c-.94,2.87-2,5.72-2.82,8.62-.73,2.44-1.63,4.83-2.29,7.27-.88,3.22-1.86,6.4-2.83,9.58-.74,2.37-1.38,4.77-2.08,7.14-.82,2.79-1.65,5.58-2.33,8.4-.35,1.48-.94,2.9-1.19,4.38s-.93,2.92-1.12,4.4a20.47,20.47,0,0,1-.89,3.92c-.41,1.21-.62,2.47-1,3.68a38.59,38.59,0,0,0-.89,4.48c-.25,1.56-.58,3.11-.88,4.67-.21,1.13-.47,2.27-.61,3.41a24.35,24.35,0,0,1-.46,4.23c-.49,1.52-.15,3-.34,4.61a6.34,6.34,0,0,0,3.05-1.74c2.23-2,4.32-4.21,6.62-6.16,2-1.66,3.49-3.71,5.36-5.45s3.64-3.52,5.37-5.37c1.57-1.68,3-3.48,4.5-5.22.25-.29.54-.54.8-.81,1.81-1.93,3.63-3.83,5.4-5.78,2-2.22,4-4.48,6-6.72s3.76-4.17,5.54-6.34,3.8-4.45,5.83-6.58c1.45-1.53,2.74-3.21,4.11-4.82a5.08,5.08,0,0,1,.39-.41c2.38-2.51,4.77-5,7.13-7.53.73-.77,1.37-1.61,2.06-2.41a6.14,6.14,0,0,1,.67-.68l4-3.42h.95l2,1.53C471.29,519.09,470.77,519.8,471.45,519.91Zm-100.57,6.6c.1-2.27-.38-4.47-.43-6.71,0-1.55-.26-3.08-.42-4.62,0-.16-.23-.29-.47-.57a6.83,6.83,0,0,0-1.13.71c-1.72,1.55-3.42,3.13-5.11,4.71-2.34,2.19-4.66,4.4-7,6.6a3.44,3.44,0,0,1-.27.27c-1.74,1.5-3.53,3-5.23,4.49-2.23,2-4.4,4.13-6.59,6.2a2.2,2.2,0,0,1-.27.26c-2.31,1.43-3.88,3.68-6,5.34-2.36,1.85-4.29,4.21-6.58,6.2-3.41,3-6.58,6.23-9.83,9.38-1.68,1.63-3.35,3.28-5,5-2.48,2.59-5.19,4.94-7.45,7.75-1.64,2-3.57,3.88-5.36,5.81s-3.61,3.83-5.39,5.77c-.76.83-1.47,1.69-2.18,2.56-1.64,2-3.22,4.08-4.93,6s-3,4.22-4.74,6.16c-.75.84-1.2,1.86-1.87,2.73a94.56,94.56,0,0,0-7.8,12c-.71,1.27-1.24,2.65-2,3.87a30,30,0,0,0-2.33,5.14c-.78,2-1.39,4-2.06,6a47.52,47.52,0,0,0-1,5.2c-.14.65-.21,1.32-.32,2a6.8,6.8,0,0,1,.29,1.71,13.87,13.87,0,0,0,1.21,6.47c.91,2.07,2.06,4,4.39,5a34.5,34.5,0,0,0,8.31,1.35c.48-.05.93-.32,1.4-.35,1.05-.06,2.08-.19,3.12-.34a36.09,36.09,0,0,0,8.29-2.07,55.63,55.63,0,0,0,8.16-3.6c3.06-1.81,6.11-3.6,9-5.68a73.62,73.62,0,0,0,8-6.61,14.6,14.6,0,0,1,3.21-2.86,1.26,1.26,0,0,0,.53-.54c.57-1.25,1.73-2,2.59-2.94s1.76-2.1,2.72-3.08a34.62,34.62,0,0,0,4.81-5.91,22.07,22.07,0,0,1,1.47-1.91c1.59-2.11,3.21-4.21,4.78-6.34.4-.54.66-1.17,1-1.73.7-1.08,1.46-2.12,2.15-3.2.85-1.35,1.58-2.77,2.48-4.07A94.26,94.26,0,0,0,353.05,588c2.19-4.16,4.16-8.44,6.21-12.67.48-1,.92-2,1.32-3,.84-2.14,1.65-4.29,2.46-6.45a29.52,29.52,0,0,0,1.67-4.6c.42-2.16,1.37-4.14,1.75-6.31.44-2.5,1.65-4.84,1.73-7.44,1-2.2.9-4.64,1.49-6.94a16.85,16.85,0,0,0,.39-3.1,7.8,7.8,0,0,1,.39-3.11C370.19,531.73,370.76,529.13,370.88,526.51Z" style="fill:#fff"/><path d="M562.68,521.8c-1.56.77-3.07,1.58-4.63,2.27-1.89.83-3.83,1.54-5.74,2.31-2.43,1-4.77,2.12-7.22,3-1.25.47-2.44,1.11-3.65,1.67-2.88,1.33-5.75,2.66-8.64,4-.64.29-1.33.52-2,.79a28.07,28.07,0,0,0,.31,4.19,26.51,26.51,0,0,1,0,5.12c0,1-.24,2.07-.36,3.11a15.42,15.42,0,0,1-.3,3.13,31.29,31.29,0,0,0-.41,3.48c-.35,1.79-.67,3.58-1.07,5.37-.33,1.49-.52,3-.9,4.47-.47,1.88-1.08,3.72-1.63,5.58a45.31,45.31,0,0,1-3.89,8.85,30.49,30.49,0,0,1-5.1,7c-.76.77-1.54,1.51-2.28,2.29a26.83,26.83,0,0,1-6.79,5.12,30,30,0,0,1-5.57,2.73c-1.39.42-2.73,1-4.14,1.34-1.18.28-2.43.31-3.65.48a2.59,2.59,0,0,0-.72.37h-5.69c-.18-.13-.36-.37-.53-.36a6.53,6.53,0,0,1-3.57-.76,3.8,3.8,0,0,0-1.21-.38c-3-.56-5.25-2.41-7.25-4.5-1.38-1.44-2.29-3.32-3.54-4.91a12.13,12.13,0,0,1-2.09-5.77,13.52,13.52,0,0,1,1.16-7,32.89,32.89,0,0,1,2.28-4.56,40,40,0,0,1,5.74-7.69,79.31,79.31,0,0,1,9.65-8.94c1.5-1.09,2.83-2.42,4.33-3.51,1.88-1.37,3.89-2.56,5.77-3.93s3.93-2.5,5.88-3.77a105.34,105.34,0,0,1,9.31-5c3.54-1.81,7.12-3.55,10.67-5.34.47-.24.9-.58,1.32-.85a12.81,12.81,0,0,0-4.35-4.87,15.29,15.29,0,0,0-4-1.68,20.52,20.52,0,0,0-7.38-1.33c-2,.12-4,0-6.07,0a5.88,5.88,0,0,1-5.43-3.65,5.73,5.73,0,0,1-.16-1c-3.13,6.28-6,12.44-10.1,17.91a35.16,35.16,0,0,1-4.33,5.33,28.06,28.06,0,0,1-2.83,2.42c-2.21,1.46-4.43,3-7.32,2.52-2.32-.77-3.65-2.56-4.59-4.72a17.36,17.36,0,0,0-1-2.14,21.34,21.34,0,0,1-3.14-9.07c0-.13-.23-.23-.36-.34v-6.08c.13-.11.35-.21.36-.34.15-1.22.17-2.47.43-3.67.33-1.59.86-3.15,1.3-4.72a46.66,46.66,0,0,1,3-7.24A15.12,15.12,0,0,1,474,503.6c1-.19,1.39.62,1.88,1.13a24.57,24.57,0,0,1,1.79,2.15,5.82,5.82,0,0,1,1.51,2.66c.17,1,.64,2,0,3,.15,2.26-.83,4.32-1.24,6.47a69.54,69.54,0,0,1-1.76,8,32.49,32.49,0,0,0-.82,5.07,10.65,10.65,0,0,1-.4,2c-.64,1.78-.24,3.59-.37,5.48a5.59,5.59,0,0,0,3.78-.43,13.9,13.9,0,0,0,4.73-3.18,28.85,28.85,0,0,1,2.28-2.28,33.87,33.87,0,0,0,5.51-7.21,98.54,98.54,0,0,0,5.56-10.33c.95-2,1-2,.53-4a14.21,14.21,0,0,1,.22-7.12c.92-3.65,2.94-6.65,5.1-9.64a32.85,32.85,0,0,1,4.66-4.91,19.32,19.32,0,0,1,4.23-2.9,63.08,63.08,0,0,1,9.9-4.22c1.35-.42,2.62,0,4-.41l2.58,2-.22.18,2.63,4.39c-.12.94-.25,2-.36,2.94a50.56,50.56,0,0,1-6.27,6.8c-.83.83-1.78,1.55-2.67,2.31s-1.73,1.43-2.55,2.19c-2,1.83-4,3.61-5.9,5.54-1.6,1.65-3,3.47-4.49,5.24a3.45,3.45,0,0,0-.35,1c.9.18,1.72.3,2.52.52s1.36.53,2.05.75a37.23,37.23,0,0,1,6.95,2.67,21.73,21.73,0,0,1,5.59,3.89,26,26,0,0,1,3.5,5.18c.3.53.59,1.06.92,1.67,1.83-.79,3.53-1.62,5.28-2.28s3.47-1.4,5.23-2l5.3-1.9c1.7-.63,3.39-1.31,5.1-1.93s3.54-1.25,5.3-1.91,3.5-1.35,5.39-2.08c.12,0,.38.16.69.29.43.74.92,1.51,1.32,2.32A2.84,2.84,0,0,1,562.68,521.8Zm-35.27,15.53a43,43,0,0,1-5.17,2.59c-2.43.83-4.52,2.31-6.87,3.29a51.51,51.51,0,0,0-5.58,3.17c-1.74,1-3.54,1.94-5.24,3-2.63,1.67-5.24,3.38-7.8,5.17a75.25,75.25,0,0,0-8.48,6.94,54.66,54.66,0,0,0-6.55,7.21,47.1,47.1,0,0,0-4.49,6.95,16.67,16.67,0,0,0-1.9,8.16,6.78,6.78,0,0,0,5.17,6.73,17.24,17.24,0,0,0,4,1.05,28.17,28.17,0,0,0,9.63-.71,25.91,25.91,0,0,0,4.82-1.58c2.49-1.3,5.25-2.14,7.38-4.09a10,10,0,0,0,3.57-2.59,31,31,0,0,0,4.15-4,65.61,65.61,0,0,0,4.56-6.47,52.1,52.1,0,0,0,4.9-11.57,58.49,58.49,0,0,0,2.37-9.53c.17-1.38.62-2.73.73-4.14a23.29,23.29,0,0,0,.35-4.25.81.81,0,0,1,0-.38C527.73,540.77,527.21,539.13,527.41,537.33Zm-48.67-48.21a10.82,10.82,0,0,0-1.1-2.21v-2.46l1-1,2.36.48,3,3.51c.17.79.37,1.68.59,2.69l-2.68,2.25C480.09,491.67,479.1,490.75,478.74,489.12Z" style="fill:#fff"/><path d="M608,521.43c-1.28,1.46-3,2-4.51,2.64-1.94.85-4.06,1.26-5.93,2.3-1.49.84-2.94,1.76-4.51,2.7,0,.37,0,.73,0,1.1a70.39,70.39,0,0,1-.43,7.27c-.36,2.33-.74,4.67-1.32,7-.45,1.76-.87,3.54-1.32,5.3a31.36,31.36,0,0,1-1.73,4.78c-1,2.36-2.05,4.7-3.25,7A16.63,16.63,0,0,1,582.7,565c-.62.66-.94,1.56-1.52,2.29a44,44,0,0,1-4.66,5.35,29.11,29.11,0,0,1-11.54,7,14.94,14.94,0,0,1-13.66-2.27c-1.68-1.25-2.61-3.25-3.46-5.17-.41-1-.78-1.91-1.13-2.88a9.65,9.65,0,0,1-.78-3.56c0-.88,0-1.77,0-2.65a12.37,12.37,0,0,1,.37-2.35,14.6,14.6,0,0,1,.86-2.4,25.12,25.12,0,0,1,4.55-6.9,65.5,65.5,0,0,1,9.91-8.12c2.12-1.47,4.23-2.94,6.39-4.36,2.4-1.58,4.87-3,7.4-4.41,2.79-1.52,5.49-3.2,8.27-4.75,1.81-1,3.68-1.91,5.56-2.89a14.11,14.11,0,0,0-2.73-8.1,28.13,28.13,0,0,0-3.32-3.57,13,13,0,0,0-5.86-2.88,20.38,20.38,0,0,0-4.29-.95,23.43,23.43,0,0,1-3-.64c-1.41-.2-2.84-.22-4.25-.41-2.48-.34-4.83-1-6.37-3-.74-1.36-.54-2.75-.61-4.1-.06-1.17-.31-2.33-.35-3.5a9,9,0,0,1,2.43-6.37,39.35,39.35,0,0,1,10.72-8.17c7.09-3.88,14.4-7.31,21.61-11a2.83,2.83,0,0,0,.44-.3h2.9c.75,1.81,1.57,3.59,1.33,5.87-1.53,2.26-3.07,4.78-5.63,6.49a23.29,23.29,0,0,0-2.84,2.42,69.29,69.29,0,0,1-8,6c-2.52,1.73-5.1,3.39-7.67,5.05-1,.66-2.11,1.24-3.15,1.88a7.64,7.64,0,0,0-.95.84c2.22.64,4.26,1.19,6.27,1.82a24.83,24.83,0,0,1,7.23,3.45,18.06,18.06,0,0,1,4.49,4.77,32.86,32.86,0,0,1,3,6.23c.67,1.68,1.14,3.44,1.73,5.29a4.75,4.75,0,0,0,1-.23c3.47-1.67,6.92-3.37,10.39-5,.76-.37,1.59-.6,2.45-.92.2.16.49.26.57.46C607.26,519.38,607.62,520.41,608,521.43Zm-19.07,10.2c-1.8,1.13-3.35,2.12-4.92,3.07-2,1.23-4.19,2.29-6.13,3.65-3,2.09-6.13,3.86-8.94,6.16-2,1.68-4.21,3.22-6.28,4.85-1.08.85-2,1.87-3.12,2.68a28.6,28.6,0,0,0-6.34,6.56,17.36,17.36,0,0,0-2.8,6.68,10.28,10.28,0,0,0,.73,6.44c1,.43,2,.91,2.93,1.21a16.24,16.24,0,0,0,2.87.49,6.16,6.16,0,0,0,1.48-.11,12.36,12.36,0,0,1,1.44-.24,8.44,8.44,0,0,0,3.18-.77c1.23-.53,2.42-1.13,3.61-1.73a29.85,29.85,0,0,0,6.13-4.35,36.72,36.72,0,0,0,2.69-2.75c.87-1,1.61-2,2.41-3a51.55,51.55,0,0,0,4.15-6.67c1-1.68,1.57-3.57,2.63-5.21.07-1.7,1-3.1,1.55-4.65.42-1.26.82-2.53,1.14-3.82.38-1.53.68-3.08,1-4.63C588.53,534.26,588.69,533.05,588.92,531.63Z" style="fill:#fff"/><path d="M702.28,422.43a17.58,17.58,0,0,1-.69,3.95c-.69,3.2-2.38,5.88-4,8.61a53.43,53.43,0,0,1-3.9,5.17,72.83,72.83,0,0,1-7.85,8.15,68.65,68.65,0,0,1-5.94,4.75c-.67.52-1.43.94-2.09,1.49a4,4,0,0,0-.73,1,57.64,57.64,0,0,0-2.35,5.34c-1.3,2.88-2.22,5.91-3.6,8.76-.68,1.41-1,3-1.58,4.45-.91,2.18-1.63,4.44-2.37,6.67a49.69,49.69,0,0,0-2.19,7.12,14.21,14.21,0,0,1-.73,2,65.73,65.73,0,0,0-2.11,7.33c-.63,2.78-1.75,5.43-2.08,8.29a26.34,26.34,0,0,1-.82,3c-.58,2.54-1.17,5.08-1.87,7.59s-1.07,4.85-1.69,7.26a6.77,6.77,0,0,0-.43,3.69c1.74-.18,3.5.39,5.19-.37a.8.8,0,0,1,.38,0,15.48,15.48,0,0,0,7-1.71,20.43,20.43,0,0,0,6.15-3.66,49.2,49.2,0,0,1,4-3.29,5.28,5.28,0,0,1,2.63-1.22,7.41,7.41,0,0,0,1.17-.36l3.27,2.72v1.15a3,3,0,0,0-.28.4,20.82,20.82,0,0,1-6.26,7,9.85,9.85,0,0,0-1.59,1.27c-1.46,1.62-3.6,2.11-5.36,3.22-1.33.84-3.09,1-4.66,1.42-1,.27-2,.48-3,.67-3.5.63-7,.13-10.67.39a32.32,32.32,0,0,1-.8,3.3c-.81,2.3-.78,4.8-1.77,7.06a11.46,11.46,0,0,0-.35,2.16c-.53,2.24-1.1,4.48-1.66,6.71s-1.15,4.33-1.69,6.51c-.35,1.41-.53,2.88-1,4.25-.78,2.24-.88,4.63-1.68,6.89-.44,1.22-.54,2.6-.92,3.89-.66,2.21-1,4.5-1.58,6.73-.48,1.94-1.36,3.78-1.71,5.73s-1.34,3.78-1.9,5.69c-1.16,3.94-2.75,7.76-3.64,11.8a35.61,35.61,0,0,1-1.54,4.26c-.24.69-.49,1.37-.66,2.08a6,6,0,0,1-2.12,3.35c-1.5.28-2.47-.91-3.58-1.71-.7-.5-1.31-1.13-2.12-1.84-.23-.57-.56-1.35-.87-2.1.11-.8.17-1.59.34-2.37.4-1.91.43-3.87,1-5.76a21.12,21.12,0,0,0,.5-3.07c.13-.79.2-1.59.4-2.35.56-2.13.67-4.35,1.18-6.48a26.84,26.84,0,0,0,.34-2.93c.15-1.14.43-2.26.66-3.4.17-.9.23-1.81.41-2.72q.62-3.21,1.46-6.38c.25-.94.19-1.94.46-2.9.41-1.46.64-3,.91-4.47.4-2.15,1.17-4.22,1.41-6.4a3.88,3.88,0,0,1,.38-1.21c.77-1.57.75-3.32,1.13-5,.26-1.12.6-2.22.86-3.35.14-.65.13-1.35.3-2s.52-1.36.72-2.06.24-1.31.4-2c.57-2.23,1.23-4.44,1.72-6.69.32-1.48,1.12-2.86,1-4.46,0-.26.23-.55.36-.81-.74-.95-1.9-.78-2.84-1.07s-2.3-.06-3.25-.5-2.16.09-3-.68c0,0-.13,0-.19,0-3.07.08-6.11-.71-9.18-.36a13.8,13.8,0,0,0-3.72.86c-.92.38-1.93.13-2.82.75s-1.89.56-2.68,1.07c-1,.63-2.15.88-2.92,1.87-.57.71-1.5,1.13-2.1,1.82a33.82,33.82,0,0,0-2.56,3.39,21.78,21.78,0,0,0-2.56,6.38,9,9,0,0,0,0,4.12,14.91,14.91,0,0,0,3.29,6.86,10.1,10.1,0,0,1,.91,1.89l-1.15.92h-1.24c-.93-1.15-2-2.46-3-3.75a34.31,34.31,0,0,1-2.68-4.76,7.17,7.17,0,0,1-.72-2.24c-.2-1.08-.26-2.2-.41-3.29,0-.13-.24-.23-.37-.34V545c.11-.05.29-.1.3-.17.17-1.15.26-2.32.48-3.47a13.21,13.21,0,0,1,.79-2.6A34.92,34.92,0,0,1,599.8,535a21.91,21.91,0,0,1,2.17-3c2.58-3,5.46-5.65,9.4-6.81,1.47-1.08,3.4-.91,5-1.8a1.07,1.07,0,0,1,.37,0c2.17-.13,4.35-.28,6.52-.37a39.59,39.59,0,0,1,7.75.67c2,.32,3.95.78,5.91,1.18a42.93,42.93,0,0,0,4.48.49c.71-3.16,1.27-6.27,2.11-9.3.75-2.74,1.28-5.55,2-8.29.59-2.16,1.13-4.35,1.76-6.49,1-3.18,1.59-6.47,2.92-9.54.1-1.93,1.25-3.53,1.71-5.37.58-2.34,1.71-4.54,2.42-6.83,1.2-3.9,2.76-7.64,4.26-11.41a10.44,10.44,0,0,0,.32-1.37,12.51,12.51,0,0,0-1.8.83c-3.45,2.34-7.21,4.16-10.62,6.56-1.8,1.26-3.73,2.35-5.52,3.65-2.53,1.85-5.12,3.61-7.55,5.63a88.25,88.25,0,0,0-7.88,7.22,45.45,45.45,0,0,0-5.57,7.17,14,14,0,0,0-1.57,5c-.07.35-.17.69-.27,1.11.11.75.24,1.59.38,2.5a9.71,9.71,0,0,0,3.14,4.43c.86.69,1.82,1.25,2.73,1.88.45.31.87.65,1.37,1-.25.6-.45,1.11-.66,1.62h-2.25a21.19,21.19,0,0,1-6-5A20.17,20.17,0,0,1,613,503l.43-6,.17.05a18.27,18.27,0,0,1,.81-1.8c.76-1.33,1.54-2.64,2.4-3.91a24.3,24.3,0,0,1,1.89-2.3,33.44,33.44,0,0,1,3.14-3.47c2.5-2.13,4.86-4.42,7.45-6.48,3.63-2.87,7.63-5.14,11.42-7.75,3-2.08,6.22-3.9,9.41-5.71,2.86-1.63,5.66-3.4,8.48-5.1.95-.57,1.88-1.17,2.86-1.66a3.53,3.53,0,0,0,1.78-1.79c.45-1,1-2,1.48-3,1.53-3.19,3-6.39,4.6-9.57s2.92-6.19,4.62-9.14,3.08-5.84,5-8.56c1.48-2.1,2.56-4.46,4.07-6.53a34.22,34.22,0,0,1,2.69-3.53c1-1,1.91-2.07,2.93-3.06a32.23,32.23,0,0,1,4.07-2.78h2.66c1.3.87,2.86,1.85,4.33,2.93a5.33,5.33,0,0,1,1.24,1.6c.5.84.91,1.74,1.38,2.65C702.28,419.53,702.26,421,702.28,422.43Zm-4.92-5.08c-.56.34-1.11.49-1.34.84-1,1.67-2.74,2.87-3.37,4.82a75,75,0,0,0-6.3,11.36c-1.45,3-2.87,6.07-4.3,9.11-.1.21-.22.41-.32.61l.26.26c1.92-2.15,4.15-4,6-6.29,1.41-1.79,2.83-3.57,4.21-5.4a42.18,42.18,0,0,0,3.39-6.05,7.22,7.22,0,0,0,.28-.86c.54-1.55,1.34-3,1.13-4.78C697.57,419.86,697.27,418.68,697.36,417.35Z" style="fill:#fff"/><path d="M795.13,383.34a14.24,14.24,0,0,1-.66,4.16,2.59,2.59,0,0,0-.11.54,17.23,17.23,0,0,1-.75,4.51c-.42,1.9-.67,3.85-1.18,5.72-.62,2.28-.7,4.7-1.85,6.83a25.57,25.57,0,0,1-1.16,5.34,24.84,24.84,0,0,1-.77,2.81c-.79,2.23-1.07,4.59-1.84,6.84-1,3-1.66,6.18-2.59,9.26-.72,2.37-1.32,4.78-2,7.16q-1.63,5.48-3.41,10.91c-1.23,3.74-2.44,7.49-3.89,11.14-.66,1.63-1.14,3.34-1.87,4.92a23.76,23.76,0,0,0-1.86,4.94c0,.17-.25.29-.32.46-1.61,3.74-3.09,7.53-4.68,11.27-1,2.4-2.06,4.81-3.14,7.2a66.34,66.34,0,0,0-3.63,8.17c-.2.68-.81,1.23-1.08,1.9-1.27,3.17-3.1,6.09-4.21,9.32-1.91,2.44-2.63,5.55-4.47,8a20.11,20.11,0,0,0-1.22,2.46c-.44.81-.93,1.58-1.39,2.37a12.91,12.91,0,0,0-1.64,4.81c-.28,2.14-.37,4.3-.83,6.4-.23,1.06-.12,2.11-.35,3.11-.31,1.32-.12,2.71-.64,4a2,2,0,0,0-.08.55c-.13,2.49-.23,5-.39,7.47-.07,1-.3,2.07-.36,3.11a15.66,15.66,0,0,1-.06,3.22c-.52,1.86-.06,3.75-.36,5.58-.64,3.82-.19,7.65-.36,11.47a11.5,11.5,0,0,1-.27,1.24c-.06.3-.19.67-.07.91.65,1.32.25,2.72.34,4.07.16,2.24.23,4.48.41,6.72a20.85,20.85,0,0,0,.52,2.54c.7.12,1-.48,1.27-.9.66-1,1.19-2.12,1.77-3.2,1.21-2.24,2.39-4.49,3.41-6.83q1.83-4.17,3.63-8.36c.41-1,.71-2,1.16-2.87,1.27-2.57,1.87-5.38,3.25-7.93,1.17-2.18,1.82-4.64,3.08-6.81-.08-1.08.72-1.78,1.13-2.65a27.44,27.44,0,0,0,1.69-4,19,19,0,0,1,1.45-2.93A36.47,36.47,0,0,1,767,533.5a28.32,28.32,0,0,0,1.36-3c.86-1.68,1.79-3.33,2.7-5,.32-.58.61-1.17,1-1.73,1.12-1.76,2.23-3.51,3.4-5.23a12.75,12.75,0,0,1,1.36-1.42l2.83,1.08.7,1.16a3,3,0,0,1-.18.45c-1.41,2.44-2.92,4.82-4.21,7.31-1.67,3.25-3.34,6.52-4.68,9.9-1.12,2.82-2.46,5.54-3.57,8.37a60,60,0,0,1-2.88,6.89c-.72,1.36-.9,2.88-1.5,4.3-1.12,2.66-1.84,5.5-2.79,8.24-.65,1.89-1.5,3.72-2.06,5.63-.41,1.4-.8,2.79-1.29,4.16-1.3,3.71-2.5,7.47-3.92,11.13a32.57,32.57,0,0,1-3,5.86c-1,1.56-2.16,3.15-4.27,3.47-.36.06-.66.46-1,.71h-.76a2.54,2.54,0,0,0-.53-.37,7.78,7.78,0,0,1-2.44-1.19,10.83,10.83,0,0,0-3.07-1.61,9.42,9.42,0,0,1-4.23-3.2,18.6,18.6,0,0,1-3-5.4c-.29-.93-.72-1.81-1-2.74a5.73,5.73,0,0,1-.55-2.49,2.06,2.06,0,0,0-.21-.88,18.71,18.71,0,0,1-.94-5,9.32,9.32,0,0,0-.47-3.08,7.27,7.27,0,0,1-.26-1.82c-.69-5.77-.27-11.56-.39-17.35a1.77,1.77,0,0,0-.18-.42c-1,1-1.92,1.86-2.8,2.83a21.73,21.73,0,0,1-5.59,4.28,14.35,14.35,0,0,1-6.76,2,7.11,7.11,0,0,1-4.17-1.25,18.68,18.68,0,0,1-5.69-5.61,17.81,17.81,0,0,1-2.13-5.18c-.42-1.84-.78-3.69-1.14-5.53a6.19,6.19,0,0,1,0-1.14V536c-.5.89-.81,1.43-1.1,2a11.22,11.22,0,0,1-4.1,4.46c-.58.34-1.18.91-1.87.63-1-.38-2.12-.2-2.9-1a24.39,24.39,0,0,1-1.81-2.12c-1.35-1.83-2.69-3.67-3.95-5.56a14.16,14.16,0,0,1-1.72-4.4,21.8,21.8,0,0,1-.75-7.54,20.33,20.33,0,0,1,.64-4.16c.26-.82-.14-1.76.47-2.52a56.39,56.39,0,0,1,2-8.3c.67-2.48,1.9-4.72,2.7-7.14a13.33,13.33,0,0,1,2.72-4l2.38.55,1.73,2.07c1.67.34,2.4,1.93,3,3.54a2.42,2.42,0,0,1,.09,1.41,19.6,19.6,0,0,0-.67,3.59c-.13,1.51-.61,3-.88,4.47a43,43,0,0,1-1,4.64c-.58,1.93-.06,4.07-1.11,5.92-.08.14,0,.37,0,.56a27.07,27.07,0,0,1-.71,5.66,17.73,17.73,0,0,0,0,3.36,12.45,12.45,0,0,0,3.72-4.37,26.46,26.46,0,0,0,2.66-5c1-2.7,2.66-5,3.55-7.78a22.28,22.28,0,0,1,2.31-4h1.58l3.26,2.73c0,.9,0,1.65,0,2.41a30.37,30.37,0,0,1-.89,6.38,22.09,22.09,0,0,1-.59,3.61,10.23,10.23,0,0,0-.41,2.72,5.73,5.73,0,0,1-.39,2.74s0,.12,0,.18c-.13,2.24-.24,4.48-.39,6.72,0,.53-.24,1-.24,1.58s.23,1,.23,1.43-.21,1-.23,1.44c0,.93-.07,1.86,0,2.79,0,.54.25,1.07.27,1.62a14.48,14.48,0,0,0,1.61,6,3,3,0,0,0,.49.59,18.38,18.38,0,0,0,3.4-.85,22.55,22.55,0,0,0,5.81-3.47c.78-.71,1.63-1.35,2.41-2a39,39,0,0,0,4.51-5c.61-.77,1.16-1.59,1.76-2.37s1.35-1.62,1.85-2.23c.59-1.88.34-3.65.94-5.3a2.09,2.09,0,0,0,0-.75,15.42,15.42,0,0,1,.75-4.9,2.68,2.68,0,0,0,0-.75,22.7,22.7,0,0,1,.69-4.91c.23-1,.19-2.2.45-3.28.44-1.78.52-3.61,1-5.37a13.16,13.16,0,0,0,.41-2.71,44.62,44.62,0,0,1,1-4.65c.28-1.55.64-3.09,1-4.64.37-1.78.87-3.53,1.33-5.28.84-3.22,1.62-6.47,2.48-9.69.58-2.16,1.3-4.28,1.87-6.44.8-3,1.77-6,2.68-9a31.79,31.79,0,0,0,1.33-3.76,29.06,29.06,0,0,1,1.32-4.15c.19-.58.42-1.14.77-2.09V459l.21.06c.68-1.88,1.32-3.78,2.06-5.63,1-2.48,1.67-5.07,2.79-7.51,1-2.14,1.66-4.41,2.53-6.61.71-1.81,1.5-3.58,2.23-5.38.91-2.25,1.79-4.51,2.7-6.76.48-1.18,1-2.35,1.5-3.52,1.46-3.34,3-6.66,4.38-10,1.18-2.86,2.53-5.64,3.87-8.43,1.08-2.24,2.06-4.54,3.17-6.76,1.6-3.21,3.15-6.45,5-9.53,1.62-2.74,3.24-5.48,5.1-8.09,1.31-1.83,2.8-3.45,4.21-5.17a11.14,11.14,0,0,1,3.14-2.25,2.16,2.16,0,0,1,2.86.39c1.1,1.07,2.38,2,2.65,3.73a4,4,0,0,0,.6,1.16C795.12,380.18,795.07,381.76,795.13,383.34Zm-3.94-4a26,26,0,0,0-2,2.1,40.15,40.15,0,0,0-3.53,6A146.73,146.73,0,0,0,779,402.06q-2.07,5.25-3.95,10.55c-.64,1.76-1.24,3.54-1.9,5.3a23.44,23.44,0,0,0-1.52,3.88c-.42,2.43-1.57,4.58-2.17,6.93-.53,2-1.42,4-2.06,6-.93,2.88-1.82,5.78-2.68,8.67-1,3.42-2.11,6.82-3,10.26-.19.7-.57,1.35-.74,2.05-.78,3.3-1.76,6.55-2.67,9.81-.77,2.74-1.54,5.48-2.27,8.22-.34,1.29-.82,2.58-1,3.85-.31,2.12-1,4.13-1.33,6.26s-1.13,4.32-1.56,6.54-1,4.38-1.42,6.57c-.11.51-.28,1-.42,1.51,1.13-1.07,1.42-2.47,2.13-3.69,1.09-1.88,1.92-3.92,2.85-5.89s1.7-3.91,2.69-5.8a10.36,10.36,0,0,0,1.12-2.66,3.4,3.4,0,0,1,.45-1c1.63-2.53,2.25-5.53,3.85-8.06a3.32,3.32,0,0,0,.24-.69,13.38,13.38,0,0,1,.51-1.55c.78-1.72,1.61-3.42,2.4-5.13.33-.71.59-1.44.9-2.16.75-1.78,1.52-3.57,2.27-5.36.39-1,.77-1.91,1.13-2.87.28-.74.52-1.49.8-2.23,1-2.65,2.06-5.3,3-8,.54-1.48.88-3,1.53-4.46s.67-3.21,1.46-4.68a4.94,4.94,0,0,0,.73-1.85,8.17,8.17,0,0,1,.78-2.8,14.69,14.69,0,0,0,.76-2c.42-1.52.75-3.06,1.18-4.58.17-.64.66-1.22.7-1.86.17-2.41,1.26-4.56,1.87-6.83a70.44,70.44,0,0,1,2.65-8.86c0-2.49,1.18-4.71,1.7-7.08.56-2.6,1.25-5.18,1.8-7.79.36-1.72.8-3.43,1.11-5.16A17.59,17.59,0,0,0,791.19,379.33Z" style="fill:#fff"/><path d="M736.38,615.73a31.76,31.76,0,0,1-1,6.71c-.32,1.48-.59,3-.88,4.47,0,.07,0,.14,0,.19-.74,1.44-.72,3.07-1.12,4.59-.45,1.7-.76,3.44-1.16,5.16s-.83,3.41-1.25,5.12c-.5,2-1.07,4-1.45,6a33,33,0,0,1-.9,3.52c-.68,2.27-1.08,4.6-1.69,6.88s-1,4.37-1.54,6.56a6.15,6.15,0,0,1-.22,1.07c-.38.83-.82,1.64-1.21,2.41-2,.35-2.84,0-3.67-1.64a13.67,13.67,0,0,0-2.19-3.41,11.28,11.28,0,0,1-1.43-2.62c0-.07,0-.19,0-.32-.3-2.83.62-5.47,1.35-8.12,1-3.62,2.11-7.2,3.13-10.81.27-.94.14-1.93.38-2.92a20.33,20.33,0,0,0,.42-5c0-1.45.45-2.85.37-4.25a48.86,48.86,0,0,0-.78-8.11,9,9,0,0,0-2.45-4.66,17.61,17.61,0,0,0-5-3.85,18.18,18.18,0,0,0-6.28-1.86,14.24,14.24,0,0,0-3.3-.27c-2.59.49-5.23.39-7.85,1a95.77,95.77,0,0,0-11.78,3.69,56.84,56.84,0,0,0-6.91,3.42,75.34,75.34,0,0,0-7.58,4.84c-4.93,3.4-9.1,7.6-13.28,11.83-.6.61-1.1,1.34-1.65,2s-1.08,1.35-1.64,2c-1.31,1.58-2.68,3.11-3.93,4.73s-2.64,3.56-3.84,5.41c-2.43,3.75-4.92,7.47-7.14,11.33s-4.07,7.68-5.95,11.59c-1.48,3.07-2.79,6.22-4.09,9.36-1.12,2.69-2.2,5.4-3.16,8.13-1.53,4.35-3,8.71-4.41,13.08-1.14,3.51-2.07,7.09-3,10.65-.65,2.4-1.06,4.85-1.78,7.24a40.15,40.15,0,0,0-.84,5.06,20.39,20.39,0,0,1-.39,2.34c-.41,1.49-.44,3.05-.82,4.5s-.21,3.17-.61,4.74a24.52,24.52,0,0,0-.43,5.57q-.11,4.46,0,8.91c.06,2.63.35,5.23.44,7.86.07,2.07.49,4.14.72,6.22.22,1.86.88,3.68,1.06,5.55a39.28,39.28,0,0,0,1.25,5.51c.64,2.57,1.74,5,2.57,7.56a62.38,62.38,0,0,0,3.5,7.45,29.39,29.39,0,0,0,2.69,4,14.5,14.5,0,0,0,4.06,4c1,.62,2,1.2,2.88,1.74h2a20.64,20.64,0,0,0,5.78-1c4.07-1.15,7.53-3.42,11-5.74,1.28-.86,2.31-2.09,3.53-3.06a34.88,34.88,0,0,0,2.7-2.74c.91-.89,1.79-1.79,2.69-2.68s1.93-1.84,2.81-2.83c1.27-1.44,2.45-2.95,3.69-4.42.85-1,1.7-2,2.58-3a48.51,48.51,0,0,0,4.14-5.23,25,25,0,0,1,2.15-2.57c1.85-2.08,3.45-4.34,5.1-6.58,1.21-1.65,2.64-3.14,3.91-4.74s2.6-3.44,3.91-5.16c1.49-2,3-3.91,4.48-5.88.74-1,1.47-2,2.2-3,1.06-1.43,2.11-2.87,3.17-4.31l2.67-3.54,4.48-5.88c.45-.59.88-1.18,1.3-1.75l3,1.27a1.74,1.74,0,0,1,.1-.19l1.84,1.82a14.54,14.54,0,0,1-1,2.17c-1.43,2.28-2.91,4.54-4.41,6.78-1.2,1.78-2.49,3.52-3.66,5.3s-2.44,3.52-3.61,5.32c-1.34,2.05-2.94,3.94-4.36,6-2.07,2.89-4,5.9-6.15,8.72-1.79,2.35-3.51,4.75-5.23,7.15-1,1.4-2.25,2.65-3.23,4.07-.81,1.18-1.7,2.27-2.58,3.39-2,2.51-3.71,5.19-5.61,7.76-.77,1-1.7,2-2.55,3-1.72,2-3.42,4-5.18,5.9a24.57,24.57,0,0,1-2.1,1.83,3.4,3.4,0,0,0-.3.23,37,37,0,0,1-5.79,4.65,29.36,29.36,0,0,1-6.39,3.43,17.91,17.91,0,0,1-4,1.29,20.4,20.4,0,0,1-4,.64c-1.2,0-2.4,0-3.6,0a16.36,16.36,0,0,1-7.59-1.87,62.19,62.19,0,0,1-9.57-5.34c-.4-.29-.79-.6-1.16-.92a28.28,28.28,0,0,1-2.67-2.32c-1.17-1.28-2.22-2.67-3.29-4a63.28,63.28,0,0,1-4.89-8,33.2,33.2,0,0,1-2.08-4.86c-.6-1.58-1.12-3.2-1.62-4.82-.72-2.37-1.39-4.76-1.88-7.21a36,36,0,0,0-1-4.62,16.23,16.23,0,0,1-.38-3.1,20,20,0,0,1-.47-5.19c0-.16-.23-.35-.36-.52V744.2a2.11,2.11,0,0,0,.37-.71c.15-2,.1-4.13.45-6.14.25-1.43.16-2.85.35-4.26.27-1.94.53-3.89.79-5.83.31-2.42.64-4.86,1.14-7.24.43-2,.87-4,1.34-6s1-3.87,1.47-5.83,1.12-3.71,1.59-5.57c.59-2.37,1.43-4.63,2.19-6.93s1.5-4.47,2.33-6.68c1.29-3.42,2.76-6.74,4.12-10.12,2.19-5.45,4.9-10.65,7.59-15.85a188,188,0,0,1,11.7-19.27c1.71-2.5,3.76-4.75,5.57-7.18a113.21,113.21,0,0,1,12.87-13.93c1.87-1.79,3.95-3.38,6-5s4.41-3.14,6.66-4.63c1.17-.77,2.41-1.44,3.63-2.14a38.66,38.66,0,0,1,4.71-2.41,85.47,85.47,0,0,1,9.89-3.66c2.21-.62,4.45-1.12,6.66-1.75,1.29-.38,2.72-.21,4-.46a27.65,27.65,0,0,1,6.73-.33,21.19,21.19,0,0,1,12.72,4.55c.95.8,1.91,1.6,2.81,2.46a9.64,9.64,0,0,1,1.37,1.74c1,1.58,2.32,3,3.3,4.65a34.62,34.62,0,0,1,3.55,8.06,6.22,6.22,0,0,0,.77-1.08c.58-1.53,1.07-3.09,1.66-4.61.89-2.33,1.79-4.65,2.77-6.93a10.55,10.55,0,0,1,1.29-1.82c1.37,1,1.87,2.36,2.77,3.45C736.37,613.72,736.36,614.73,736.38,615.73Z" style="fill:#fff"/><path d="M808.38,637.82c-.27,1-.08,2.06-.38,3.11s-.48,2-.77,3c-.47,1.57-.66,3.22-1.2,4.76-1,2.85-1.9,5.75-3.12,8.54a19.48,19.48,0,0,0-1.79,4.56c-.09.63-.69.91-.84,1.61-.29,1.34-1.4,2.41-1.8,3.76a16.76,16.76,0,0,1-1.8,3.59c-.85,1.46-1.38,3.11-2.13,4.64-.65,1.31-1.44,2.56-2.15,3.85-.84,1.54-1.63,3.12-2.51,4.64-1.48,2.61-2.89,5.26-4.61,7.72-1.37,1.95-2.59,4-3.91,6a16.44,16.44,0,0,1-1.7,2.19c-2.14,2.19-3.58,5-6.07,6.73-.66,2.72-1.17,5.34-1.94,7.9-.41,1.36-.53,2.86-.91,4.28-.83,3.11-1.23,6.31-2.18,9.39-.27.86-.14,1.82-.45,2.71s-.22,1.58-.43,2.34a25.38,25.38,0,0,0-.76,4.32,22.77,22.77,0,0,1-.59,2.67,2.88,2.88,0,0,0-.14.71,23.11,23.11,0,0,1-.73,4.9c-.29,1.38-.25,2.84-.43,4.24a25.32,25.32,0,0,1-.69,4.34,6.39,6.39,0,0,0-.06,1.32,31.77,31.77,0,0,1-.45,5.18,24.47,24.47,0,0,0-.31,3.89,10.16,10.16,0,0,1-.31,3.13c-.25.66.09,1.55.2,2.76a1,1,0,0,0-.24.59c0,2.64,0,5.28,0,8.34a43.09,43.09,0,0,0,3-4c1.5-2.66,2.94-5.37,4.2-8.15,2.42-5.34,4.93-10.63,7.61-15.84,1-2,2-3.9,3.07-5.81.54-.95,1.26-1.8,1.88-2.72,1.65-2.44,3.23-4.92,4.92-7.33,1.85-2.62,3.38-5.47,5.85-7.66a1.75,1.75,0,0,1,1.56.28,6.86,6.86,0,0,0,1.71.68l1.17,1.16a8.22,8.22,0,0,1-1.13,2.66c-2.2,3.88-4.68,7.59-6.79,11.53-1.56,2.91-2.88,5.92-4.28,8.9-1,2.18-1.69,4.54-2.66,6.76s-1.52,4.47-2.59,6.61c-.81,1.61-1.3,3.39-1.95,5.09a89,89,0,0,1-4,9.4,42.92,42.92,0,0,1-4.23,6.82,9.11,9.11,0,0,1-5.14,3.47c-.13,0-.23.24-.34.36h-1.89a39.84,39.84,0,0,0-5.72-3.09,11,11,0,0,1-5.68-4.82,27.28,27.28,0,0,1-3-7.62c-.45-2.21-1.15-4.45-.83-6.78-.74-2.84-.24-5.74-.38-8.61-.13-2.63.37-5.23.46-7.85.08-2.38.74-4.76.68-7.18.57-1,.12-2.2.68-3.21a1.48,1.48,0,0,0,.07-.73,14.81,14.81,0,0,1,.73-4.71,29.89,29.89,0,0,0,.43-3.29c.2-1.2.49-2.38.75-3.57.35-1.6.71-3.19,1.11-5a6.09,6.09,0,0,0-1.31.44,31.72,31.72,0,0,1-8.83,3.75,2.67,2.67,0,0,0-2,1.88,61.23,61.23,0,0,1-2.88,7.26c-1,2.26-2.33,4.41-3.53,6.6a38.17,38.17,0,0,1-7.22,9.13,16,16,0,0,1-4.18,3c-.59.29-1.18.62-1.76.93-1.11.61-2.32.3-3.46.39a7.64,7.64,0,0,1-4.07-3.39A5.67,5.67,0,0,0,712,754a24,24,0,0,1-4.65-6.22,29.6,29.6,0,0,1-2.63-7.88,22.9,22.9,0,0,1-.38-8.21c.27-1.85.09-3.8,1-5.57a2.31,2.31,0,0,0,.09-1.08c.46-1.28.73-2.22,1.14-3.09a33.27,33.27,0,0,1,2-3.87c.34-.53,1.06-.82,1.61-1.22l1.58.51a17,17,0,0,0,2.89,2.24,5.13,5.13,0,0,1,2.46,4.71c0,1.47.34,3-.35,4.44a1.13,1.13,0,0,0,0,.37c.13,3.58-.65,7.12-.39,10.71a9.38,9.38,0,0,1-.26,1.43c-.07.62-.3,1.37,0,1.84a5.46,5.46,0,0,1,.31,2.38c.15,1.35.28,2.7.43,4.13l.63,1.09c1.79-.65,3.61-1,5.19-2.24,1.36-1,3-1.77,4.13-3.09a47.42,47.42,0,0,0,9-15c-1.67-.52-3.32-.92-4.88-1.55a13.32,13.32,0,0,1-6.15-5.1,5,5,0,0,0-.52-.75c-2.26-2.24-3.27-5.06-4.09-8.07-.68-2.5.26-6.17,1.12-8a11.87,11.87,0,0,1,3.74-4.71,15,15,0,0,1,4.61-2.59,6,6,0,0,1,1.25-.24c.89,0,1.77,0,3,0,1.48,1.07,3.22,2.23,4.84,3.53a7.37,7.37,0,0,1,2.78,4.67,3.82,3.82,0,0,0,.28.67,23.41,23.41,0,0,1,.92,3.33,29.62,29.62,0,0,1,.28,6.16c0,1.35-.23,2.71-.34,4.06a9.06,9.06,0,0,0,.07,1.2,19,19,0,0,0,4.55-2.18c1.2-.82,2.59-1.36,3.85-2.1,1-.57,1.82-1.25,2.73-1.88a4.24,4.24,0,0,0,1.6-2.84c.45-2.34,1.4-4.52,2-6.81.75-3.06,2.2-5.91,2.7-9,1.73-3.36,2.31-7.14,3.93-10.56,1.17-2.46,1.92-5.1,2.9-7.65.45-1.19.94-2.36,1.47-3.52,1.5-3.33,2.81-6.74,4.34-10.06,1.11-2.41,2.2-4.85,3.29-7.28,2.41-5.35,4.91-10.65,7.6-15.86.53-1,1.13-2,1.68-3a74.61,74.61,0,0,1,3.89-6.57,33.27,33.27,0,0,1,4.14-5.66c.71-.68,1.2-1.61,1.94-2.25a15.38,15.38,0,0,1,5.17-3.39h3a18.58,18.58,0,0,1,4.23,4,7.43,7.43,0,0,1,1.33,4.11A20.47,20.47,0,0,1,808.38,637.82Zm-69.54,72.79c-.23-2.42-.68-4.77-3.12-6.37l-3.25.5c-1.09,1.21-2.18,2.26-3.09,3.45-2.43,3.17-2.86,6.87-2.66,10.71a4.91,4.91,0,0,0,.21.69,6.25,6.25,0,0,0,2.52,3.56,7.24,7.24,0,0,0,3.94,1.3c1.38.09,2.77,0,4.23,0a9.9,9.9,0,0,1,.51-2.16c.47-1,0-2,.44-2.9s0-1.66.33-2.37a10.32,10.32,0,0,0,.36-2.55A16.72,16.72,0,0,0,738.84,710.61Zm65.56-82.84a13.63,13.63,0,0,0-3.11,3A68.66,68.66,0,0,0,797,638c-1.53,3-2.84,6.18-4.18,9.31-1,2.4-1.9,4.86-2.87,7.27-1.25,3.09-2.31,6.24-3.35,9.4-.57,1.73-1.13,3.45-1.68,5.18-1.19,3.68-2.36,7.37-3.57,11-.82,2.52-1.7,5-2.5,7.57a25.8,25.8,0,0,0-.54,2.83l3.51-5.5a7.9,7.9,0,0,0,1.42-2.34,7.17,7.17,0,0,1,1.67-2.8c.67-.92.93-2,1.5-2.92,1.15-1.85,2.13-3.82,3.15-5.75a14.44,14.44,0,0,1,.75-1.84,40.28,40.28,0,0,0,3.46-6.64,7.83,7.83,0,0,1,1.47-2.57c.79-1.84,1.36-3.45,2.14-4.95a83.62,83.62,0,0,0,5.19-13.76,20.79,20.79,0,0,0,.84-3.35c.25-1.81.7-3.58,1-5.37A17.28,17.28,0,0,0,804.4,627.77Z" style="fill:#fff"/><path d="M846.06,730.23a9,9,0,0,1-1.73,1.53c-1.74,1.16-3.32,2.57-5,3.77-2.21,1.54-4.44,3.08-6.78,4.41a20.32,20.32,0,0,1-4.43,1.59c-1.28.37-2.61.56-3.79.8-1,1.33-1.88,2.57-2.8,3.8a13.7,13.7,0,0,1-1.38,1.74,26.49,26.49,0,0,1-6.46,4.93c-2,1-3.24,1.15-6.26.57a7,7,0,0,1-4.8-3.37c-1-1.51-1.93-3-2.89-4.49-.67-1-1.31-2.06-2-3.08a16.65,16.65,0,0,1-2.25-5.9,25.54,25.54,0,0,1-.26-7.29,15.46,15.46,0,0,1,2.24-7.45,21.72,21.72,0,0,1,2.36-2.61h1.31l2.11,2.56c-.25-1.49-.42-2.56-.62-3.62,0-.17-.22-.32-.24-.49-.14-1.29-.31-2.58-.38-3.87a19.19,19.19,0,0,1,0-3.79,24.18,24.18,0,0,1,1.13-4.77,28,28,0,0,1,3-6.24c1.62-2.38,4.74-4.87,7.46-5.16,3.45-.36,6.85-.24,9.87,2.18a19.33,19.33,0,0,1,6.6,10.93,33.82,33.82,0,0,1,1.16,7.82c0,1.09.49,2.17.34,3.3s-.26,2.07-.38,3.11-.08,1.94-.29,2.94c-.29,1.42-.46,2.88-.84,4.31a27.26,27.26,0,0,1-1.8,5.71,6.75,6.75,0,0,0-.36,1.3c.16,0,.43.14.61.06a47.52,47.52,0,0,0,7.5-3.79c2.13-1.42,4.44-2.56,6.7-3.78a7.38,7.38,0,0,1,1.43-.46A4.42,4.42,0,0,1,846.06,730.23Zm-32.26,8.55a45.77,45.77,0,0,1-7.52-10.12c-.14,1.16-.09,2.28-.15,3.4s-.35,2.32-.34,3.48c0,1.6.2,3.2.38,4.8a5,5,0,0,0,.56,1.28A13.84,13.84,0,0,0,813.8,738.78Zm13.58-28.11c0-.84-.31-1.69-.34-2.54a13.54,13.54,0,0,0-1.93-6.81,6.61,6.61,0,0,0-5.22-3.41,10,10,0,0,0-9.64,4.72,19.23,19.23,0,0,0-2.34,5.31,20.84,20.84,0,0,0-1,6.72,23.11,23.11,0,0,0,.32,4.45c.24,1.06.44,2.14.7,3.2a34.16,34.16,0,0,0,2.94,7.07,16.49,16.49,0,0,0,4.11,4.8,15.61,15.61,0,0,0,2.62,1.54c1.08-1.39,2.11-2.61,3-3.91a42.52,42.52,0,0,0,4.87-9.21C826.93,718.77,827.19,714.71,827.38,710.67Z" style="fill:#fff"/><path d="M966.12,728.43c-.37,1-.64,1.92-1,2.79-.79,1.65-1.77,3.23-2.48,4.92-1.28,3-2.67,6-4,9-1.06,2.52-2.18,5-3.21,7.55s-2,5.21-3.16,7.75c-.85,1.89-1.92,3.68-2.93,5.5-.56,1-1.24,2-1.81,3a22.53,22.53,0,0,1-4.51,5.22,5,5,0,0,1-3.2,1.18c-.76,0-1.53,0-2.43,0a17.2,17.2,0,0,1-3.27-2.67,13.37,13.37,0,0,0-3.13-3.39,7.62,7.62,0,0,1-2.19-2.93,25.76,25.76,0,0,1-2.73-7.89c-.33-1.89-.58-3.76-.81-5.65a26.75,26.75,0,0,1-.28-3.88c0-1.42.29-2.83.35-4.25s.55-2.78.67-4.15a49.37,49.37,0,0,1,1.23-6.09,76.29,76.29,0,0,1,3.08-9.69c1.34-3.64,3-7.16,4.17-10.86.81-2.53,1.9-5,2.7-7.52a36.9,36.9,0,0,0,1.53-6c.19-1.37.22-2.71.31-4.12a12.29,12.29,0,0,0-4.95-3.36c-2.38-1-4.89-1.38-7.29-2.21-.86-.3-1.73-.55-2.73-.86a8.57,8.57,0,0,0-.88,1.37c-.87,2.33-1.69,4.67-2.52,7-1.54,4.33-3.09,8.67-4.62,13a66.18,66.18,0,0,1-2.93,7.45c-1.74,3.51-3.37,7.06-5.18,10.53s-3.79,7-5.74,10.44c-.73,1.27-1.56,2.48-2.37,3.7-2.11,3.17-4.21,6.34-6.35,9.48a50.45,50.45,0,0,1-4.7,6.17c-1.11,1.19-2.18,2.41-3.26,3.63a13.58,13.58,0,0,1-7.16,3.93,6.94,6.94,0,0,1-7.59-3.45,32.1,32.1,0,0,0-2.29-3.56,18.63,18.63,0,0,1-3.12-7.33,30.87,30.87,0,0,1-.75-7.23c-1.12,1.19-2.12,2.27-3.14,3.34a16.17,16.17,0,0,1-7,3.86.9.9,0,0,1-.56,0c-1.78-.68-3.69-.84-5-2.77a64.77,64.77,0,0,1-4.55-8.17,20.72,20.72,0,0,1-1.51-5.43,38.77,38.77,0,0,1-.29-5,43.67,43.67,0,0,1,.7-6,26.76,26.76,0,0,1,1.61-6.54c.87-2.26,1.47-4.66,3-6.63.78-1,1.35-2.21,2.59-2.78a10.43,10.43,0,0,1,1.26-.4,28.45,28.45,0,0,0,3,3.26,20.94,20.94,0,0,1,2.67,3.22c0,.75,0,1.51,0,2.27a21.39,21.39,0,0,1-.94,6.16c-1,4.19-2.39,8.27-3.29,12.48-.4,1.88-1,3.73-1.61,5.58-.29,1-.08,1.86-.28,2.81.25.46.52.94.79,1.42a5.58,5.58,0,0,0,.57.13c3.34.28,6-1.19,8.29-3.39a29.75,29.75,0,0,0,3.48-3.69,6.68,6.68,0,0,0,1.27-3.18A61,61,0,0,1,868,726.1c.81-2.87,1.89-5.63,2.89-8.42a24.7,24.7,0,0,1,1.27-2.83,13.07,13.07,0,0,1,1.09-1.55,11.59,11.59,0,0,1,4.69,4.83,7.39,7.39,0,0,1,.76,3,45.81,45.81,0,0,1-.06,5.5,29.33,29.33,0,0,1-.63,4.54c-.23.86-.27,1.81-.43,2.72a71.29,71.29,0,0,1-1.46,7.52,26.16,26.16,0,0,0-.43,2.72c-.39,2.35-.83,4.7-1.11,7a58.94,58.94,0,0,0-.06,6.92c1.25.48,2.41-.06,3.49-.5a17,17,0,0,0,5.81-3.87c.65-.65,1.5-1.11,2.12-1.79,1.34-1.47,2.6-3,3.84-4.55,1.44-1.78,2.89-3.55,4.22-5.4,1.54-2.14,3-4.33,4.43-6.55,1.89-3,3.71-6,5.52-9.09.85-1.42,1.64-2.87,2.4-4.34q1.35-2.58,2.6-5.22a116.74,116.74,0,0,0,4.7-11.46c1.34-3.89,2.87-7.72,4.31-11.57.34-.91.65-1.83,1-2.74.2-.57.41-1.14.73-2v-1.18a15,15,0,0,1-4.54-3.86,9.13,9.13,0,0,1-1.31-2.4c-.76-1.6-1.45-3.23-2.21-4.82a12.4,12.4,0,0,1-1.42-5.26c0-.66-.29-1.32-.35-2a27.13,27.13,0,0,1,1.48-7.32,23.13,23.13,0,0,1,3.06-5.61c2.23-2.9,4.85-5.32,8.45-6.37a5.55,5.55,0,0,1,4.53.29,15,15,0,0,1,2.57,2.48c.2.21.26.59.49.76,1.54,1.08,1.86,2.84,2.45,4.43a2,2,0,0,1,.1,1.11c-.64,2.71-.95,5.49-1.84,8.16-.73,2.18-1.16,4.45-1.94,6.62-.68,1.94-1.27,3.92-2,5.83-.31.78-.16,1.75-1,2.34-.17.13,0,.71,0,1.06,1.35.56,2.61,1.16,3.93,1.6a36.72,36.72,0,0,1,7.62,4,4.66,4.66,0,0,1,.83.77,44.55,44.55,0,0,1,4.62,5.82,9.81,9.81,0,0,1,1.19,3.42,24.26,24.26,0,0,1,.72,8.3c-.21,1.68-.1,3.37-.38,5-.37,2.29-.54,4.63-1.12,6.86-.69,2.65-1.15,5.34-1.76,8-.79,3.43-1.79,6.8-2.63,10.2-.54,2.17-1,4.4-1.34,6.64s-.51,4.35-1,6.5a28.6,28.6,0,0,0-.43,5c-.05,1,0,2,0,3a12.64,12.64,0,0,0,.33,3.5c.3,1-.15,2.22.39,3.3a4.16,4.16,0,0,1,0,1.49,7.66,7.66,0,0,0,1.42-.58,27.06,27.06,0,0,0,5.92-5c3.53-4.14,5.71-9,8.17-13.73,1.44-2.76,2.66-5.62,4-8.44.7-1.49,1.34-3,2.12-4.45,1.29-2.36,2.66-4.68,4-7a7.39,7.39,0,0,1,.81-1ZM925.25,672c1.06-3.83,2.29-7.62,2.64-11.85a15.66,15.66,0,0,0-1.67,1.82,62.78,62.78,0,0,0-6,10.85,13.15,13.15,0,0,0-1.24,6.45l3,2.1c.31-.39.62-.6.67-.87C923.18,677.54,924.46,674.84,925.25,672Z" style="fill:#fff"/><path d="M1011.19,730.93c-1.29,1.46-3,2-4.51,2.64-1.95.85-4.07,1.26-5.93,2.3-1.49.84-2.94,1.75-4.52,2.7,0,.37,0,.73,0,1.1a70.39,70.39,0,0,1-.44,7.27c-.36,2.33-.74,4.67-1.32,7-.44,1.76-.87,3.54-1.31,5.3a31.4,31.4,0,0,1-1.74,4.78c-1,2.36-2,4.7-3.25,7a16.49,16.49,0,0,1-2.28,3.57c-.61.66-.94,1.56-1.52,2.29a44,44,0,0,1-4.66,5.35,29.11,29.11,0,0,1-11.54,7,14.94,14.94,0,0,1-13.66-2.27c-1.68-1.25-2.6-3.25-3.45-5.17-.42-1-.78-1.91-1.13-2.88a9.45,9.45,0,0,1-.78-3.56c0-.88,0-1.77,0-2.66a12.41,12.41,0,0,1,.38-2.34,13.7,13.7,0,0,1,.85-2.4A25.12,25.12,0,0,1,955,761a66.51,66.51,0,0,1,9.91-8.12c2.12-1.48,4.24-2.94,6.39-4.36,2.4-1.58,4.87-3,7.4-4.41,2.79-1.52,5.5-3.2,8.27-4.75,1.81-1,3.68-1.92,5.56-2.89a14.11,14.11,0,0,0-2.73-8.1,28.8,28.8,0,0,0-3.31-3.57,13.1,13.1,0,0,0-5.87-2.88,19.82,19.82,0,0,0-4.28-.95,25.41,25.41,0,0,1-3-.64c-1.4-.2-2.84-.22-4.24-.41-2.48-.34-4.84-1-6.38-3-.74-1.36-.53-2.75-.6-4.1-.07-1.17-.31-2.33-.35-3.5a9,9,0,0,1,2.42-6.37,39.35,39.35,0,0,1,10.72-8.17c7.09-3.88,14.4-7.31,21.61-11a3.07,3.07,0,0,0,.44-.3h2.9c.75,1.81,1.57,3.59,1.33,5.87-1.53,2.26-3.07,4.78-5.63,6.49a24.06,24.06,0,0,0-2.84,2.42,67.6,67.6,0,0,1-8,6c-2.52,1.73-5.09,3.39-7.66,5-1,.66-2.12,1.23-3.16,1.88a6.9,6.9,0,0,0-1,.84c2.23.64,4.27,1.19,6.28,1.82a25.08,25.08,0,0,1,7.23,3.45,18,18,0,0,1,4.48,4.77,33.52,33.52,0,0,1,3,6.23c.66,1.68,1.13,3.44,1.73,5.29a4.13,4.13,0,0,0,1-.24c3.47-1.66,6.92-3.36,10.39-5,.77-.37,1.59-.6,2.45-.92.21.16.49.26.57.46C1010.46,728.88,1010.81,729.91,1011.19,730.93Zm-19.07,10.2c-1.81,1.13-3.35,2.12-4.93,3.07-2,1.23-4.19,2.29-6.12,3.65-3,2.09-6.13,3.86-8.94,6.16-2,1.68-4.21,3.21-6.29,4.85-1.07.85-2,1.87-3.12,2.68a28.76,28.76,0,0,0-6.33,6.56,17.38,17.38,0,0,0-2.81,6.68,10.28,10.28,0,0,0,.73,6.44,29.22,29.22,0,0,0,2.93,1.2,15.5,15.5,0,0,0,2.88.5,6.23,6.23,0,0,0,1.48-.11,12,12,0,0,1,1.44-.24,8.44,8.44,0,0,0,3.17-.77c1.23-.53,2.42-1.13,3.62-1.73a30.06,30.06,0,0,0,6.12-4.35,34.87,34.87,0,0,0,2.69-2.75c.88-1,1.61-2,2.42-3a52.6,52.6,0,0,0,4.14-6.67c1-1.68,1.58-3.57,2.64-5.21.06-1.7,1-3.1,1.54-4.65.42-1.26.82-2.53,1.14-3.82.38-1.53.68-3.08,1-4.63C991.72,743.76,991.89,742.55,992.12,741.13Z" style="fill:#fff"/><path d="M831,825.05c-.2.25-.4.55-.63.8-.77.84-1.58,1.65-2.34,2.51s-1.3,1.72-2,2.48-1.48,1.84-2.22,2.77c-1,1.31-2.1,2.61-3,4-.75,1.15-1.64,2.21-2.47,3.31-.71.93-1.42,1.87-2.16,2.78a8.08,8.08,0,0,1-1.81,1.41,2.19,2.19,0,0,1-1.25.47s-.09.1-.14.15h-.79a7.65,7.65,0,0,1-.88-.5c-.66-.47-1.3-1-2-1.47a5.7,5.7,0,0,1-.67-.52,6.14,6.14,0,0,1-1.52-2.59,18.58,18.58,0,0,1-.5-2.21,13.68,13.68,0,0,1-.12-2.47,12.28,12.28,0,0,1,0-2.5c.14-.87.19-1.76.4-2.62.15-.63.25-1.29.35-1.94a12.15,12.15,0,0,1,.38-1.69c.07-.24.08-.5.13-.75.32-1.39.76-2.75,1.08-4.14.25-1,.63-2.06,1-3.08.72-2.19,1.44-4.37,2.17-6.56.31-.92.73-1.81,1-2.75s.77-2,1.09-3,.67-1.78,1-2.67.76-2,1.15-3c.29-.78.6-1.55.89-2.32.44-1.15.88-2.29,1.3-3.45.5-1.33,1-2.67,1.47-4,.32-.92.61-1.85.89-2.79s.5-1.84.72-2.76c.15-.61.23-1.24.39-1.85a17.66,17.66,0,0,1,.44-2.14.58.58,0,0,0,0-.23c0-1.08.26-2.15.17-3.25a1.52,1.52,0,0,1,.37-1.15,4.34,4.34,0,0,1,1.33,2.18c.2.67.29,1.38.49,2v.08a24,24,0,0,1,.13,2.93c-.07.8,0,1.6-.15,2.39s-.2,1.77-.33,2.65a12.2,12.2,0,0,1-.42,2.45,10.11,10.11,0,0,0-.18,1.36c-.1.65-.24,1.29-.36,1.93-.16.89-.46,1.75-.59,2.65a8.22,8.22,0,0,1-.37,1.46c-.36,1-.5,2-.86,3-.26.73-.43,1.49-.64,2.24-.36,1.27-.71,2.56-1.11,3.82-.33,1-.63,2.11-1,3.16-.28.86-.51,1.73-.76,2.59-.46,1.61-1.07,3.18-1.43,4.83-.2.95-.57,1.86-.83,2.8-.36,1.28-.67,2.57-1,3.84-.3,1.06-.57,2.13-.84,3.2-.2.83-.46,1.64-.58,2.5a8.59,8.59,0,0,1-.31,1.31c-.22.73-.28,1.49-.48,2.21a17.31,17.31,0,0,1-.45,2.14s0,0,0,.08c-.06.71-.1,1.43-.16,2.15-.05.53-.13,1.06-.15,1.6a6.58,6.58,0,0,0,.15,1,18.73,18.73,0,0,0,1.5-1.2c.88-.88,1.75-1.77,2.56-2.72s1.77-2.14,2.7-3.17c.63-.68,1.22-1.39,1.8-2.11.76-1,1.62-1.81,2.4-2.74a54.48,54.48,0,0,1,4.1-4.36c.7-.67,1.5-1.24,2.21-1.82a9.61,9.61,0,0,0,1.14.54C830.71,824.44,830.79,824.73,831,825.05Z" style="fill:#fff"/><path d="M839.84,824.54v.73a12.34,12.34,0,0,0-1.58,2.14,22.53,22.53,0,0,1-1.48,2.22c-.2.21-.23.57-.4.81a15,15,0,0,1-2.12,2.46,3,3,0,0,1-.48.28h-1.16a2.56,2.56,0,0,1-1.23-1.2,2.14,2.14,0,0,0-.44-.7,3.32,3.32,0,0,1-1-1.86,8.09,8.09,0,0,1-.33-2.81c0-.41,0-.83,0-1.25,0-.74.22-1.46.28-2.18a18,18,0,0,1,.53-2.36,15.25,15.25,0,0,1,.85-2.4c.27-.68.6-1.33.9-2a3.19,3.19,0,0,1,1-1.29,1.28,1.28,0,0,1,1.15.56,16.36,16.36,0,0,0,1.2,1.16,2.55,2.55,0,0,1,.85,2,18.9,18.9,0,0,1-.51,3.53c-.17.81-.4,1.61-.59,2.41,0,.1,0,.2-.06.3-.46,1.35-.92,2.7-1.39,4a4.36,4.36,0,0,1-.33.64c.25,0,.31-.12.4-.21a10.55,10.55,0,0,0,2.08-2.39.92.92,0,0,1,.22-.22,9,9,0,0,0,1.31-1.69,8.41,8.41,0,0,1,1.46-1.37ZM834.38,810c.07-.39.13-.76.23-1.3l.44-.6c.75,0,1,.53,1.34.93a5,5,0,0,1,.62,1.19c.15.31,0,.59-.2.85s-.3.36-.41.5A2.27,2.27,0,0,1,834.38,810Z" style="fill:#fff"/><path d="M890.15,825.11l-.71,2.21c-.27.85-.56,1.71-.82,2.57s-.4,1.77-.73,2.6c-.48,1.2-.61,2.48-1.06,3.68s-.68,2.37-1.13,3.5-.78,2.39-1.31,3.53a34.42,34.42,0,0,1-1.68,3.32,12,12,0,0,1-2.41,3,3.07,3.07,0,0,1-1.44.63,1.75,1.75,0,0,1-1.28-.39,2.3,2.3,0,0,1-.78-.69,8.75,8.75,0,0,0-1.19-1.25,4.34,4.34,0,0,1-1.05-1.49,9.73,9.73,0,0,1-.66-2.39,17.38,17.38,0,0,1-.12-2.16,6.19,6.19,0,0,1,.14-1.6c.11-.49-.1-1,.17-1.52a15.39,15.39,0,0,1,.44-2.53,22.2,22.2,0,0,1,.49-2.29c.24-.89.4-1.81.65-2.71.39-1.45.82-2.89,1.25-4.33a23.29,23.29,0,0,0,.71-2.29c.2-1,.56-2,.84-3,.12-.46.08-1,.19-1.44a14.8,14.8,0,0,1,.28-1.87,1.18,1.18,0,0,0,0-.85c-.17-.33-.08-.66-.15-1l-.62-.51a4.54,4.54,0,0,0-.73-.15,3.38,3.38,0,0,0-1.5.24,12.39,12.39,0,0,0-2.78,1.54,9.66,9.66,0,0,0-2,2.12,15.57,15.57,0,0,0-1,1.3,7.4,7.4,0,0,0-.67,2.14c-.2.75-.38,1.51-.57,2.26s-.36,1.67-.55,2.51a3.17,3.17,0,0,1-.15.5c-.36,1-.5,2.1-.94,3.09-.22.48-.43,1-.63,1.45-.34.81-.51,1.68-.79,2.51-.15.47-.32,1-.47,1.43a11,11,0,0,0-.49,1.81,1.09,1.09,0,0,1-.57,1c-.85,0-1.15-.68-1.6-1.21a2.4,2.4,0,0,0-.21-.31,3.16,3.16,0,0,1-.9-2.36c0-.39,0-.79,0-1.18a6,6,0,0,1,.26-1.73.59.59,0,0,0,0-.22,17.45,17.45,0,0,1,.17-2.15,7.19,7.19,0,0,1,.15-.89,2.24,2.24,0,0,1,.13-.91c.11-.2,0-.51,0-.77a10.76,10.76,0,0,1,.43-2.93c.09-.34-.06-.73.19-1a11.44,11.44,0,0,1,.49-2.45c.11-.71.29-1.42.46-2.13a6.13,6.13,0,0,0,.24-1.22l-.35.34c-1,1-2,1.93-3.06,2.89a17.42,17.42,0,0,1-1.51,1.34c-.77.59-1.4,1.31-2.1,2s-1.17,1-1.66,1.45c0,.59.1,1,.11,1.5,0,.84,0,1.68,0,2.52a18.44,18.44,0,0,1-.2,3.24,9.8,9.8,0,0,1-.41,2.62,6.09,6.09,0,0,0-.18,1.43c0,.28-.11.55-.16.82-.26,1.41-.64,2.79-.95,4.19a9.06,9.06,0,0,1-.56,1.47c-.29.67-.51,1.36-.82,2a10.48,10.48,0,0,1-.57,1c-.5.86-1.08,1.66-1.64,2.48a11,11,0,0,1-2.64,2.79,17.06,17.06,0,0,1-1.52,1.17,15.73,15.73,0,0,1-2.57,1.27,12.92,12.92,0,0,1-2.17.35c-.08,0-.15.1-.22.15h-.48c-.07,0-.14-.15-.21-.15a6.3,6.3,0,0,1-2.48-.65,3.2,3.2,0,0,1-.8-.58,6.1,6.1,0,0,1-1.71-2.16,3.82,3.82,0,0,1-.94-1.47,4.38,4.38,0,0,1-.61-2v-.94a8.06,8.06,0,0,1,.13-1.29,6,6,0,0,1,.33-1.24c.37-.88.74-1.75,1.19-2.6a22.72,22.72,0,0,1,1.68-2.28,16,16,0,0,1,2.26-2.54c.75-.71,1.61-1.3,2.3-2.07a26,26,0,0,1,2.23-2c1-.94,2.18-1.78,3.27-2.67.49-.41,1-.87,1.45-1.29.84-.7,1.71-1.39,2.55-2.1.28-.23.51-.52.78-.79a9.14,9.14,0,0,1,.34-1.6,1.22,1.22,0,0,0,0-.47c-.1-1.12.18-2.22.16-3.33,0-.51-.07-1-.11-1.48l-.77-.78c-.35.09-.7.16-1,.28a4.41,4.41,0,0,0-1.69,1.43c-.14.15-.24.33-.38.48a20.17,20.17,0,0,0-1.93,2.39c-.43.6-.92,1.16-1.4,1.73s-.81.94-1.24,1.39a3.29,3.29,0,0,1-1.46,1.11h-.71c-.44-.28-1-.45-1.19-1a5,5,0,0,1-.47-1.25,7.24,7.24,0,0,0-.5-1.66,14.82,14.82,0,0,1-.49-1.73,9,9,0,0,1-.14-1.45,8.25,8.25,0,0,1,.7-3.4,10.77,10.77,0,0,1,1.49-2.8,10.92,10.92,0,0,1,1.5-1.94,8.58,8.58,0,0,1,3.85-2,3.29,3.29,0,0,1,2.24.58,4.9,4.9,0,0,1,1.88,2.17,12.59,12.59,0,0,1,1.12,2.38c.09.34.19.68.3,1.08a10.07,10.07,0,0,1,2.23,3.19,28.73,28.73,0,0,1,1.08,3.8c1-.87,1.89-1.75,2.88-2.54.55-.43,1-.94,1.54-1.41.93-.87,1.81-1.81,2.79-2.61s1.89-1.86,2.88-2.72c.46-1.46.87-2.9,1.34-4.33.4-1.19.8-2.37,1.18-3.57s.81-2.41,1.23-3.62c.48-1.4,1-2.77,1.51-4.17.35-1,.78-2,1.17-3l.86-2.25.57-1.39c.32-.75.63-1.49,1-2.22.55-1.24,1.07-2.51,1.7-3.71a20.87,20.87,0,0,1,2-3.16,13.28,13.28,0,0,1,1.72-1.64,2.09,2.09,0,0,1,1.69-.56,3.07,3.07,0,0,0,.43,0c.25.27.65.51.77.84.2.56.73.91.8,1.53a7.51,7.51,0,0,1,.23,1.42,11.61,11.61,0,0,0,0,1.18,8.27,8.27,0,0,1-.36,2.48c-.21.81-.32,1.63-.58,2.42-.11.33-.2.67-.32,1-.38,1.14-.73,2.29-1.18,3.4s-1,2.17-1.5,3.23c-.36.69-.8,1.35-1.21,2-.23.39-.48.77-.69,1.17-.55,1-1.4,1.87-1.87,2.95-.66.63-1,1.47-1.62,2.14a4.61,4.61,0,0,0-1.23,2c-.28,1.19-.74,2.34-.92,3.57-.11.71-.35,1.41-.52,2.11s-.3,1.21-.49,2c1.78-1.41,3.44-2.67,5.61-3a1.78,1.78,0,0,0,.39.13,2.9,2.9,0,0,1,2.27,1.33,3.84,3.84,0,0,0,.59.62,6,6,0,0,1,1.55,2.76,3.62,3.62,0,0,1,.36,1.62c.21.22.13.49.15.74s-.08.62.14.9a.48.48,0,0,1,0,.39,6,6,0,0,0-.14,2.15,7.39,7.39,0,0,1-.32,2.34,1.58,1.58,0,0,0,0,.31,18.54,18.54,0,0,1-.52,3.14c-.08.39-.19.78-.26,1.18a14.39,14.39,0,0,1-.6,2.72,7.59,7.59,0,0,0-.19,1.28,4.51,4.51,0,0,1-.17.89,13.51,13.51,0,0,0-.58,2.48,25.22,25.22,0,0,1-.64,3.11c-.1.36.06.77-.17,1.12a26.25,26.25,0,0,0-.32,3.76c0,.07,0,.15,0,.33l.62-.59.56-.55c.2-.21.42-.4.6-.62a6.89,6.89,0,0,0,.4-.64,9.19,9.19,0,0,0,.58-.81,27.38,27.38,0,0,0,1.49-2.78c.41-.94.84-1.88,1.22-2.83.25-.63.43-1.28.63-1.93.11-.35.3-.68.41-1,.21-.62.44-1.23.6-1.87a7.22,7.22,0,0,1,.59-1.77c.36-.71.44-1.49.75-2.21s.61-1.59.91-2.39c.11-.28.24-.55.34-.83a1.8,1.8,0,0,1,.82-1.18C889.3,824.4,889.72,824.76,890.15,825.11Zm-38.64,4.27-1.38,1.14-1.72,1.41c-.32.26-.64.52-.95.79-.13.12-.25.27-.39.38-.9.76-1.81,1.51-2.72,2.26-.3.24-.6.48-.89.73a12.74,12.74,0,0,1-1.83,1.69A13.18,13.18,0,0,1,840,839.6a4.75,4.75,0,0,0-.38.4c-.57.81-1.13,1.62-1.67,2.45a9.11,9.11,0,0,0-1.13,2.22,8.42,8.42,0,0,0-.54,3.82,4.3,4.3,0,0,0,.63,1.94,4.82,4.82,0,0,0,1,.17,4.14,4.14,0,0,0,1-.19,8.26,8.26,0,0,0,2.7-1.31,13.35,13.35,0,0,0,2.3-2c.49-.56,1-1.1,1.5-1.67a10.11,10.11,0,0,0,.91-1.14,23.38,23.38,0,0,0,1.88-3.44c.3-.66.55-1.35.8-2s.45-1.54.76-2.28a11.77,11.77,0,0,0,.63-2.23c.19-1,.59-2,.75-3.07C851.19,830.68,851.35,830.08,851.51,829.38Zm-1-13.07c.08-.86-.6-1.19-1-1.66h-1a3.71,3.71,0,0,0-1.54,1.13,8.06,8.06,0,0,0-1.45,1.69c-.51.87-1,1.77-1.41,2.68-.26.52-.44,1.09-.71,1.78a2.37,2.37,0,0,0,.59-.19c.89-.72,1.81-1.42,2.66-2.19s1.56-1.54,2.33-2.32A3.37,3.37,0,0,1,850.52,816.31Zm24-13h.16c.64-1,1.23-2,1.92-3a38.77,38.77,0,0,0,2.39-4.2,17.23,17.23,0,0,0,1.09-2.49,20.88,20.88,0,0,0,.79-2.26c.34-1.34.76-2.65,1-4a13.92,13.92,0,0,0,.43-3,9.08,9.08,0,0,0,0-1.28c-.08,0-.12,0-.13,0a8.47,8.47,0,0,0-2.64,3.43c-.18.41-.39.82-.55,1.24s-.39,1-.57,1.47c-.38,1-.65,2-1,3.06a15.77,15.77,0,0,1-1,3.3s0,.1,0,.15a24.17,24.17,0,0,1-.81,3.28,6.7,6.7,0,0,0-.28.94,15.33,15.33,0,0,1-.76,3C874.4,803.05,874.46,803.2,874.47,803.33Z" style="fill:#fff"/><path d="M932.82,791.69a7.87,7.87,0,0,1-.86.33c-.54.13-1.09.22-1.63.33-1.11.22-2.25.31-3.35.59a14.27,14.27,0,0,1-2.21.47,26.14,26.14,0,0,0-3.53.79c-.42.11-.85,0-1.29.17-.73.25-1.5.39-2.26.58-.07,0-.14.06-.21.06a14.33,14.33,0,0,0-3.24.72,8.24,8.24,0,0,1-1.1.22,6.57,6.57,0,0,0-1.33.29,12.62,12.62,0,0,1-2.44.52,7.07,7.07,0,0,0-1.16.3c-1,.25-2,.53-3,.69a19.25,19.25,0,0,0-2.32.63c-.28.66-.6,1.35-.87,2-.36.91-.68,1.83-1,2.75s-.65,1.68-1,2.53c-.41,1.13-.82,2.26-1.21,3.4-.28.8-.59,1.6-.86,2.4-.37,1.08-.59,2.24-1,3.3-.56,1.43-.84,2.94-1.35,4.38-.34,1-.53,2-.83,3s-.51,2-.76,3.07c-.16.66-.36,1.31-.52,2s-.23,1.29-.43,1.91a17.94,17.94,0,0,0-.37,1.77l-.27,1.34a18.34,18.34,0,0,1-.42,2.06c-.15.43,0,.9-.18,1.36a13.81,13.81,0,0,0-.19,1.59,12.13,12.13,0,0,0-.31,2.82c-.28.53,0,1.17-.3,1.71-.07.12,0,.31,0,.47,0,.62,0,1.25,0,1.88s-.13,1.38-.14,2.07a14.55,14.55,0,0,0,.15,1.45,7.19,7.19,0,0,0,.12,1.37c.12.45,0,1,.2,1.44a6,6,0,0,0,.83,1.84,4.09,4.09,0,0,0,2-1.14,12.71,12.71,0,0,0,1.1-1c.81-.92,1.62-1.86,2.36-2.84a29.88,29.88,0,0,0,1.9-2.84,8.71,8.71,0,0,0,1.13-1.87c.73-.7,1-1.72,1.64-2.47a12,12,0,0,0,.86-1.43c.29-.44.66-.84.91-1.3s.63-.88.87-1.33c.4-.81,1-1.43,1.47-2.2s1-1.44,1.45-2.15c.21-.31.44-.62.67-.92.66-.85,1.24-1.76,1.86-2.63a10.51,10.51,0,0,1,.72-.9c.46-.53.94-1,1.4-1.57s.7-.82,1.07-1.21a2.84,2.84,0,0,1,.73-.56.71.71,0,0,1,.57,0,6.64,6.64,0,0,1,.83.62v.46a1.92,1.92,0,0,1-.13.17,3.51,3.51,0,0,1-.34.33,20.67,20.67,0,0,0-2.4,2.73c-.57.75-1.12,1.52-1.66,2.29-.7,1-1.38,2-2,3-.51.76-1,1.54-1.46,2.3s-1.08,1.66-1.63,2.49c-.36.54-.67,1.13-1,1.69s-.74,1.21-1.09,1.82-.74,1.36-1.12,2a12.55,12.55,0,0,1-.69,1.18c-.69.95-1.17,2-1.81,3s-1.26,1.84-1.89,2.76a10.43,10.43,0,0,1-1.75,2A18,18,0,0,1,895,854.2a3.59,3.59,0,0,1-2.15.5.83.83,0,0,0-.17-.11,8.54,8.54,0,0,1-2.12-1.34,6.68,6.68,0,0,1-2.22-3.44,15.52,15.52,0,0,1-.67-3,13.69,13.69,0,0,0-.15-1.45,15.24,15.24,0,0,1-.13-3.09c0-1,0-2.1,0-3.14,0-.41.12-.81.14-1.21a11.57,11.57,0,0,1,0-1.18c.17-.85.2-1.72.31-2.57s.16-1.79.34-2.65a18.66,18.66,0,0,1,.42-1.91c.12-.37,0-.8.16-1.21a14.92,14.92,0,0,0,.39-1.76c.14-.72.27-1.44.41-2.15.07-.35.15-.69.24-1,.23-.87.47-1.74.7-2.61.16-.56.32-1.11.47-1.66.27-.94.51-1.89.79-2.82.46-1.49.94-3,1.42-4.44.36-1.12.65-2.27,1.11-3.35.72-1.66,1.18-3.41,1.92-5.06.43-1,.78-2,1.2-3,.12-.28.21-.56.35-1-1.22.35-2.31.74-3.43,1s-2.48.66-3.73.9c-.77.15-1.51.38-2.27.54a11,11,0,0,0-1.16.32c-.65.23-1.33.23-2,.43s-1.33.45-2,.58c-.49.09-1,.17-1.48.3-.67.18-1.33.43-2,.59-1.24.29-2.45.7-3.67,1.08a30.1,30.1,0,0,0-3.91,1.35,8,8,0,0,1-1.41.38l-.26-.23V805.5a2.08,2.08,0,0,1,1-.8c.75-.3,1.48-.63,2.22-1a3.12,3.12,0,0,1,.44-.09,1.54,1.54,0,0,0,.37-.09,35.24,35.24,0,0,1,3.86-1.47,19.65,19.65,0,0,1,2.35-.79,50.59,50.59,0,0,1,5-1.44,5.54,5.54,0,0,0,1.27-.46,15.38,15.38,0,0,1,2.4-.62,4.16,4.16,0,0,0,.5-.16c.84-.27,1.7-.45,2.56-.64s1.78-.47,2.68-.71c.39-.11.78-.2,1.2-.3v-.71c.47-.44.61-.41.82.11a2.22,2.22,0,0,0,.23.39l1.65-.41c.49-.29.48-1,.76-1.46s.42-1.13.67-1.68c.78-1.69,1.59-3.37,2.38-5.07.35-.75.65-1.52,1-2.27.19-.41.47-.79.66-1.19.44-.89.83-1.79,1.27-2.67,1.17-2.33,2.35-4.66,3.56-7,.6-1.15,1.31-2.23,1.91-3.37a16.36,16.36,0,0,1,1.59-2.67l.54-.74c.5.15.44.66.71.9a5.18,5.18,0,0,1-.31,2.11,47.77,47.77,0,0,1-1.83,4.93c-.58,1.36-1,2.79-1.68,4.11-.45.9-.79,1.85-1.18,2.77a26.53,26.53,0,0,0-1.44,3.48,6.38,6.38,0,0,1-.51,1.17c-.75,1.48-1.23,3.08-1.92,4.59-.35.78-.66,1.57-.94,2.38,0,.12,0,.24-.09.41a3.06,3.06,0,0,0,1.26-.2,16.23,16.23,0,0,1,2.58-.55,16.53,16.53,0,0,0,1.69-.39,15.92,15.92,0,0,1,2.66-.56,6.81,6.81,0,0,0,1.53-.36,15.82,15.82,0,0,1,2.16-.41c.22,0,.43-.11.66-.15.76-.14,1.51-.35,2.26-.56a1.21,1.21,0,0,1,.37-.07,12,12,0,0,0,2.31-.4,10.63,10.63,0,0,1,2.24-.4,4.16,4.16,0,0,0,1.05-.15,21.82,21.82,0,0,1,2.68-.5,9,9,0,0,0,2.29-.43H930l2.57-.19C932.66,790.45,932.74,791,932.82,791.69Z" style="fill:#fff"/><path d="M956.3,824.24a4.43,4.43,0,0,1-.58,1.12,30.08,30.08,0,0,0-2.65,3.9c-.74,1.38-1.45,2.79-2.12,4.21a15.28,15.28,0,0,1-2.22,3.45c-.25.28-.52.54-.75.82a6.09,6.09,0,0,1-.9.66,1.93,1.93,0,0,1-1.19.45s-.09.09-.14.15h-.62c-.28-.15-.55-.32-.84-.44-.51-.21-.74-.69-1.06-1.08a15.4,15.4,0,0,1-1.35-1.67,10.75,10.75,0,0,1-1.49-3.77,21.14,21.14,0,0,1-.13-2.86c0-.28,0-.56,0-1a3.32,3.32,0,0,1-1.67.75l-1.15-.38a4.94,4.94,0,0,1-1.44-2.12,3.27,3.27,0,0,0-.44-.7,9,9,0,0,1-1.48-2.88,6.74,6.74,0,0,1-.26-1.41c0-.5,0-1,0-1.49a6.42,6.42,0,0,1,.23-1.51c.15-.78.37-1.56.56-2.34a23.1,23.1,0,0,1,1-3.21,13.05,13.05,0,0,1,1.17-2.37c.19-.3.4-.59.56-.82l.65-.19a8.31,8.31,0,0,1,.66.59c.31.33.42.84.92,1a3.3,3.3,0,0,1,1,2.09c0,.7,0,1.41,0,2.12,0,.4-.1.8-.14,1.2s.08.78-.16,1.14c0,0,0,.1,0,.15a19.08,19.08,0,0,1-.18,2.15c-.16.82-.18,1.65-.4,2.46a12.25,12.25,0,0,0-.22,1.82,6.4,6.4,0,0,0,2.21-1.33l.27-.28a5,5,0,0,0,1.22-1.66,16.67,16.67,0,0,1,2-3.13l.94-1.15c.74,0,1,.68,1.47.93s.72.77,1,1.25c0,.57,0,1.17,0,1.77a16.46,16.46,0,0,1-.41,2.7c-.16.71-.34,1.42-.51,2.12-.27,1.18-.69,2.31-1,3.46-.23.83-.52,1.63-.78,2.43s-.47,1.33-.72,2a6.07,6.07,0,0,0-.3,3,2.07,2.07,0,0,0,1.8-.63,11.18,11.18,0,0,0,2.53-3.18c.57-1,1.06-2.13,1.64-3.16.75-1.32,1.55-2.61,2.34-3.9a2.15,2.15,0,0,1,.49-.51l1.65-1.44A1.76,1.76,0,0,1,956.3,824.24Z" style="fill:#fff"/><path d="M982,824.66a.62.62,0,0,1-.43.66,9.67,9.67,0,0,1-2,1,2.85,2.85,0,0,0-.78.46c-1.16.66-2.32,1.32-3.52,1.92a6.07,6.07,0,0,0-.84.51,1.09,1.09,0,0,0-.34.58,25,25,0,0,1-1.84,4.45c-.48.9-1.07,1.71-1.63,2.56a6.32,6.32,0,0,1-2.44,1.91h-1.31c-1-.22-1.48-1-2-1.68a4.37,4.37,0,0,0-.37-.48,1.4,1.4,0,0,1-.43-.95,10.23,10.23,0,0,0-.18-1.18c.16-.38.28-.66.45-1,.16-.21.38-.53.63-.82a7.27,7.27,0,0,1,1.47-1.24c.73-.51,1.47-1,2.2-1.5l1-.7a34.51,34.51,0,0,0,1.34-3.65,10.45,10.45,0,0,0,.43-4.05,1.22,1.22,0,0,0-.72-.78h-.68c-.16.07-.29.16-.43.21a4,4,0,0,0-1.62,1c-.47.47-1.08.8-1.54,1.27a25.52,25.52,0,0,0-1.85,2.17,20.12,20.12,0,0,0-1.27,1.89,14.12,14.12,0,0,0-.89,1.39,26.1,26.1,0,0,0-1.67,3.45,13.08,13.08,0,0,1-.81,1.79c-.48,1-.83,2-1.25,3a18.81,18.81,0,0,1-1,2.53,2.15,2.15,0,0,0-.11.36c-.42,1.26-.83,2.52-1.25,3.78-.08.23-.17.47-.3.82a6.34,6.34,0,0,1-.48,1.68c-.33,1.13-.62,2.27-1,3.4-.41,1.34-.75,2.7-1.1,4.06,0,.12-.11.23-.14.35a25.5,25.5,0,0,1-.92,3.09,23.24,23.24,0,0,1-.66,2.86,2.07,2.07,0,0,1-.7,1.3c-.74.1-1.08-.43-1.48-.86-.14-.14-.22-.35-.37-.48a5,5,0,0,1-1.12-1.41c0-1.19-.14-2.38-.08-3.56a18.54,18.54,0,0,1,.28-3,14,14,0,0,0,.17-1.84c0-.2.09-.4.12-.58a5.15,5.15,0,0,0,.21-1.36,2.52,2.52,0,0,1,.15-.89c.21-.76.26-1.55.49-2.29s.28-1.52.58-2.26a19,19,0,0,0,.5-2c.28-1,.62-2,.91-2.94a2.47,2.47,0,0,0,0-.61h0a15.42,15.42,0,0,0,.64-1.84,19.12,19.12,0,0,1,.62-1.85c.29-.88.64-1.74.9-2.63.2-.68.56-1.29.75-2s.5-1.26.72-1.9c.41-1.16.88-2.29,1.33-3.43.15-.37.3-.75.43-1.13a17.17,17.17,0,0,1,.94-2.22c.42-.85.68-1.78,1.11-2.63s.84-1.83,1.25-2.75c.57-1.29,1.26-2.53,1.84-3.81a1,1,0,0,1,.74-.67,5,5,0,0,1,1.54,2,9.2,9.2,0,0,1-.6,3.35,16.11,16.11,0,0,1-.49,1.81c-.11.23-.18.47-.32.86v.45c-.67,1.66-1.15,3.37-1.74,5s-1.13,3.42-1.68,5.13-1.18,3.34-1.57,5.08c.22-.42.6-.76.6-1.29a.68.68,0,0,1,.12-.28c.37-.76.73-1.54,1.08-2.31s.84-1.39,1.15-2.13.81-1.1,1-1.79c0-.22.34-.39.44-.61.38-.84,1-1.49,1.47-2.29a13.43,13.43,0,0,1,1-1.19,16.27,16.27,0,0,1,2.25-2.37,13.73,13.73,0,0,1,1.79-1.21,3.5,3.5,0,0,1,2.41.44c.08.06.19.08.27.14l1.22,1.07a3.85,3.85,0,0,1,1.09,1.47,6.11,6.11,0,0,1,.65,1.6,12.45,12.45,0,0,1,.29,2v1.47c2-1.13,3.92-2,5.86-2.88a.74.74,0,0,1,.3,0Z" style="fill:#fff"/><path d="M985.53,823.27c4.26-1.72,9.19-2.1,13.72-2.58,5.33-.55,10.69-.87,16-1.6a96,96,0,0,0,32-10.77c5-2.66,10.26-5.85,14-10.15.38-.44.16-2.87-.51-2.36-1.91,1.51-3.71,3.12-5.72,4.52s-4.32,2.88-6.59,4.16a108.9,108.9,0,0,1-15.77,7.12,84.08,84.08,0,0,1-16.26,4.33c-5.33.82-10.7,1.3-16,1.95-5.18.62-10.3,1.43-15.1,3.57-.54.25-.37,2.08.29,1.81Z" style="fill:#fff"/><path d="M1007,823.56c1.13-.21,2,1.14,2.75,1.78a11.41,11.41,0,0,0,5.8,2.54,25,25,0,0,0,6.91-.19l3.06-.42a4.43,4.43,0,0,0,1.5-.27c.48-.34.63-2-.06-2.25a8.91,8.91,0,0,0-1.64,0,9.48,9.48,0,0,1-3.39-1.08c-1.82-.94-3.33-2.32-5-3.43l-.28,2.64a30.84,30.84,0,0,0,13.94,2.33c.89-.08.86-2.53.11-2.78-3.11-1-6.54-1.75-9.16-3.84l-.12,3a45.55,45.55,0,0,0,29.42-4.22,45.1,45.1,0,0,0,20-20.92,46.28,46.28,0,0,0,4.26-15.9c0-.33-.14-2.78-1-2.15-8.23,6-16.5,11.95-24.7,18l.91,2.45c.51-2.57,2.4-4.72,2.3-7.44a2.48,2.48,0,0,0-1.49-2.55,5.11,5.11,0,0,0-2.66.12,20.75,20.75,0,0,0-6.7,3.54,65.62,65.62,0,0,0-7.17,6.16,95,95,0,0,0-7.26,7.88l1,2.7,3.56-10.2a3.31,3.31,0,0,0,0-2.32c-.19-.47-.6-1-1.06-.43l-10.32,11.88,1.2,2.42,1.83-9.67a3,3,0,0,0-.26-2.24c-.38-.5-.77-.4-1.06.16a26.73,26.73,0,0,1-17.93,13.45c-1.24.27-.95,3.86.09,3.64a28.3,28.3,0,0,0,19-14.66l-1.31-2.07c-.63,3.2-1.25,6.41-1.88,9.62-.09.48.12,3.67,1.19,2.42l10.31-11.92-1-2.75L1027,806.78a3.31,3.31,0,0,0,0,2.28c.18.45.59,1,1,.42a73.86,73.86,0,0,1,15.23-14.63c2-1.33,4.44-2.94,6.93-2.86.21,0,.43.07.64.06a1,1,0,0,1,.32.15,4.13,4.13,0,0,1-.19-.75s-.55,1.48-.61,1.61a21.36,21.36,0,0,0-1.56,4.07c-.07.38,0,3.12.92,2.45,8.27-5.89,16.48-11.89,24.72-17.83l-1-2.14a43.5,43.5,0,0,1-35.82,39,44.6,44.6,0,0,1-16.37-.08c-1.09-.21-.62,2.61-.12,3,2.62,2.07,6.07,2.65,9.19,3.61l.11-2.78a27.94,27.94,0,0,1-13.59-2.14c-1-.39-.94,2.21-.28,2.64a45.61,45.61,0,0,0,5.2,3.41,9.06,9.06,0,0,0,3,.91c.64.06,1.41-.23,2-.11l-.2-2.28a11.55,11.55,0,0,1-1.4.25c-1,.17-2.08.32-3.13.46a24,24,0,0,1-7,.2,10.5,10.5,0,0,1-5.52-2.6c-.72-.65-1.6-1.6-2.68-1.29-.59.17-.53,1.89,0,1.78Z" style="fill:#fff"/></svg>