<svg xmlns="http://www.w3.org/2000/svg" viewBox="0 0 1261.44 1261.44"><title>Logos</title><path d="M504.05,657.69h1.81l-6.31,13.57h-.83l-6.32-13.57h1.79l4.93,10.86Z" style="fill:#1d1d1b"/><path d="M510.5,671.26h-1.68V657.69h1.68Z" style="fill:#1d1d1b"/><path d="M524.8,659.09h-4.66v12.17h-1.67V659.09h-4.64v-1.4h11Z" style="fill:#1d1d1b"/><path d="M535.25,667.85h-7l-1.51,3.41H525l6.28-13.57h.9l6.3,13.57h-1.73Zm-6.39-1.34h5.8l-2.91-6.57Z" style="fill:#1d1d1b"/><path d="M550.44,669.9v1.36h-9.18V657.69h1.65V669.9Z" style="fill:#1d1d1b"/><path d="M562.13,659.09v6h7v1.41h-7v4.73h-1.6V657.69h9.6v1.4Z" style="fill:#1d1d1b"/><path d="M586.52,664.49a7.18,7.18,0,1,1-7.18-6.9A7,7,0,0,1,586.52,664.49Zm-1.7,0a5.49,5.49,0,1,0-5.48,5.37A5.42,5.42,0,0,0,584.82,664.49Z" style="fill:#1d1d1b"/><path d="M603.65,664.49a7.18,7.18,0,1,1-7.18-6.9A7,7,0,0,1,603.65,664.49Zm-1.7,0a5.49,5.49,0,1,0-5.48,5.37A5.42,5.42,0,0,0,602,664.49Z" style="fill:#1d1d1b"/><path d="M612.23,671.26h-5.16V657.69h4.72a6.82,6.82,0,0,1,6.84,6.8A6.66,6.66,0,0,1,612.23,671.26Zm-.13-1.48a5.19,5.19,0,0,0,4.89-5.29,5.25,5.25,0,0,0-5.2-5.32h-3.12v10.61Z" style="fill:#1d1d1b"/><path d="M521.77,691.34a4.18,4.18,0,0,1,3.66,4.33,4,4,0,0,1-4.11,4.29h-6.91V686.39h5.35a2.85,2.85,0,0,1,3,2.75A2.77,2.77,0,0,1,521.77,691.34Zm-5.76-.16h3.7a1.57,1.57,0,0,0,1.58-1.67,1.84,1.84,0,0,0-2-1.71H516Zm4.54,7.38a2.89,2.89,0,0,0,3.16-3,3,3,0,0,0-3.14-3.09H516v6.13Z" style="fill:#1d1d1b"/><path d="M537.63,696.56h-7l-1.5,3.4h-1.73l6.27-13.57h.91L540.88,700h-1.73Zm-6.39-1.35H537l-2.9-6.57Z" style="fill:#1d1d1b"/><path d="M552.82,698.6V700h-9.18V686.39h1.65V698.6Z" style="fill:#1d1d1b"/><path d="M564.89,696.56h-7l-1.5,3.4h-1.74l6.28-13.57h.91L568.14,700h-1.73Zm-6.39-1.35h5.79l-2.91-6.57Z" style="fill:#1d1d1b"/><path d="M582.5,686.39V700h-.86l-9.09-10.47V700h-1.66V686.39h.87l9.11,10.47V686.39Z" style="fill:#1d1d1b"/><path d="M597.32,696.44l1.28,1.06a7.2,7.2,0,0,1-5.55,2.58,6.91,6.91,0,1,1,0-13.81,7.21,7.21,0,0,1,5.55,2.6l-1.28,1.06a5.36,5.36,0,1,0,0,6.51Z" style="fill:#1d1d1b"/><path d="M611.69,698.56V700h-9.82V686.39h9.41v1.41h-7.82v4.89h6.63v1.38h-6.63v4.49Z" style="fill:#1d1d1b"/><path d="M565.68,715.09,560.36,724v4.66h-1.65V724l-5.31-8.91h1.88l4.26,7.2,4.23-7.2Z" style="fill:#1d1d1b"/><path d="M580.85,721.88a7.18,7.18,0,1,1-7.18-6.89A7,7,0,0,1,580.85,721.88Zm-1.7,0a5.49,5.49,0,1,0-5.48,5.38A5.42,5.42,0,0,0,579.15,721.88Z" style="fill:#1d1d1b"/><path d="M596.5,722.15v4.64a9.39,9.39,0,0,1-5.88,2,6.9,6.9,0,1,1,0-13.79,7.74,7.74,0,0,1,5.37,2l-1,1.13a6.4,6.4,0,0,0-4.34-1.56,5.4,5.4,0,1,0,0,10.8,7.07,7.07,0,0,0,4.22-1.32v-2.47H590.3v-1.37Z" style="fill:#1d1d1b"/><path d="M609,725.25h-7l-1.5,3.41H598.8l6.28-13.57h.9l6.3,13.57h-1.73Zm-6.4-1.34h5.8l-2.91-6.57Z" style="fill:#1d1d1b"/><path d="M534.74,553.23v.27c-.46.51-.9,1-1.38,1.51a48.26,48.26,0,0,0-3.9,4.43c-.13.17-.31.31-.46.47-1.67,1.78-3.28,3.6-4.77,5.54-.61.8-1.34,1.5-2,2.28-1.1,1.33-2.17,2.69-3.27,4-.55.68-1.09,1.36-1.7,2a34.2,34.2,0,0,0-3.64,4.42,12.39,12.39,0,0,1-1.53,1.78,26.56,26.56,0,0,0-2.47,3c-1.1,1.45-2.28,2.84-3.44,4.24-.61.74-1.28,1.43-1.89,2.18-1.07,1.3-2.1,2.64-3.17,3.94-.61.74-1.27,1.44-1.89,2.18s-1.34,1.69-2,2.53c-.52.63-1.05,1.28-1.6,1.89-1.16,1.26-2.34,2.5-3.49,3.77a20.78,20.78,0,0,1-3.88,3,3.71,3.71,0,0,1-4.11-.36,15.56,15.56,0,0,1-1.43-1.69,6.37,6.37,0,0,0-.7-.92,8.68,8.68,0,0,1-2.55-4.68,17.74,17.74,0,0,1-.55-5,35.23,35.23,0,0,0,0-4,30.7,30.7,0,0,1,.35-5.76c.19-1.6,0-3.29.73-4.81a7,7,0,0,1,.28-2.58c.39-1.52.62-3.09.9-4.63s.81-2.78,1-4.23a15.67,15.67,0,0,1,.52-2.23c.43-1.64.88-3.28,1.33-4.91.37-1.39.72-2.79,1.15-4.17.74-2.39,1.41-4.79,2.25-7.15.47-1.31.9-2.65,1.31-4s.82-2.77,1.31-4.11c.87-2.39,1.62-4.82,2.59-7.18.46-1.13.81-2.32,1.23-3.48.48-1.35,1-2.69,1.53-4,.45-1.19.92-2.38,1.38-3.56.26-.67.53-1.34.8-2s.5-1.27.76-1.89a13.88,13.88,0,0,0,.77-1.89,2.8,2.8,0,0,1,.51-1c.11-.14.07-.39.13-.88-1.11,1.12-2,2-3,3-2,1.89-3.87,3.86-5.94,5.63-1.35,1.14-2.55,2.42-3.83,3.62s-2.7,2.65-4.16,3.84c-.93.76-1.71,1.65-2.63,2.39-1.34,1.07-2.46,2.38-3.77,3.48-.88.73-1.63,1.6-2.53,2.28-1.46,1.1-2.61,2.5-3.95,3.7-1,.86-2,1.65-3,2.49-.37.31-.72.65-1.05.95a31.34,31.34,0,0,1,1.39,5.27c.15,1.1.35,2.2.54,3.29a11.61,11.61,0,0,0,.47,3,2.07,2.07,0,0,1,0,.79c0,2.26,0,4.52,0,6.78,0,.72-.2,1.45-.24,2.18a16.6,16.6,0,0,1,0,2.12c-.26,1.31-.31,2.66-.57,3.94-.32,1.63-.51,3.27-.93,4.89s-.71,3.23-1.1,4.85-.95,3.25-1.4,4.89a69.6,69.6,0,0,1-2.66,7.28,20.35,20.35,0,0,1-1.12,2.69c-.46.82-.81,1.69-1.2,2.55-.51,1.12-1,2.27-1.54,3.37-.91,1.78-1.94,3.51-2.83,5.3s-2,3.28-2.85,5a24.16,24.16,0,0,1-1.57,2.36c-1,1.46-1.87,3-2.9,4.4a35.11,35.11,0,0,1-3.36,4.43,5.42,5.42,0,0,0-.42.64c-.34.45-.68.9-1,1.34-1,1.2-2,2.38-3.05,3.57-.17.2-.37.38-.56.57-1.19,1.19-2.31,2.45-3.58,3.55-1.45,1.25-2.86,2.52-4.36,3.71s-2.81,2-4.24,3a36.49,36.49,0,0,1-6.59,3.36c-2.38,1-4.85,1.55-7.28,2.29-.81.24-1.74.09-2.55.33a14.15,14.15,0,0,1-4.05.22,12.34,12.34,0,0,1-4.17-.66,3.69,3.69,0,0,0-1-.14c-.67-.27-1.19-.46-1.69-.69a14,14,0,0,1-5.7-4.59,16,16,0,0,1-1.81-2.66,13.64,13.64,0,0,1-1.49-5.53c0-.37-.26-.75-.23-1.11.08-1,.24-2,.38-2.94,0-.12.12-.23.13-.36a19.1,19.1,0,0,1,1.77-6.36c.32-.74.55-1.52.85-2.27s.7-1.36,1-2.05.63-1.29.94-1.94c.88-1.86,2.08-3.53,3.12-5.29.4-.66.8-1.32,1.24-1.95.71-1,1.45-2,2.2-3q1.53-2.09,3.1-4.14c1-1.33,2.09-2.65,3.17-3.95.66-.81,1.39-1.57,2.08-2.36,1.11-1.28,2.19-2.59,3.33-3.85.77-.85,1.66-1.6,2.43-2.46,5-5.49,10.41-10.59,15.63-15.87,2.19-2.2,4.39-4.38,6.72-6.41,1.36-1.19,2.6-2.51,3.93-3.71s2.57-2.23,3.86-3.34l.18-.19c1.64-1.54,3.25-3.1,4.9-4.61,1.29-1.18,2.63-2.29,3.95-3.43l.09-.09c1.51-1.42,3-2.85,4.52-4.25,1-.89,2-1.75,2.95-2.63a13.07,13.07,0,0,0-4.85-6,8.44,8.44,0,0,1-1-.38,8.85,8.85,0,0,0-2.67-.84,21.66,21.66,0,0,0-3-.2,19,19,0,0,0-3.83.47,28.12,28.12,0,0,0-5.3,1.39c-1.28.45-2.52,1-3.79,1.5a35.68,35.68,0,0,0-5,2.23c-2.47,1.46-5.05,2.71-7.53,4.15a10.52,10.52,0,0,1-3.14,1.43c-.46.09-.9.23-1.32.34l-1.28-1-1.82-4.34c.12-.76.21-1.35.31-1.94l-.18-.08c1.32-2,2.55-4.08,4-6,1.34-1.75,2.61-3.54,3.94-5.29,1.07-1.41,2.24-2.76,3.33-4.16s1.95-2.63,2.94-3.93c1.29-1.68,2.65-3.31,3.87-5,.74-1.05,1.62-2,2.26-3.13.5-.9,1.26-1.65,1.81-2.52,1-1.51,2.14-2.9,3-4.5.94-.71,1.19-1.89,1.87-2.79a20.81,20.81,0,0,0,1.5-2.51c.55-1,1.1-2,1.63-3,.61-1.17,1.07-2.41,1.62-3.61a18.7,18.7,0,0,0,1.41-4.62c.11-.59.17-1.19.25-1.75a2.8,2.8,0,0,0-1.85-.71,18.53,18.53,0,0,0-2.79,0,20.1,20.1,0,0,0-3.58.87,29.6,29.6,0,0,0-4.66,2c-.9.49-1.83.91-2.74,1.36a60.35,60.35,0,0,0-6.24,3.84c-1.79,1.18-3.55,2.42-5.28,3.69-1.11.83-2.16,1.75-3.21,2.66-1.48,1.28-2.89,2.67-4.45,3.86-1,.79-1.85,1.74-2.8,2.58-.48.44-1,.83-1.5,1.26a4.15,4.15,0,0,0-.54.57c-.25.3-.46.62-.71.92-.71.87-1.68,1.45-2.4,2.35-1.26,1.57-2.77,2.94-4.11,4.46-1.14,1.3-2.18,2.69-3.27,4-.58.71-1.2,1.39-1.8,2.08a2.65,2.65,0,0,0-.37.38c-1.24,2.12-2.9,4-4.18,6-.85,1.38-1.8,2.7-2.64,4.1-1.21,2-2.46,4-3.55,6.08-1.6,3.07-3.21,6.15-4.74,9.26-1.13,2.29-2.17,4.62-3.23,6.94-.67,1.48-1.42,2.92-2,4.45-1,3-2.62,5.71-3.51,8.75-.25.89-.64,1.74-.89,2.65a5.19,5.19,0,0,1-1,1.42,2.37,2.37,0,0,1-2.32-1.52,1.5,1.5,0,0,0-.24-.45c-.61-.73-1.24-1.45-1.82-2.12-.62-1.74-.22-3.36.06-5,.21-1.22.51-2.43.67-3.66a19.63,19.63,0,0,1,.51-2.37c.41-1.6.72-3.23,1.08-4.85.19-.83.35-1.67.59-2.48s.29-1.51.5-2.24a13.07,13.07,0,0,0,.54-2.09,21,21,0,0,1,.59-2.08c.35-1.61.82-3.2,1.24-4.8.36-1.4.72-2.79,1.09-4.19a6.07,6.07,0,0,0,.46-1.7c0-.84.62-1.4.62-2.23a12.6,12.6,0,0,1,.6-2.06c.43-2.21,1.2-4.33,1.79-6.5.49-1.79.86-3.62,1.5-5.38.5-1.39.67-2.89,1.09-4.32a2.88,2.88,0,0,1,.75-1.39,4.81,4.81,0,0,1,2.42,3.76,3.27,3.27,0,0,0-.21,1,14.2,14.2,0,0,1-.31,3.91c-.32,1.5-.34,3-.73,4.55-.34,1.28-.29,2.65-.6,3.94s-.29,2.62-.72,3.9c-.22.66,0,1.45-.3,2.17a5.18,5.18,0,0,0-.27,1.24c-.2,1.61-.64,3.18-.83,4.8-.12,1-.5,2.06-.71,3.1a6.06,6.06,0,0,0,0,1.21c.16-.12.29-.18.34-.28.57-1,1.17-2,1.68-3a79.71,79.71,0,0,1,4.19-7.36c1.14-1.81,2.15-3.71,3.32-5.5s2.5-3.49,3.72-5.26a21.93,21.93,0,0,1,1.82-2.66c.55-.6.94-1.35,1.5-1.94a36.25,36.25,0,0,0,2.53-3.28,6.9,6.9,0,0,1,.9-1,11.29,11.29,0,0,0,2-2.53,2.94,2.94,0,0,1,.45-.49c3.14-3.22,6.27-6.46,9.42-9.67.61-.62,1.31-1.15,2-1.72a18.16,18.16,0,0,1,2-1.74,22.68,22.68,0,0,0,2.46-2.15,63,63,0,0,1,5-3.94c2.26-1.71,4.6-3.32,7-4.84,1.23-.78,2.55-1.41,3.75-2.23a30.43,30.43,0,0,1,4.46-2.23,31,31,0,0,1,6-2.2,10.68,10.68,0,0,1,4-.28,4.32,4.32,0,0,1,3,1.69,23.76,23.76,0,0,1,2.57,4,4.81,4.81,0,0,1,.59,2.48,1.76,1.76,0,0,0,.21,1.27,1.43,1.43,0,0,1,0,.9,42.83,42.83,0,0,1-1.06,5.13A63.32,63.32,0,0,1,449.76,510c-1.33,2.49-2.8,4.9-4.34,7.27-1.15,1.77-2.4,3.47-3.57,5.21-1.36,2-2.86,4-4.24,6-1,1.47-2.27,2.74-3.3,4.18s-2.19,2.55-3.05,4a14.52,14.52,0,0,1-1.77,2.09c-.17.2-.36.39-.51.6a3.93,3.93,0,0,0-.23.63c.76-.3,1.43-.54,2.08-.84a54.36,54.36,0,0,1,9-3.54,14,14,0,0,1,4.35-1c.66-.5,1.56,0,2.23-.51.09-.07.26,0,.4,0,1.81,0,3.64-.11,5.44,0a12.79,12.79,0,0,1,5.18,1.71,14.85,14.85,0,0,1,3.83,3.36,33.3,33.3,0,0,1,2.36,3.37c.36.53.69,1.09,1.09,1.72.29-.33.52-.6.76-.86,1.29-1.38,2.79-2.52,4.17-3.8.52-.49,1.07-1,1.59-1.44,1.9-1.78,3.7-3.65,5.67-5.35,1.54-1.32,2.87-2.86,4.42-4.15,1.29-1.07,2.37-2.37,3.67-3.41s2.61-2.62,4-3.77c1.59-1.28,2.87-2.87,4.41-4.17,3.05-2.56,5.67-5.56,8.54-8.3a7.29,7.29,0,0,0,2-3.15,21.32,21.32,0,0,1,1.2-2.68q1.17-2.49,2.35-5c1.59-3.36,3.21-6.71,4.75-10.09.5-1.12,1.12-2.18,1.67-3.28s1-2.32,1.62-3.45c1.29-2.51,2.52-5,4-7.46.94-1.57,1.79-3.21,2.76-4.77s1.93-2.94,3-4.36a14.29,14.29,0,0,1,2.37-2.94c.21-.16.36-.39.58-.54a1.42,1.42,0,0,1,1.91,0,7.78,7.78,0,0,1,2.25,2.55,20.29,20.29,0,0,1-1.16,6.15c-.34,1.24-.88,2.39-1.31,3.58-.7,2-1.69,3.82-2.56,5.72-1.34,2.88-3.06,5.53-4.65,8.26a53.39,53.39,0,0,0-3.41,5.73,35.47,35.47,0,0,0-1.82,4.36c-.15.52-.55,1-.76,1.49-.73,1.81-1.43,3.63-2.15,5.45-.62,1.58-1.22,3.16-1.86,4.74-.51,1.26-1.07,2.5-1.59,3.76s-1,2.51-1.52,3.78-.89,2.29-1.33,3.44c-.56,1.47-1,3-1.69,4.39-1,2.08-1.48,4.34-2.45,6.43-.35.75-.58,1.59-.86,2.39-.67,1.92-1.38,3.83-2,5.75s-1.23,3.7-1.85,5.55c-.66,2-1.37,4-2,6-.51,1.7-1.14,3.37-1.61,5.08-.61,2.25-1.29,4.48-2,6.71-.51,1.66-1,3.34-1.45,5-.57,1.95-1.16,3.9-1.63,5.88-.25,1-.66,2-.84,3.06s-.65,2-.78,3.08a15.37,15.37,0,0,1-.62,2.74c-.29.85-.44,1.73-.68,2.58a26.42,26.42,0,0,0-.62,3.14c-.18,1.09-.41,2.18-.62,3.26-.15.8-.33,1.59-.43,2.4a17,17,0,0,1-.32,3,15.36,15.36,0,0,0-.24,3.22,4.24,4.24,0,0,0,2.13-1.22c1.57-1.42,3-2.95,4.64-4.31,1.37-1.16,2.44-2.6,3.75-3.81s2.55-2.47,3.76-3.76,2.1-2.44,3.15-3.66c.18-.2.38-.37.56-.57,1.27-1.34,2.54-2.68,3.78-4,1.41-1.56,2.79-3.14,4.18-4.71s2.63-2.91,3.87-4.43,2.67-3.12,4.09-4.61c1-1.07,1.92-2.25,2.87-3.37l.28-.29c1.66-1.76,3.34-3.51,5-5.27.51-.54,1-1.13,1.44-1.69a3.48,3.48,0,0,1,.47-.47l2.79-2.4H533l1.4,1.07C534.63,552.66,534.27,553.15,534.74,553.23Zm-70.4,4.63c.08-1.59-.26-3.14-.3-4.71,0-1.08-.18-2.15-.29-3.23,0-.11-.16-.2-.33-.4a6,6,0,0,0-.79.5q-1.81,1.63-3.58,3.3c-1.64,1.53-3.26,3.08-4.89,4.62a1.62,1.62,0,0,1-.19.18c-1.22,1-2.47,2.07-3.66,3.15-1.56,1.42-3.08,2.89-4.61,4.34a1.57,1.57,0,0,1-.19.18c-1.62,1-2.72,2.58-4.21,3.74-1.65,1.3-3,3-4.61,4.34-2.38,2.08-4.6,4.36-6.88,6.56-1.17,1.15-2.34,2.3-3.47,3.48-1.73,1.82-3.63,3.46-5.21,5.43-1.15,1.44-2.5,2.71-3.76,4.06s-2.52,2.69-3.77,4.05c-.53.58-1,1.18-1.52,1.79-1.16,1.41-2.26,2.86-3.46,4.22s-2.11,2.95-3.32,4.31c-.52.58-.83,1.3-1.3,1.91a67.21,67.21,0,0,0-5.46,8.41c-.5.89-.87,1.85-1.42,2.71a20.81,20.81,0,0,0-1.63,3.6c-.55,1.37-1,2.79-1.44,4.2a33.29,33.29,0,0,0-.69,3.64c-.09.46-.14.93-.22,1.43a4.71,4.71,0,0,1,.2,1.2,9.66,9.66,0,0,0,.85,4.52,6,6,0,0,0,3.07,3.51,24.29,24.29,0,0,0,5.82,1c.33,0,.65-.23,1-.24.74-.05,1.46-.14,2.19-.24a26.21,26.21,0,0,0,5.8-1.45,40.14,40.14,0,0,0,5.71-2.52c2.14-1.27,4.27-2.52,6.3-4a49,49,0,0,0,5.62-4.63,10.45,10.45,0,0,1,2.25-2,.88.88,0,0,0,.37-.37,9,9,0,0,1,1.82-2.06c.63-.73,1.23-1.48,1.9-2.16a24.4,24.4,0,0,0,3.37-4.14,16.18,16.18,0,0,1,1-1.33c1.12-1.48,2.25-3,3.36-4.44.27-.38.45-.82.71-1.22.49-.75,1-1.48,1.5-2.24.6-.94,1.11-1.94,1.74-2.84a63.77,63.77,0,0,0,4.14-7.1c1.54-2.91,2.92-5.9,4.35-8.86.34-.69.64-1.4.92-2.11q.89-2.25,1.72-4.52a20.08,20.08,0,0,0,1.18-3.22c.29-1.51,1-2.89,1.22-4.41.31-1.75,1.15-3.39,1.21-5.21.7-1.54.63-3.25,1-4.86a12,12,0,0,0,.28-2.17,5.39,5.39,0,0,1,.27-2.18A37.34,37.34,0,0,1,464.34,557.86Z"/><path d="M598.6,554.56c-1.09.54-2.14,1.1-3.24,1.58-1.32.58-2.68,1.09-4,1.62-1.69.68-3.34,1.49-5.05,2.13-.87.34-1.71.78-2.56,1.17q-3,1.41-6,2.79c-.45.21-.93.37-1.41.56a21,21,0,0,0,.22,2.93,17.82,17.82,0,0,1,0,3.58c0,.73-.17,1.45-.25,2.18a10.34,10.34,0,0,1-.21,2.19,22.65,22.65,0,0,0-.29,2.44c-.24,1.25-.47,2.5-.74,3.76-.24,1-.37,2.1-.63,3.13-.34,1.31-.76,2.6-1.14,3.9a31.66,31.66,0,0,1-2.73,6.19,21.29,21.29,0,0,1-3.57,4.91c-.53.53-1.08,1-1.59,1.6a19,19,0,0,1-4.76,3.58,20.73,20.73,0,0,1-3.9,1.91c-1,.3-1.91.7-2.89.94s-1.71.22-2.56.34a1.71,1.71,0,0,0-.5.26h-4c-.12-.09-.25-.26-.37-.26a4.55,4.55,0,0,1-2.5-.53,3,3,0,0,0-.84-.27,9.44,9.44,0,0,1-5.08-3.14c-1-1-1.61-2.33-2.48-3.44a8.6,8.6,0,0,1-1.46-4,9.39,9.39,0,0,1,.82-4.92,21.56,21.56,0,0,1,1.59-3.19,27.91,27.91,0,0,1,4-5.39,54.76,54.76,0,0,1,6.75-6.25c1-.77,2-1.69,3-2.46,1.32-1,2.72-1.79,4-2.75s2.75-1.76,4.12-2.64a71.46,71.46,0,0,1,6.51-3.51c2.48-1.27,5-2.49,7.47-3.74.33-.17.63-.41.93-.6a9,9,0,0,0-3.05-3.41,10.85,10.85,0,0,0-2.82-1.17,14.33,14.33,0,0,0-5.16-.93c-1.42.08-2.84,0-4.25,0a3.47,3.47,0,0,1-3.92-3.28c-2.19,4.39-4.2,8.7-7.07,12.53a23.64,23.64,0,0,1-3,3.73,18.71,18.71,0,0,1-2,1.7c-1.54,1-3.1,2.09-5.12,1.77a5.46,5.46,0,0,1-3.22-3.31,10.77,10.77,0,0,0-.69-1.5,14.74,14.74,0,0,1-2.19-6.35c0-.09-.17-.16-.26-.24v-4.25c.09-.08.25-.15.26-.24.1-.85.11-1.73.29-2.57.24-1.12.61-2.2.91-3.31a34.42,34.42,0,0,1,2.11-5.06,10.34,10.34,0,0,1,2.41-3.42c.71-.13,1,.43,1.32.79a16.56,16.56,0,0,1,1.25,1.5,4.13,4.13,0,0,1,1.06,1.87c.11.72.44,1.4,0,2.1.11,1.58-.58,3-.87,4.53a47.3,47.3,0,0,1-1.23,5.59,23,23,0,0,0-.57,3.55,8,8,0,0,1-.28,1.38c-.45,1.24-.17,2.51-.26,3.83a4,4,0,0,0,2.65-.3,9.77,9.77,0,0,0,3.31-2.23,18.47,18.47,0,0,1,1.6-1.59,23.94,23.94,0,0,0,3.85-5.05,67.9,67.9,0,0,0,3.89-7.23c.67-1.37.73-1.37.37-2.77a9.89,9.89,0,0,1,.16-5,19.67,19.67,0,0,1,3.57-6.75,23.09,23.09,0,0,1,3.26-3.44,13,13,0,0,1,3-2,43.63,43.63,0,0,1,6.93-3c.94-.29,1.84,0,2.82-.28l1.81,1.42-.16.13L575.8,532c-.08.66-.17,1.43-.25,2.06a35.13,35.13,0,0,1-4.38,4.76c-.59.58-1.25,1.08-1.88,1.62s-1.21,1-1.78,1.53c-1.39,1.28-2.81,2.53-4.13,3.88-1.12,1.15-2.11,2.43-3.14,3.66a2.55,2.55,0,0,0-.25.72c.63.13,1.21.22,1.77.37s.94.37,1.43.52a26.61,26.61,0,0,1,4.87,1.87A15.62,15.62,0,0,1,572,555.7a18.15,18.15,0,0,1,2.45,3.62c.21.37.41.75.65,1.17,1.28-.55,2.46-1.13,3.69-1.6s2.43-1,3.66-1.41l3.71-1.33c1.19-.44,2.38-.91,3.57-1.35s2.48-.88,3.71-1.33,2.45-1,3.77-1.46l.48.2c.31.52.65,1.06.93,1.63C598.68,554,598.6,554.26,598.6,554.56Zm-24.68,10.87a30.5,30.5,0,0,1-3.62,1.81c-1.71.58-3.17,1.62-4.81,2.31a35.21,35.21,0,0,0-3.91,2.21c-1.22.71-2.47,1.36-3.66,2.11-1.85,1.17-3.68,2.37-5.47,3.62a53.22,53.22,0,0,0-5.93,4.86,39.25,39.25,0,0,0-4.59,5,33.15,33.15,0,0,0-3.14,4.87,11.55,11.55,0,0,0-1.33,5.71,4.88,4.88,0,0,0,2.33,4.18,4.74,4.74,0,0,0,1.29.53,12,12,0,0,0,2.82.73,19.89,19.89,0,0,0,6.74-.49,18,18,0,0,0,3.37-1.11c1.75-.91,3.68-1.5,5.17-2.86a7.18,7.18,0,0,0,2.5-1.81,22.42,22.42,0,0,0,2.91-2.78,45.67,45.67,0,0,0,3.18-4.54,35.65,35.65,0,0,0,3.43-8.1,38.73,38.73,0,0,0,1.66-6.67c.12-1,.44-1.9.52-2.89a16.49,16.49,0,0,0,.24-3,.74.74,0,0,1,0-.26C574.14,567.83,573.77,566.69,573.92,565.43Zm-34.08-33.75a7.09,7.09,0,0,0-.76-1.54v-1.73l.68-.72,1.66.33,2.09,2.46c.13.55.26,1.17.42,1.88l-1.88,1.57A3,3,0,0,1,539.84,531.68Z"/><path d="M630.32,554.3a8,8,0,0,1-3.15,1.85c-1.36.59-2.85.88-4.16,1.61-1,.58-2,1.22-3.16,1.89,0,.25,0,.51,0,.76a48.14,48.14,0,0,1-.3,5.1c-.26,1.63-.52,3.27-.93,4.88-.31,1.23-.61,2.48-.92,3.71a22.33,22.33,0,0,1-1.21,3.35c-.71,1.65-1.43,3.29-2.27,4.87a12.05,12.05,0,0,1-1.6,2.5c-.43.46-.66,1.09-1.07,1.6a30.55,30.55,0,0,1-3.26,3.74,20.35,20.35,0,0,1-8.07,4.9,10.47,10.47,0,0,1-9.57-1.59,8.64,8.64,0,0,1-2.42-3.62c-.29-.66-.54-1.34-.79-2a6.63,6.63,0,0,1-.54-2.49c0-.62,0-1.24,0-1.86a9.05,9.05,0,0,1,.27-1.64,10.15,10.15,0,0,1,.59-1.68,17.63,17.63,0,0,1,3.19-4.83,46.13,46.13,0,0,1,6.94-5.68c1.48-1,3-2.06,4.47-3,1.68-1.11,3.41-2.13,5.18-3.09,2-1.07,3.85-2.24,5.79-3.33,1.27-.7,2.57-1.34,3.89-2a9.93,9.93,0,0,0-1.91-5.67A20.39,20.39,0,0,0,613,550a9.11,9.11,0,0,0-4.11-2,14.34,14.34,0,0,0-3-.67,18.07,18.07,0,0,1-2.11-.45c-1-.13-2-.15-3-.28a6.27,6.27,0,0,1-4.46-2.13,6.12,6.12,0,0,1-.42-2.87c0-.82-.22-1.63-.25-2.45a6.28,6.28,0,0,1,1.7-4.46,27.46,27.46,0,0,1,7.5-5.72c5-2.72,10.08-5.11,15.13-7.66.11-.06.21-.15.31-.21h2a8,8,0,0,1,.93,4.1,15.23,15.23,0,0,1-3.94,4.54,16.86,16.86,0,0,0-2,1.7,48.54,48.54,0,0,1-5.58,4.21c-1.77,1.21-3.57,2.37-5.37,3.53-.71.47-1.47.87-2.2,1.32a4.88,4.88,0,0,0-.67.59c1.56.44,3,.83,4.39,1.27a17.36,17.36,0,0,1,5.06,2.42,12.46,12.46,0,0,1,3.14,3.33,23.51,23.51,0,0,1,2.12,4.37c.47,1.17.8,2.41,1.21,3.7a2.68,2.68,0,0,0,.69-.17c2.43-1.16,4.85-2.35,7.28-3.51.53-.25,1.11-.42,1.71-.64.14.11.34.18.4.32C629.81,552.86,630.06,553.58,630.32,554.3ZM617,561.44c-1.26.79-2.34,1.48-3.44,2.15-1.43.86-2.94,1.6-4.29,2.55-2.07,1.46-4.29,2.7-6.26,4.32-1.43,1.17-3,2.24-4.4,3.39-.75.59-1.41,1.3-2.18,1.87a20.19,20.19,0,0,0-4.44,4.6,12.17,12.17,0,0,0-2,4.67,7.18,7.18,0,0,0,.51,4.51,19.27,19.27,0,0,0,2,.84,10.54,10.54,0,0,0,2,.35,4.48,4.48,0,0,0,1-.08,8.83,8.83,0,0,1,1-.16,5.81,5.81,0,0,0,2.22-.55c.86-.36,1.69-.78,2.53-1.21a21,21,0,0,0,4.29-3,26.32,26.32,0,0,0,1.88-1.93c.62-.66,1.13-1.41,1.69-2.12a38.28,38.28,0,0,0,2.91-4.67c.68-1.18,1.1-2.5,1.84-3.65a11.3,11.3,0,0,1,1.08-3.25c.3-.88.57-1.77.8-2.68.26-1.07.47-2.16.68-3.24C616.7,563.28,616.81,562.43,617,561.44Z"/><path d="M696.32,485a12,12,0,0,1-.48,2.77,21.13,21.13,0,0,1-2.77,6,36,36,0,0,1-2.72,3.62,51.21,51.21,0,0,1-9.65,9c-.48.36-1,.66-1.47,1a2.58,2.58,0,0,0-.51.73,36.53,36.53,0,0,0-1.64,3.74c-.91,2-1.56,4.14-2.53,6.13-.47,1-.68,2.1-1.1,3.11-.64,1.53-1.14,3.11-1.66,4.67a35.54,35.54,0,0,0-1.53,5,9.83,9.83,0,0,1-.52,1.43,47.21,47.21,0,0,0-1.47,5.12,53.08,53.08,0,0,0-1.46,5.81,19.61,19.61,0,0,1-.57,2.09c-.4,1.77-.82,3.55-1.31,5.3s-.75,3.4-1.18,5.09a4.63,4.63,0,0,0-.3,2.58c1.22-.13,2.44.28,3.63-.26a.57.57,0,0,1,.26,0,10.82,10.82,0,0,0,4.94-1.2,14.3,14.3,0,0,0,4.3-2.56,32.87,32.87,0,0,1,2.82-2.3,3.61,3.61,0,0,1,1.84-.86,6.42,6.42,0,0,0,.82-.25l2.29,1.91v.8a2.6,2.6,0,0,0-.2.28,14.47,14.47,0,0,1-4.38,4.92,6.47,6.47,0,0,0-1.11.89c-1,1.13-2.52,1.47-3.76,2.25a11.57,11.57,0,0,1-3.26,1c-.7.18-1.41.33-2.12.46-2.45.45-4.91.1-7.47.28a23.52,23.52,0,0,1-.56,2.31c-.56,1.61-.54,3.36-1.24,4.94a8.2,8.2,0,0,0-.24,1.51c-.38,1.57-.77,3.14-1.17,4.7s-.8,3-1.18,4.55a30,30,0,0,1-.7,3c-.54,1.57-.61,3.24-1.17,4.82-.31.86-.38,1.82-.65,2.73-.46,1.54-.72,3.15-1.1,4.71-.34,1.35-.95,2.65-1.2,4a37.15,37.15,0,0,1-1.33,4c-.81,2.76-1.92,5.43-2.55,8.26a26.06,26.06,0,0,1-1.07,3,12.88,12.88,0,0,0-.47,1.45,4.16,4.16,0,0,1-1.48,2.34c-1.06.2-1.73-.63-2.51-1.19-.49-.35-.91-.79-1.48-1.29-.16-.4-.39-.94-.61-1.47.08-.56.12-1.12.23-1.66.29-1.33.31-2.71.71-4a15.3,15.3,0,0,0,.35-2.15c.09-.55.14-1.11.28-1.65.39-1.49.47-3,.82-4.53a16.11,16.11,0,0,0,.24-2.05c.1-.8.3-1.59.46-2.38.12-.63.17-1.27.29-1.9.29-1.51.63-3,1-4.48.18-.65.13-1.35.32-2,.29-1,.45-2.09.64-3.13.28-1.51.82-3,1-4.48a2.79,2.79,0,0,1,.26-.85,15.42,15.42,0,0,0,.8-3.48c.18-.78.42-1.55.6-2.34.1-.46.09-1,.21-1.4s.36-.95.5-1.44.17-.92.28-1.37c.4-1.56.86-3.11,1.21-4.68a10.13,10.13,0,0,0,.67-3.12c0-.18.16-.39.25-.57-.52-.67-1.33-.55-2-.75s-1.61,0-2.27-.35-1.52.07-2.13-.47c0,0-.08,0-.13,0-2.14.06-4.27-.5-6.42-.25a9.91,9.91,0,0,0-2.61.59c-.64.27-1.35.1-2,.53s-1.33.39-1.88.75-1.5.62-2.05,1.31c-.39.5-1,.79-1.46,1.27a23.21,23.21,0,0,0-1.8,2.38,15.68,15.68,0,0,0-1.79,4.46,6.41,6.41,0,0,0,0,2.89,10.35,10.35,0,0,0,2.3,4.8,6.6,6.6,0,0,1,.63,1.33l-.8.64h-.87l-2.12-2.63a22.69,22.69,0,0,1-1.87-3.33,5,5,0,0,1-.51-1.57c-.14-.76-.18-1.54-.29-2.3,0-.09-.16-.16-.25-.24v-.53c.07,0,.2-.07.21-.12.12-.81.18-1.63.33-2.43a9.58,9.58,0,0,1,.56-1.82,24.07,24.07,0,0,1,1.32-2.64,14.87,14.87,0,0,1,1.52-2.09,14,14,0,0,1,6.57-4.77c1-.76,2.39-.63,3.47-1.26a1.06,1.06,0,0,1,.26,0c1.52-.09,3-.2,4.57-.26a27.44,27.44,0,0,1,5.42.47c1.4.22,2.76.54,4.14.83a31.1,31.1,0,0,0,3.14.34c.49-2.21.88-4.39,1.47-6.51.53-1.92.9-3.88,1.42-5.81.41-1.51.79-3,1.24-4.53a57.8,57.8,0,0,1,2-6.68c.07-1.36.87-2.48,1.19-3.76.41-1.64,1.2-3.18,1.7-4.79.84-2.73,1.93-5.34,3-8a6.61,6.61,0,0,0,.22-1,9.78,9.78,0,0,0-1.26.58c-2.41,1.64-5,2.91-7.43,4.59-1.26.88-2.61,1.64-3.86,2.56-1.78,1.29-3.59,2.52-5.29,3.94a62.81,62.81,0,0,0-5.52,5.05,31.49,31.49,0,0,0-3.89,5,9.82,9.82,0,0,0-1.11,3.51c0,.24-.11.48-.18.77.08.53.17,1.12.26,1.76a6.77,6.77,0,0,0,2.21,3.1c.59.48,1.27.87,1.9,1.31.32.22.61.46,1,.71-.17.43-.31.78-.46,1.14h-1.58a14.88,14.88,0,0,1-4.17-3.47,14.29,14.29,0,0,1-2.71-5.15c.08-1.08.19-2.65.31-4.21l.12,0a11.79,11.79,0,0,1,.56-1.26c.53-.93,1.08-1.85,1.68-2.73a16.85,16.85,0,0,1,1.32-1.61,23.08,23.08,0,0,1,2.2-2.43c1.75-1.49,3.4-3.1,5.22-4.54,2.54-2,5.34-3.6,8-5.42,2.12-1.46,4.35-2.73,6.59-4,2-1.14,4-2.38,5.94-3.57.66-.4,1.31-.82,2-1.16a2.46,2.46,0,0,0,1.25-1.25c.32-.71.7-1.38,1-2.07,1.07-2.24,2.12-4.48,3.22-6.71s2-4.33,3.23-6.4,2.16-4.08,3.5-6c1-1.46,1.79-3.12,2.84-4.57A25.21,25.21,0,0,1,684.7,481c.68-.71,1.33-1.45,2-2.14A21.73,21.73,0,0,1,689.6,477h1.86c.91.6,2,1.29,3,2.05a3.67,3.67,0,0,1,.87,1.11c.35.59.63,1.22,1,1.86C696.32,483,696.31,484,696.32,485Zm-3.44-3.56c-.39.24-.78.34-.94.59-.73,1.17-1.91,2-2.36,3.38a52.63,52.63,0,0,0-4.41,7.95c-1,2.11-2,4.25-3,6.37-.07.15-.15.29-.22.43l.18.18c1.35-1.5,2.91-2.79,4.17-4.4,1-1.26,2-2.5,3-3.78a29.82,29.82,0,0,0,2.37-4.24,3.84,3.84,0,0,0,.2-.6,7.46,7.46,0,0,0,.79-3.34A5.73,5.73,0,0,0,692.88,481.44Z"/><path d="M761.32,457.63a10.3,10.3,0,0,1-.46,2.92,1.63,1.63,0,0,0-.08.37,11.62,11.62,0,0,1-.53,3.16c-.29,1.33-.46,2.69-.82,4-.43,1.59-.49,3.29-1.3,4.78a17.84,17.84,0,0,1-.81,3.74c-.16.66-.31,1.32-.53,2-.56,1.56-.75,3.21-1.29,4.79-.73,2.12-1.16,4.33-1.81,6.48-.51,1.66-.93,3.35-1.43,5-.76,2.56-1.55,5.11-2.39,7.64s-1.7,5.24-2.72,7.8c-.46,1.14-.79,2.33-1.31,3.44a17.42,17.42,0,0,0-1.3,3.46c0,.12-.18.21-.23.33-1.12,2.61-2.16,5.26-3.27,7.88-.72,1.68-1.44,3.37-2.2,5a48.76,48.76,0,0,0-2.54,5.72c-.14.48-.57.86-.76,1.33-.89,2.22-2.16,4.26-2.95,6.53-1.33,1.7-1.83,3.88-3.12,5.62a13.14,13.14,0,0,0-.86,1.72c-.3.56-.64,1.1-1,1.66a9.19,9.19,0,0,0-1.15,3.36c-.19,1.5-.26,3-.57,4.48-.16.74-.09,1.48-.25,2.18a18.64,18.64,0,0,1-.45,2.79,1.51,1.51,0,0,0-.06.38c-.09,1.74-.16,3.49-.27,5.23,0,.73-.21,1.45-.25,2.18a11.21,11.21,0,0,1,0,2.25c-.37,1.3,0,2.63-.26,3.91-.45,2.67-.13,5.35-.25,8a6.42,6.42,0,0,1-.19.87c0,.22-.13.48,0,.64.46.93.18,1.9.25,2.85.1,1.57.15,3.14.28,4.7a15.18,15.18,0,0,0,.36,1.78c.5.08.71-.34.89-.62.46-.72.84-1.49,1.24-2.25.85-1.57,1.68-3.14,2.39-4.78q1.28-2.93,2.54-5.85c.29-.67.49-1.36.81-2,.89-1.8,1.31-3.77,2.27-5.55.83-1.53,1.28-3.25,2.17-4.77-.06-.75.5-1.24.78-1.85a17.59,17.59,0,0,0,1.18-2.83,14.38,14.38,0,0,1,1-2,24.88,24.88,0,0,1,1.59-3.34,19.52,19.52,0,0,0,1-2.07c.61-1.17,1.26-2.33,1.89-3.49.22-.41.43-.82.68-1.21.78-1.23,1.56-2.46,2.38-3.66a8.75,8.75,0,0,1,1-1l2,.76.48.81a2.21,2.21,0,0,1-.12.32c-1,1.7-2,3.37-3,5.11-1.17,2.27-2.33,4.56-3.27,6.93-.79,2-1.73,3.88-2.5,5.86a42.46,42.46,0,0,1-2,4.83c-.51.94-.63,2-1.05,3-.78,1.87-1.29,3.85-1.95,5.77-.45,1.33-1.05,2.61-1.44,3.94-.29,1-.57,2-.9,2.92-.92,2.59-1.76,5.22-2.75,7.79a22.89,22.89,0,0,1-2.08,4.1,4.49,4.49,0,0,1-3,2.43c-.25,0-.46.32-.69.49h-.53a2.33,2.33,0,0,0-.38-.26,5.37,5.37,0,0,1-1.7-.83,7.88,7.88,0,0,0-2.15-1.13,6.59,6.59,0,0,1-3-2.23,13.16,13.16,0,0,1-2.11-3.79c-.2-.64-.5-1.26-.68-1.91a4.18,4.18,0,0,1-.39-1.75,1.54,1.54,0,0,0-.14-.61,12.81,12.81,0,0,1-.66-3.53,6.76,6.76,0,0,0-.33-2.15,5.21,5.21,0,0,1-.19-1.27c-.48-4-.18-8.1-.27-12.15a1.1,1.1,0,0,0-.12-.29c-.67.67-1.35,1.3-2,2a14.9,14.9,0,0,1-3.91,3,9.9,9.9,0,0,1-4.73,1.44,5,5,0,0,1-2.92-.88,13.17,13.17,0,0,1-4-3.92,12.53,12.53,0,0,1-1.49-3.63c-.3-1.28-.55-2.58-.8-3.87a4.27,4.27,0,0,1,0-.8v-3.32c-.35.63-.56,1-.76,1.39a7.84,7.84,0,0,1-2.88,3.11c-.4.25-.82.64-1.3.45-.67-.27-1.49-.14-2-.72a14.81,14.81,0,0,1-1.27-1.48c-.94-1.28-1.88-2.57-2.77-3.89a10,10,0,0,1-1.2-3.08,15.45,15.45,0,0,1-.53-5.28,13.78,13.78,0,0,1,.46-2.91c.17-.58-.11-1.23.32-1.76a38.86,38.86,0,0,1,1.41-5.82c.47-1.73,1.33-3.3,1.89-5a9.36,9.36,0,0,1,1.91-2.8l1.66.39,1.21,1.45c1.17.24,1.68,1.35,2.13,2.48a1.64,1.64,0,0,1,.06,1,14.16,14.16,0,0,0-.46,2.52c-.09,1-.43,2.08-.62,3.13a29.61,29.61,0,0,1-.69,3.24c-.41,1.35,0,2.85-.78,4.15-.06.1,0,.26,0,.39a19.51,19.51,0,0,1-.5,4,12.23,12.23,0,0,0,0,2.36,8.71,8.71,0,0,0,2.61-3.06,18.75,18.75,0,0,0,1.86-3.51c.68-1.89,1.86-3.53,2.48-5.45a16.2,16.2,0,0,1,1.62-2.82h1.11l2.28,1.92v1.68a21,21,0,0,1-.63,4.47,14.55,14.55,0,0,1-.41,2.52,7.11,7.11,0,0,0-.28,1.91,4.29,4.29,0,0,1-.27,1.91s0,.09,0,.13c-.08,1.57-.17,3.14-.27,4.7,0,.38-.17.74-.17,1.11s.16.67.16,1-.14.67-.16,1c0,.65-.05,1.3,0,2,0,.38.17.75.19,1.13a10,10,0,0,0,1.13,4.18,2.11,2.11,0,0,0,.34.41,13,13,0,0,0,2.38-.59A16.32,16.32,0,0,0,707,573.9c.55-.5,1.13-.95,1.69-1.44a26.94,26.94,0,0,0,3.15-3.51c.43-.54.81-1.12,1.23-1.66s.95-1.14,1.3-1.56c.41-1.32.24-2.56.65-3.71a1.34,1.34,0,0,0,0-.53,10.72,10.72,0,0,1,.53-3.42,1.88,1.88,0,0,0,0-.53,15.42,15.42,0,0,1,.48-3.44c.16-.74.13-1.54.31-2.3.31-1.24.37-2.52.74-3.76a9.29,9.29,0,0,0,.29-1.89,30,30,0,0,1,.69-3.26c.19-1.08.45-2.16.68-3.24.26-1.25.6-2.47.93-3.7.59-2.26,1.13-4.53,1.73-6.78.41-1.51.92-3,1.31-4.51.56-2.13,1.24-4.23,1.88-6.34a23.52,23.52,0,0,0,.93-2.63,21.89,21.89,0,0,1,.92-2.91c.14-.4.3-.79.55-1.46v-.75l.14,0c.48-1.32.92-2.65,1.44-3.94.7-1.74,1.17-3.55,2-5.26.69-1.49,1.17-3.09,1.77-4.62.5-1.27,1.06-2.51,1.57-3.77.64-1.57,1.25-3.16,1.89-4.73.33-.83.69-1.65,1.05-2.47,1-2.34,2.09-4.66,3.06-7,.83-2,1.77-3.95,2.71-5.91.76-1.57,1.44-3.17,2.22-4.73,1.12-2.24,2.21-4.51,3.48-6.67,1.13-1.92,2.27-3.83,3.57-5.66.92-1.28,2-2.42,3-3.62a7.71,7.71,0,0,1,2.2-1.58,1.52,1.52,0,0,1,2,.28,4.82,4.82,0,0,1,1.85,2.61,3.14,3.14,0,0,0,.42.81C761.31,455.42,761.28,456.53,761.32,457.63Zm-2.76-2.8a19.22,19.22,0,0,0-1.42,1.47,28.9,28.9,0,0,0-2.47,4.2,102.36,102.36,0,0,0-4.62,10.24q-1.44,3.67-2.77,7.38c-.44,1.24-.87,2.48-1.33,3.71a16.81,16.81,0,0,0-1.06,2.72c-.29,1.7-1.1,3.21-1.52,4.85-.37,1.43-1,2.79-1.44,4.2-.66,2-1.27,4-1.88,6.07-.71,2.39-1.47,4.77-2.14,7.18-.13.49-.39.95-.51,1.44-.55,2.31-1.23,4.58-1.87,6.87-.54,1.91-1.08,3.83-1.59,5.75-.23.9-.57,1.81-.71,2.69-.22,1.49-.74,2.89-.93,4.38s-.79,3-1.1,4.58-.68,3.07-1,4.6c-.07.36-.2.71-.29,1.06a9.88,9.88,0,0,0,1.49-2.58c.76-1.32,1.35-2.75,2-4.13s1.2-2.74,1.89-4.06a7.26,7.26,0,0,0,.78-1.86,2.45,2.45,0,0,1,.32-.7c1.14-1.76,1.57-3.86,2.69-5.64a2,2,0,0,0,.17-.48c.12-.36.2-.74.35-1.08.55-1.21,1.13-2.39,1.69-3.6.22-.49.41-1,.62-1.5.53-1.25,1.07-2.5,1.59-3.76.28-.66.54-1.34.8-2,.19-.51.36-1,.56-1.55.7-1.87,1.43-3.72,2.12-5.59.38-1,.62-2.12,1.07-3.12s.47-2.25,1-3.27a3.49,3.49,0,0,0,.51-1.3,5.72,5.72,0,0,1,.54-2,10.75,10.75,0,0,0,.54-1.43c.29-1.06.52-2.14.82-3.2a8,8,0,0,0,.49-1.3,25.32,25.32,0,0,1,1.31-4.79,48,48,0,0,1,1.86-6.2c0-1.74.82-3.3,1.18-5s.88-3.62,1.26-5.45c.26-1.2.57-2.4.78-3.61A12.29,12.29,0,0,0,758.56,454.83Z"/><path d="M720.19,620.31a21.29,21.29,0,0,1-.72,4.69c-.22,1-.41,2.09-.61,3.14,0,0,0,.09,0,.13a15.53,15.53,0,0,0-.79,3.21c-.31,1.19-.53,2.41-.81,3.61s-.58,2.39-.88,3.58c-.35,1.41-.74,2.79-1,4.21a24.17,24.17,0,0,1-.63,2.47c-.48,1.58-.75,3.22-1.18,4.81s-.72,3.06-1.08,4.59a3.13,3.13,0,0,1-.16.75c-.26.58-.57,1.15-.84,1.69-1.38.25-2,0-2.57-1.15a9.91,9.91,0,0,0-1.53-2.39,7.44,7.44,0,0,1-1-1.83,1.94,1.94,0,0,0,0-.22,15.33,15.33,0,0,1,1-5.69c.69-2.53,1.47-5,2.19-7.57.18-.65.09-1.35.26-2a14,14,0,0,0,.29-3.49c0-1,.32-2,.26-3a34.67,34.67,0,0,0-.54-5.67,6.28,6.28,0,0,0-1.72-3.26,12.21,12.21,0,0,0-3.48-2.7,12.81,12.81,0,0,0-4.39-1.3,10.06,10.06,0,0,0-2.31-.19c-1.82.34-3.67.27-5.5.69a66.72,66.72,0,0,0-8.24,2.58,39.59,39.59,0,0,0-4.84,2.4,51.85,51.85,0,0,0-5.31,3.39,65.85,65.85,0,0,0-9.29,8.28,15.7,15.7,0,0,0-1.15,1.41l-1.15,1.4c-.92,1.11-1.88,2.18-2.75,3.31S657.8,642.66,657,644c-1.71,2.62-3.45,5.23-5,7.93s-2.85,5.38-4.17,8.11c-1,2.15-1.95,4.35-2.86,6.56-.78,1.88-1.54,3.77-2.21,5.69q-1.61,4.56-3.09,9.15c-.8,2.46-1.45,5-2.12,7.46-.46,1.68-.75,3.39-1.25,5.07a27.23,27.23,0,0,0-.59,3.54,12.76,12.76,0,0,1-.28,1.64c-.28,1-.3,2.13-.56,3.15s-.15,2.21-.43,3.32a17.33,17.33,0,0,0-.31,3.89c0,2.08-.05,4.16,0,6.24,0,1.84.24,3.66.3,5.5.05,1.45.34,2.9.51,4.36.15,1.3.61,2.57.74,3.88a26.35,26.35,0,0,0,.88,3.86c.45,1.8,1.21,3.52,1.8,5.29a43.46,43.46,0,0,0,2.44,5.22,21.08,21.08,0,0,0,1.89,2.76,10.11,10.11,0,0,0,2.84,2.84c.69.44,1.39.84,2,1.22h1.43a14.6,14.6,0,0,0,4-.67,26.9,26.9,0,0,0,7.67-4c.9-.6,1.62-1.46,2.47-2.14a24.57,24.57,0,0,0,1.9-1.92L666.9,740c.65-.65,1.35-1.28,2-2,.89-1,1.72-2.06,2.59-3.09.59-.7,1.19-1.4,1.8-2.07a34,34,0,0,0,2.9-3.66,18.46,18.46,0,0,1,1.5-1.81c1.3-1.45,2.42-3,3.58-4.6.84-1.15,1.84-2.19,2.73-3.32s1.82-2.4,2.74-3.61l3.13-4.11c.53-.69,1-1.39,1.54-2.08.75-1,1.48-2,2.23-3,.62-.83,1.24-1.66,1.87-2.48l3.13-4.12c.31-.41.61-.83.91-1.22l2.13.89.07-.14,1.29,1.28a10.77,10.77,0,0,1-.66,1.51c-1,1.6-2,3.19-3.09,4.75-.84,1.25-1.74,2.47-2.56,3.71s-1.71,2.47-2.53,3.72c-.94,1.44-2,2.77-3,4.17-1.45,2-2.79,4.13-4.31,6.11-1.25,1.64-2.45,3.32-3.66,5-.7,1-1.57,1.85-2.26,2.85-.56.83-1.19,1.59-1.8,2.37-1.38,1.76-2.6,3.63-3.93,5.43-.54.74-1.19,1.39-1.79,2.08-1.2,1.38-2.39,2.78-3.62,4.13a15,15,0,0,1-1.47,1.28c-.07.06-.15.1-.21.16a25.94,25.94,0,0,1-4,3.26,20.55,20.55,0,0,1-4.48,2.4,12.41,12.41,0,0,1-2.78.91,14.38,14.38,0,0,1-2.78.44c-.84,0-1.68,0-2.53,0a11.51,11.51,0,0,1-5.3-1.31,44,44,0,0,1-6.71-3.74c-.28-.21-.55-.42-.81-.64a22.5,22.5,0,0,1-1.87-1.63c-.82-.9-1.55-1.87-2.3-2.82a46.9,46.9,0,0,1-3.43-5.58,25,25,0,0,1-1.45-3.4c-.42-1.11-.78-2.24-1.13-3.37a52,52,0,0,1-1.32-5,23.18,23.18,0,0,0-.71-3.24,11.6,11.6,0,0,1-.26-2.16,14.31,14.31,0,0,1-.33-3.64c0-.11-.16-.24-.25-.37v-8a1.71,1.71,0,0,0,.26-.5c.1-1.44.07-2.89.31-4.3.18-1,.12-2,.25-3,.19-1.36.37-2.72.55-4.08.22-1.7.45-3.4.8-5.07.3-1.4.61-2.82.93-4.22s.73-2.71,1-4.08.79-2.6,1.12-3.9c.41-1.66,1-3.24,1.53-4.85s1-3.13,1.63-4.68c.9-2.39,1.94-4.72,2.89-7.08,1.53-3.82,3.43-7.46,5.31-11.09a131.44,131.44,0,0,1,8.19-13.5c1.2-1.74,2.63-3.32,3.9-5a77.76,77.76,0,0,1,9-9.75c1.3-1.26,2.76-2.37,4.18-3.51s3.08-2.2,4.66-3.24c.82-.54,1.69-1,2.54-1.5a27.69,27.69,0,0,1,3.3-1.69,59.7,59.7,0,0,1,6.92-2.56c1.54-.43,3.12-.78,4.66-1.23.9-.26,1.9-.14,2.83-.32a19.6,19.6,0,0,1,4.71-.23,14.79,14.79,0,0,1,8.9,3.19c.67.56,1.34,1.12,2,1.72a7.07,7.07,0,0,1,1,1.22c.74,1.11,1.62,2.09,2.31,3.25a24.18,24.18,0,0,1,2.48,5.64,3.75,3.75,0,0,0,.54-.75c.41-1.07.76-2.16,1.17-3.23.62-1.63,1.25-3.25,1.94-4.85a7.08,7.08,0,0,1,.9-1.27,10.43,10.43,0,0,1,1.94,2.41C720.19,618.9,720.18,619.61,720.19,620.31Z"/><path d="M770.6,635.77c-.2.69-.06,1.44-.27,2.18s-.34,1.39-.54,2.09c-.33,1.1-.46,2.26-.84,3.33-.71,2-1.33,4-2.18,6a12.67,12.67,0,0,0-1.25,3.19c-.07.44-.49.64-.59,1.13-.21.94-1,1.68-1.27,2.63a11.35,11.35,0,0,1-1.26,2.51c-.59,1-1,2.18-1.49,3.25s-1,1.79-1.5,2.7c-.59,1.08-1.15,2.18-1.76,3.25-1,1.82-2,3.67-3.23,5.4-.95,1.36-1.81,2.8-2.74,4.19a9.8,9.8,0,0,1-1.19,1.53c-1.49,1.54-2.5,3.5-4.24,4.72-.46,1.9-.82,3.73-1.36,5.53-.29,1-.37,2-.64,3-.58,2.18-.86,4.42-1.53,6.57-.18.6-.09,1.28-.31,1.9s-.15,1.11-.3,1.64a18.12,18.12,0,0,0-.53,3,13.48,13.48,0,0,1-.42,1.86,2.19,2.19,0,0,0-.09.5,16.62,16.62,0,0,1-.51,3.43c-.21,1-.18,2-.3,3a17.35,17.35,0,0,1-.49,3,4.62,4.62,0,0,0,0,.92,21.87,21.87,0,0,1-.31,3.63,16.72,16.72,0,0,0-.22,2.72,7.13,7.13,0,0,1-.22,2.19,5.54,5.54,0,0,0,.14,1.93.75.75,0,0,0-.17.41c0,1.85,0,3.7,0,5.85a30.6,30.6,0,0,0,2.09-2.84c1.05-1.87,2.06-3.76,2.94-5.71,1.7-3.73,3.45-7.44,5.33-11.09.7-1.36,1.39-2.73,2.15-4.06.37-.67.88-1.26,1.31-1.9,1.16-1.71,2.27-3.45,3.45-5.14s2.37-3.83,4.09-5.36a1.26,1.26,0,0,1,1.1.19,4.29,4.29,0,0,0,1.19.48l.82.82a5.74,5.74,0,0,1-.79,1.86c-1.54,2.71-3.28,5.31-4.75,8.07-1.1,2-2,4.14-3,6.23-.72,1.53-1.18,3.18-1.86,4.73s-1.06,3.13-1.81,4.62a35,35,0,0,0-1.36,3.57,64.5,64.5,0,0,1-2.78,6.58,30.47,30.47,0,0,1-3,4.78,6.42,6.42,0,0,1-3.6,2.42c-.09,0-.16.17-.23.26h-1.33a28.59,28.59,0,0,0-4-2.17,7.67,7.67,0,0,1-4-3.37,19,19,0,0,1-2.07-5.34,13.75,13.75,0,0,1-.58-4.74c-.52-2-.17-4-.27-6-.09-1.84.26-3.66.33-5.5,0-1.66.51-3.32.47-5,.39-.7.08-1.54.47-2.25a1.06,1.06,0,0,0,.06-.51,10.33,10.33,0,0,1,.5-3.3,19.27,19.27,0,0,0,.3-2.3c.15-.84.35-1.67.53-2.5l.78-3.47a3.68,3.68,0,0,0-.92.3,22.34,22.34,0,0,1-6.18,2.63,1.87,1.87,0,0,0-1.43,1.31,42,42,0,0,1-2,5.09c-.74,1.58-1.64,3.08-2.47,4.61a27,27,0,0,1-5.06,6.4,11.74,11.74,0,0,1-2.92,2.12c-.42.2-.83.43-1.24.65A3.94,3.94,0,0,1,704,718a3.74,3.74,0,0,0-.83-.86,16.71,16.71,0,0,1-3.25-4.35,20.55,20.55,0,0,1-1.84-5.51,15.9,15.9,0,0,1-.27-5.75c.2-1.3.07-2.67.7-3.9a1.66,1.66,0,0,0,.06-.76c.32-.89.51-1.55.8-2.16a22.57,22.57,0,0,1,1.43-2.71,4.14,4.14,0,0,1,1.13-.85l1.11.35a11.62,11.62,0,0,0,2,1.57,3.59,3.59,0,0,1,1.72,3.3,6.66,6.66,0,0,1-.24,3.1.61.61,0,0,0,0,.27c.09,2.5-.46,5-.28,7.49a5.14,5.14,0,0,1-.18,1c0,.43-.21,1,0,1.29a3.72,3.72,0,0,1,.22,1.67c.11.94.2,1.89.3,2.89l.44.76a12.51,12.51,0,0,0,3.64-1.57,17.83,17.83,0,0,0,2.89-2.16,33.64,33.64,0,0,0,4-5.67,34.24,34.24,0,0,0,2.26-4.83c-1.17-.37-2.33-.65-3.42-1.09a9.37,9.37,0,0,1-4.3-3.57,3.34,3.34,0,0,0-.37-.53,11.9,11.9,0,0,1-2.86-5.64,9.52,9.52,0,0,1,.78-5.59,8.31,8.31,0,0,1,2.62-3.3,10.63,10.63,0,0,1,3.23-1.81,4.32,4.32,0,0,1,.87-.17c.62,0,1.24,0,2.08,0,1,.74,2.26,1.55,3.4,2.46a5.17,5.17,0,0,1,1.94,3.27,2.76,2.76,0,0,0,.2.47,15.76,15.76,0,0,1,.64,2.33,20.89,20.89,0,0,1,.2,4.32c0,.94-.16,1.89-.24,2.84a6.79,6.79,0,0,0,0,.84,13.37,13.37,0,0,0,3.18-1.53c.84-.57,1.82-.95,2.7-1.47.66-.4,1.28-.88,1.91-1.32a3,3,0,0,0,1.12-2c.32-1.63,1-3.16,1.38-4.76.53-2.14,1.54-4.14,1.89-6.33,1.21-2.35,1.62-5,2.75-7.39.82-1.72,1.35-3.57,2-5.35.31-.83.66-1.66,1-2.47,1-2.33,2-4.71,3-7,.77-1.69,1.54-3.4,2.3-5.1,1.68-3.74,3.43-7.45,5.32-11.1.37-.72.79-1.41,1.18-2.13a53.38,53.38,0,0,1,2.72-4.6,22.87,22.87,0,0,1,2.9-4c.49-.48.84-1.12,1.35-1.58a11,11,0,0,1,3.62-2.36h2.11a13.2,13.2,0,0,1,3,2.79,5.32,5.32,0,0,1,.93,2.88A14.54,14.54,0,0,1,770.6,635.77Zm-48.69,51c-.15-1.7-.47-3.35-2.18-4.46l-2.27.35c-.76.84-1.53,1.58-2.17,2.41-1.69,2.22-2,4.81-1.86,7.49a3.06,3.06,0,0,0,.15.49,4.36,4.36,0,0,0,1.76,2.49,5,5,0,0,0,2.76.91c1,.06,1.94,0,3,0a6.81,6.81,0,0,1,.36-1.51c.33-.67,0-1.43.31-2s0-1.16.23-1.66a6.89,6.89,0,0,0,.25-1.78A11.15,11.15,0,0,0,721.91,686.73Zm45.9-58a9.84,9.84,0,0,0-2.18,2.13,46.27,46.27,0,0,0-3,5.06c-1.07,2.12-2,4.32-2.93,6.52-.71,1.68-1.33,3.39-2,5.08-.87,2.17-1.61,4.37-2.34,6.59-.4,1.2-.79,2.41-1.18,3.62-.83,2.57-1.65,5.15-2.49,7.73-.58,1.77-1.2,3.53-1.76,5.3a18.82,18.82,0,0,0-.38,2L752,668.9a5.83,5.83,0,0,0,1-1.64,5,5,0,0,1,1.16-2c.47-.64.65-1.38,1.06-2,.8-1.3,1.48-2.67,2.2-4a8.59,8.59,0,0,1,.53-1.28,29.76,29.76,0,0,0,2.42-4.65,5.26,5.26,0,0,1,1-1.8c.55-1.29,1-2.42,1.49-3.46a57.46,57.46,0,0,0,3.63-9.64,13.83,13.83,0,0,0,.59-2.34c.18-1.27.5-2.5.73-3.76A12.49,12.49,0,0,0,767.81,628.73Z"/><path d="M797,700.46a6.7,6.7,0,0,1-1.21,1.07c-1.22.81-2.32,1.8-3.53,2.64-1.54,1.07-3.1,2.16-4.74,3.08a13.64,13.64,0,0,1-3.1,1.12c-.9.26-1.83.39-2.66.56-.68.93-1.31,1.8-2,2.66a10.39,10.39,0,0,1-1,1.22,18.5,18.5,0,0,1-4.52,3.45c-1.43.71-2.27.8-4.38.4a4.88,4.88,0,0,1-3.36-2.37c-.67-1-1.35-2.09-2-3.14-.46-.72-.91-1.44-1.39-2.15a11.73,11.73,0,0,1-1.58-4.13,17.56,17.56,0,0,1-.18-5.11,10.67,10.67,0,0,1,1.57-5.21,15.15,15.15,0,0,1,1.65-1.83h.92l1.47,1.79c-.17-1-.29-1.78-.43-2.53,0-.12-.15-.23-.17-.34-.1-.91-.22-1.81-.26-2.71a13.9,13.9,0,0,1,0-2.66,16.5,16.5,0,0,1,.8-3.33,19.39,19.39,0,0,1,2.1-4.38c1.14-1.66,3.32-3.4,5.22-3.6,2.42-.26,4.8-.17,6.92,1.52a13.52,13.52,0,0,1,4.61,7.65,23.57,23.57,0,0,1,.82,5.48,15.85,15.85,0,0,1,.24,2.31c-.1.72-.19,1.45-.27,2.18s-.05,1.35-.2,2c-.21,1-.32,2-.59,3a19.56,19.56,0,0,1-1.26,4,4.55,4.55,0,0,0-.25.91c.11,0,.29.1.42,0a34.43,34.43,0,0,0,5.25-2.65c1.5-1,3.11-1.8,4.69-2.65a4.81,4.81,0,0,1,1-.32A3.05,3.05,0,0,1,797,700.46Zm-22.58,6a32.23,32.23,0,0,1-5.27-7.09c-.09.81-.06,1.6-.1,2.38s-.25,1.62-.24,2.43c0,1.12.14,2.24.26,3.36a3.73,3.73,0,0,0,.4.9A9.69,9.69,0,0,0,774.39,706.45Zm9.5-19.69c0-.59-.21-1.18-.23-1.78a9.58,9.58,0,0,0-1.35-4.76,4.62,4.62,0,0,0-3.66-2.38,7,7,0,0,0-6.75,3.3,13.29,13.29,0,0,0-1.63,3.72,14.19,14.19,0,0,0-.71,4.7,16.39,16.39,0,0,0,.22,3.11c.17.74.31,1.5.49,2.24a23.85,23.85,0,0,0,2.06,5,11.48,11.48,0,0,0,2.88,3.36A10.78,10.78,0,0,0,777,704.3c.76-1,1.48-1.82,2.12-2.74a29.18,29.18,0,0,0,3.4-6.44A26.68,26.68,0,0,0,783.89,686.76Z"/><path d="M881,699.2c-.25.69-.45,1.34-.73,1.95-.56,1.16-1.24,2.26-1.74,3.44-.89,2.12-1.87,4.2-2.76,6.32-.74,1.76-1.53,3.51-2.25,5.28s-1.41,3.65-2.21,5.43c-.6,1.32-1.35,2.58-2.05,3.85-.4.71-.87,1.37-1.27,2.08a15.82,15.82,0,0,1-3.16,3.66,3.42,3.42,0,0,1-2.24.82c-.53,0-1.07,0-1.7,0a12.46,12.46,0,0,1-2.29-1.87,9.25,9.25,0,0,0-2.19-2.37,5.34,5.34,0,0,1-1.53-2,17.72,17.72,0,0,1-1.91-5.53c-.23-1.31-.41-2.63-.57-4a16.59,16.59,0,0,1-.19-2.72c0-1,.2-2,.24-3s.38-2,.47-2.9a35.86,35.86,0,0,1,.86-4.27,51.4,51.4,0,0,1,2.16-6.78c.93-2.55,2.09-5,2.91-7.6.57-1.78,1.33-3.49,1.89-5.27a25.61,25.61,0,0,0,1.08-4.2c.13-.95.15-1.9.21-2.89a8.58,8.58,0,0,0-3.46-2.34c-1.67-.68-3.43-1-5.11-1.55-.6-.21-1.21-.39-1.9-.61a5.12,5.12,0,0,0-.62,1c-.61,1.62-1.18,3.26-1.77,4.9q-1.62,4.56-3.23,9.11a48.55,48.55,0,0,1-2.05,5.21c-1.22,2.45-2.36,4.94-3.63,7.37s-2.65,4.88-4,7.3c-.5.9-1.09,1.74-1.66,2.6-1.47,2.22-2.94,4.44-4.44,6.64a35.3,35.3,0,0,1-3.29,4.31c-.78.83-1.53,1.69-2.28,2.54a9.52,9.52,0,0,1-5,2.75,4.83,4.83,0,0,1-5.31-2.41,23.48,23.48,0,0,0-1.61-2.49,12.86,12.86,0,0,1-2.18-5.14,21.68,21.68,0,0,1-.53-5.06c-.78.84-1.48,1.6-2.2,2.34a11.29,11.29,0,0,1-4.9,2.71.58.58,0,0,1-.39,0c-1.25-.47-2.58-.59-3.47-1.94a45.78,45.78,0,0,1-3.19-5.72,14.75,14.75,0,0,1-1-3.8,26,26,0,0,1-.2-3.52,30,30,0,0,1,.48-4.22,18.62,18.62,0,0,1,1.13-4.58,17.33,17.33,0,0,1,2.1-4.64,5.55,5.55,0,0,1,1.81-1.95,7.88,7.88,0,0,1,.89-.27,20.82,20.82,0,0,0,2.07,2.28,14.39,14.39,0,0,1,1.88,2.25c0,.53,0,1.06,0,1.59a14.69,14.69,0,0,1-.66,4.32c-.69,2.93-1.67,5.78-2.3,8.73-.28,1.32-.73,2.61-1.12,3.91-.21.67-.06,1.3-.21,2l.56,1a2.25,2.25,0,0,0,.4.09,7.28,7.28,0,0,0,5.8-2.37,20.6,20.6,0,0,0,2.44-2.58,4.65,4.65,0,0,0,.88-2.23,43.31,43.31,0,0,1,1.61-6.56c.56-2,1.32-3.93,2-5.89a16.66,16.66,0,0,1,.89-2,9,9,0,0,1,.76-1.08,8.08,8.08,0,0,1,3.28,3.38,5,5,0,0,1,.53,2.09,30.85,30.85,0,0,1,0,3.85,20.27,20.27,0,0,1-.44,3.18c-.16.6-.19,1.26-.3,1.9a50,50,0,0,1-1,5.27c-.16.6-.19,1.26-.3,1.9-.27,1.64-.57,3.29-.77,4.94a41,41,0,0,0,0,4.84,3.24,3.24,0,0,0,2.44-.35,12,12,0,0,0,4.07-2.71c.45-.46,1-.78,1.48-1.26.94-1,1.82-2.1,2.69-3.18,1-1.24,2-2.48,3-3.78,1.07-1.49,2.11-3,3.09-4.58,1.33-2.1,2.6-4.23,3.87-6.37.59-1,1.14-2,1.68-3,.63-1.21,1.24-2.43,1.82-3.66a82.29,82.29,0,0,0,3.29-8c.93-2.72,2-5.4,3-8.1.24-.64.45-1.28.68-1.92.14-.4.29-.8.51-1.4v-.83a10.61,10.61,0,0,1-3.18-2.7,7,7,0,0,1-.92-1.69c-.53-1.11-1-2.25-1.54-3.37a8.75,8.75,0,0,1-1-3.68c0-.46-.2-.92-.24-1.38a19.34,19.34,0,0,1,1-5.13,16.29,16.29,0,0,1,2.14-3.93,11.65,11.65,0,0,1,5.91-4.45,3.87,3.87,0,0,1,3.18.2,10.5,10.5,0,0,1,1.79,1.74c.15.14.19.41.35.53,1.07.76,1.3,2,1.71,3.1a1.36,1.36,0,0,1,.07.77c-.45,1.9-.66,3.85-1.29,5.72-.51,1.52-.81,3.11-1.35,4.63-.48,1.36-.89,2.75-1.41,4.08-.22.55-.11,1.22-.69,1.64-.13.09,0,.5,0,.74,1,.39,1.83.82,2.75,1.12a25.53,25.53,0,0,1,5.34,2.77,3,3,0,0,1,.58.54,31.72,31.72,0,0,1,3.23,4.07,6.72,6.72,0,0,1,.83,2.4,16.78,16.78,0,0,1,.51,5.81c-.15,1.17-.07,2.36-.26,3.5-.27,1.6-.38,3.24-.79,4.81-.48,1.85-.81,3.73-1.23,5.59-.56,2.41-1.26,4.76-1.84,7.14-.38,1.52-.7,3.08-.94,4.65s-.36,3-.71,4.55a20.33,20.33,0,0,0-.3,3.5c0,.71,0,1.42,0,2.13a8.89,8.89,0,0,0,.23,2.45c.21.73-.1,1.55.28,2.31.12.24,0,.59,0,1a5.77,5.77,0,0,0,1-.4,19,19,0,0,0,4.14-3.47c2.48-2.89,4-6.3,5.72-9.61,1-1.93,1.87-3.94,2.79-5.91.49-1,.94-2.11,1.49-3.12.9-1.65,1.86-3.27,2.8-4.89a5.17,5.17,0,0,1,.58-.69ZM852.4,659.68a43.9,43.9,0,0,0,1.85-8.29,10.71,10.71,0,0,0-1.16,1.27,43.7,43.7,0,0,0-4.24,7.59,9.15,9.15,0,0,0-.86,4.52l2.13,1.47c.22-.27.44-.42.47-.61C851,663.58,851.85,661.68,852.4,659.68Z"/><path d="M912.56,701a8.05,8.05,0,0,1-3.16,1.85,40.92,40.92,0,0,0-4.15,1.61c-1,.58-2.06,1.22-3.16,1.89,0,.25,0,.51,0,.76a47.79,47.79,0,0,1-.31,5.09c-.25,1.64-.51,3.28-.92,4.89-.31,1.23-.61,2.48-.92,3.71a22.33,22.33,0,0,1-1.21,3.35c-.71,1.64-1.44,3.29-2.28,4.87a11.35,11.35,0,0,1-1.6,2.49c-.43.47-.65,1.1-1.06,1.61a31.43,31.43,0,0,1-3.26,3.74,20.39,20.39,0,0,1-8.08,4.9,10.44,10.44,0,0,1-9.56-1.59,8.55,8.55,0,0,1-2.42-3.62c-.29-.66-.55-1.34-.79-2a6.64,6.64,0,0,1-.55-2.49c0-.62,0-1.24,0-1.86a8.24,8.24,0,0,1,.26-1.64,10.19,10.19,0,0,1,.6-1.68A17.4,17.4,0,0,1,873.2,722a45.55,45.55,0,0,1,6.93-5.68c1.48-1,3-2.06,4.47-3,1.68-1.11,3.41-2.13,5.18-3.09,2-1.07,3.85-2.24,5.79-3.33,1.27-.7,2.58-1.34,3.9-2a9.87,9.87,0,0,0-1.92-5.67,19.63,19.63,0,0,0-2.32-2.5,9.07,9.07,0,0,0-4.1-2,14.34,14.34,0,0,0-3-.67,17.64,17.64,0,0,1-2.11-.45c-1-.14-2-.15-3-.28a4.21,4.21,0,0,1-4.89-5c0-.82-.22-1.63-.25-2.45a6.32,6.32,0,0,1,1.7-4.46,27.5,27.5,0,0,1,7.51-5.72c5-2.72,10.08-5.12,15.12-7.66a2.77,2.77,0,0,0,.31-.21h2a8,8,0,0,1,.94,4.1,15.27,15.27,0,0,1-3.95,4.54,16.77,16.77,0,0,0-2,1.7,48.54,48.54,0,0,1-5.58,4.21c-1.77,1.21-3.57,2.37-5.37,3.53-.72.47-1.48.87-2.21,1.32a5.48,5.48,0,0,0-.66.58c1.55.45,3,.84,4.39,1.28a17.49,17.49,0,0,1,5.06,2.42,12.78,12.78,0,0,1,3.14,3.33,23.51,23.51,0,0,1,2.12,4.37c.46,1.17.79,2.41,1.21,3.7a2.79,2.79,0,0,0,.69-.17c2.42-1.16,4.84-2.35,7.27-3.51.54-.25,1.11-.42,1.71-.64.15.11.35.18.4.32C912.05,699.51,912.3,700.23,912.56,701Zm-13.35,7.14c-1.27.79-2.35,1.48-3.45,2.15-1.42.86-2.93,1.6-4.29,2.55-2.07,1.46-4.29,2.7-6.25,4.32-1.44,1.17-3,2.24-4.4,3.39-.76.59-1.42,1.3-2.19,1.87a20.14,20.14,0,0,0-4.43,4.6,12.13,12.13,0,0,0-2,4.67,7.25,7.25,0,0,0,.52,4.51,19.27,19.27,0,0,0,2,.84,10.44,10.44,0,0,0,2,.35,4.48,4.48,0,0,0,1-.08,9.19,9.19,0,0,1,1-.16,5.9,5.9,0,0,0,2.23-.55c.86-.37,1.69-.78,2.53-1.21a20.88,20.88,0,0,0,4.28-3,24.55,24.55,0,0,0,1.89-1.93c.61-.66,1.12-1.41,1.69-2.12a38.21,38.21,0,0,0,2.9-4.67c.68-1.18,1.1-2.5,1.84-3.65a12,12,0,0,1,1.08-3.25c.3-.88.58-1.78.8-2.68.27-1.07.48-2.16.68-3.24C898.93,709.92,899.05,709.08,899.21,708.09Z"/><path d="M786.42,766.83c-.14.18-.28.38-.45.56-.54.59-1.11,1.16-1.63,1.76s-.92,1.2-1.44,1.74a22.18,22.18,0,0,0-1.55,1.93c-.73.92-1.47,1.83-2.12,2.82-.52.8-1.14,1.55-1.73,2.31s-1,1.31-1.51,1.95a6,6,0,0,1-1.26,1,1.59,1.59,0,0,1-.88.33s-.07.07-.1.1h-.55a4.71,4.71,0,0,1-.62-.35c-.46-.33-.91-.68-1.36-1a4.17,4.17,0,0,1-.47-.36,4.25,4.25,0,0,1-1.07-1.82,15.64,15.64,0,0,1-.35-1.54,10,10,0,0,1-.08-1.73,9.29,9.29,0,0,1,0-1.75c.1-.61.14-1.23.29-1.84.1-.44.17-.9.24-1.35a9.71,9.71,0,0,1,.26-1.19,4.35,4.35,0,0,0,.1-.52c.22-1,.53-1.92.75-2.9.18-.73.44-1.44.68-2.15q.75-2.31,1.51-4.59c.22-.65.51-1.28.69-1.93s.55-1.41.77-2.13.47-1.25.71-1.87.53-1.41.8-2.12c.21-.54.42-1.08.62-1.62.31-.8.62-1.6.92-2.41s.69-1.87,1-2.82c.23-.64.43-1.29.62-1.95s.35-1.29.51-1.93c.1-.43.16-.87.27-1.29a12.46,12.46,0,0,1,.31-1.5.44.44,0,0,0,0-.16c0-.76.18-1.51.11-2.28a1.09,1.09,0,0,1,.26-.8,3,3,0,0,1,.94,1.52c.13.47.2,1,.34,1.44v0a17.84,17.84,0,0,1,.09,2.06c-.05.55,0,1.11-.11,1.67s-.13,1.24-.22,1.85a10.16,10.16,0,0,1-.3,1.72,7.24,7.24,0,0,0-.13.95c-.07.45-.17.9-.25,1.35-.11.63-.32,1.23-.41,1.86a6,6,0,0,1-.26,1c-.25.7-.35,1.43-.6,2.13-.19.51-.3,1-.45,1.56-.26.9-.5,1.79-.78,2.68-.23.73-.44,1.48-.67,2.21s-.36,1.21-.53,1.82c-.33,1.12-.75,2.22-1,3.37-.15.67-.4,1.31-.59,2-.25.9-.47,1.8-.72,2.7-.22.74-.4,1.49-.59,2.23a17.08,17.08,0,0,0-.4,1.75,7.24,7.24,0,0,1-.22.92c-.16.51-.2,1-.34,1.55a12.3,12.3,0,0,1-.31,1.49.13.13,0,0,0,0,.06c0,.5-.07,1-.11,1.5s-.09.75-.1,1.12a4.19,4.19,0,0,0,.1.7,12.43,12.43,0,0,0,1-.83c.62-.62,1.23-1.24,1.79-1.91s1.24-1.5,1.9-2.22c.43-.47.85-1,1.26-1.47.53-.67,1.13-1.27,1.67-1.92a37.88,37.88,0,0,1,2.88-3.06c.48-.46,1-.86,1.54-1.27a7,7,0,0,0,.8.38C786.23,766.4,786.28,766.6,786.42,766.83Z" style="fill:#1d1d1b"/><path d="M792.62,766.48V767a8,8,0,0,0-1.11,1.49,13.64,13.64,0,0,1-1,1.56c-.14.15-.16.4-.28.57a10,10,0,0,1-1.48,1.71,2.06,2.06,0,0,1-.33.2h-.81a1.78,1.78,0,0,1-.87-.84,1.46,1.46,0,0,0-.31-.49,2.31,2.31,0,0,1-.67-1.3,5.67,5.67,0,0,1-.23-2c0-.29,0-.58,0-.87,0-.52.16-1,.19-1.53a12.76,12.76,0,0,1,.38-1.65,10.15,10.15,0,0,1,.59-1.68c.19-.48.42-.93.63-1.4a2.25,2.25,0,0,1,.7-.9.9.9,0,0,1,.81.39,9.16,9.16,0,0,0,.84.81,1.79,1.79,0,0,1,.59,1.44,12.91,12.91,0,0,1-.36,2.47c-.11.57-.27,1.12-.41,1.68,0,.07,0,.15,0,.21-.32,1-.64,1.89-1,2.83a3.21,3.21,0,0,1-.23.45c.17,0,.22-.09.27-.15a7.28,7.28,0,0,0,1.46-1.67.58.58,0,0,1,.16-.15A6.69,6.69,0,0,0,791,767a6,6,0,0,1,1-1Zm-3.82-10.21c0-.27.09-.53.15-.91l.32-.42c.52,0,.7.37.93.65a3.29,3.29,0,0,1,.44.83.59.59,0,0,1-.15.59,2.82,2.82,0,0,1-.28.36A1.58,1.58,0,0,1,788.8,756.27Z" style="fill:#1d1d1b"/><path d="M827.83,766.87c-.17.55-.33,1-.49,1.55s-.4,1.2-.58,1.8-.28,1.24-.51,1.82c-.33.84-.43,1.74-.74,2.58s-.48,1.65-.8,2.45-.54,1.67-.91,2.47-.73,1.57-1.17,2.32a8.3,8.3,0,0,1-1.69,2.09,2.13,2.13,0,0,1-1,.44,1.22,1.22,0,0,1-.9-.27,1.73,1.73,0,0,1-.54-.48,5.74,5.74,0,0,0-.84-.87,3.36,3.36,0,0,1-.73-1,6.9,6.9,0,0,1-.46-1.67c-.06-.51-.08-1-.09-1.51a4.8,4.8,0,0,1,.1-1.13c.08-.34-.07-.72.12-1.06a10.58,10.58,0,0,1,.31-1.77,14.69,14.69,0,0,1,.34-1.6c.17-.63.29-1.27.46-1.9.27-1,.57-2,.87-3a15.56,15.56,0,0,0,.5-1.6c.14-.73.39-1.42.59-2.13.08-.32.05-.68.13-1A9.88,9.88,0,0,1,820,762a.85.85,0,0,0,0-.59,2.48,2.48,0,0,1-.11-.73l-.43-.36a3,3,0,0,0-.51-.1,2.38,2.38,0,0,0-1,.16,8.76,8.76,0,0,0-1.94,1.08,7,7,0,0,0-1.39,1.49,8.31,8.31,0,0,0-.66.9,5.11,5.11,0,0,0-.48,1.51c-.14.52-.26,1-.4,1.58s-.25,1.17-.38,1.75a2,2,0,0,1-.11.35c-.25.71-.34,1.47-.65,2.16-.15.34-.3.68-.44,1-.24.57-.36,1.18-.56,1.76l-.33,1a7.66,7.66,0,0,0-.34,1.27.76.76,0,0,1-.4.67c-.6,0-.81-.48-1.12-.85-.06-.07-.09-.16-.15-.22a2.2,2.2,0,0,1-.62-1.65c0-.27,0-.55,0-.82a4.13,4.13,0,0,1,.19-1.21.45.45,0,0,0,0-.16,10.83,10.83,0,0,1,.12-1.5c0-.21.08-.42.1-.63a1.54,1.54,0,0,1,.1-.63c.08-.14,0-.36,0-.54a7.89,7.89,0,0,1,.31-2.05c.06-.24,0-.51.13-.73a8.22,8.22,0,0,1,.34-1.71c.08-.51.21-1,.33-1.5a4.28,4.28,0,0,0,.16-.85l-.24.23c-.71.68-1.42,1.36-2.14,2a13.67,13.67,0,0,1-1.06.94,19.06,19.06,0,0,0-1.47,1.37c-.4.37-.82.72-1.16,1,0,.42.07.74.07,1.06,0,.58,0,1.17,0,1.76a12.31,12.31,0,0,1-.14,2.27,6.85,6.85,0,0,1-.29,1.83,4.09,4.09,0,0,0-.12,1c0,.2-.08.39-.11.58-.18,1-.45,1.95-.67,2.92a5.68,5.68,0,0,1-.39,1c-.21.47-.36,1-.57,1.42-.12.25-.27.5-.4.74-.35.59-.76,1.16-1.15,1.73a7.63,7.63,0,0,1-1.85,2,11.57,11.57,0,0,1-1.06.82,10.75,10.75,0,0,1-1.8.89,8.45,8.45,0,0,1-1.52.24c-.06,0-.11.07-.16.11h-.33s-.1-.1-.15-.11a4.31,4.31,0,0,1-1.73-.45,2.07,2.07,0,0,1-.56-.41,4.11,4.11,0,0,1-1.2-1.51,2.57,2.57,0,0,1-.66-1,3.1,3.1,0,0,1-.43-1.4v-.66a5.63,5.63,0,0,1,.1-.91,3.78,3.78,0,0,1,.23-.86,19.91,19.91,0,0,1,.83-1.82,17.3,17.3,0,0,1,1.17-1.6,11.7,11.7,0,0,1,1.59-1.78c.52-.49,1.13-.91,1.6-1.44a20.53,20.53,0,0,1,1.57-1.39c.73-.65,1.52-1.24,2.28-1.87.35-.28.67-.6,1-.9l1.79-1.46c.19-.17.36-.37.55-.56a6.37,6.37,0,0,1,.23-1.12.73.73,0,0,0,0-.33c-.07-.78.12-1.55.1-2.33,0-.35,0-.71-.07-1l-.54-.54c-.25.06-.49.11-.72.19a3.29,3.29,0,0,0-1.19,1c-.09.11-.16.24-.26.34a14.49,14.49,0,0,0-1.35,1.67c-.3.42-.65.82-1,1.21s-.57.66-.87,1a2.33,2.33,0,0,1-1,.78H794c-.3-.2-.68-.32-.83-.7a3.37,3.37,0,0,1-.33-.88,5.18,5.18,0,0,0-.35-1.16,10.52,10.52,0,0,1-.34-1.22,5.74,5.74,0,0,1,.39-3.39,7.72,7.72,0,0,1,1.05-2,6.89,6.89,0,0,1,1-1.35,5.94,5.94,0,0,1,2.69-1.42,2.3,2.3,0,0,1,1.57.41,3.46,3.46,0,0,1,1.32,1.51A9.4,9.4,0,0,1,801,760c.06.24.13.48.21.76a7.27,7.27,0,0,1,1.56,2.23,20.41,20.41,0,0,1,.75,2.66c.69-.61,1.33-1.23,2-1.78a14.39,14.39,0,0,0,1.08-1c.65-.61,1.26-1.26,2-1.82s1.32-1.31,2-1.91c.32-1,.61-2,.94-3,.27-.83.55-1.66.82-2.49s.57-1.7.86-2.54.73-1.94,1.06-2.92c.24-.71.54-1.41.82-2.11l.6-1.57c.13-.33.26-.65.4-1,.22-.52.44-1,.67-1.55.39-.87.75-1.75,1.19-2.6a13.78,13.78,0,0,1,1.39-2.2,8.67,8.67,0,0,1,1.2-1.15,1.48,1.48,0,0,1,1.18-.4h.3c.18.19.46.36.54.59.14.39.51.64.56,1.07a4.74,4.74,0,0,1,.16,1,7.48,7.48,0,0,0,0,.82,6.31,6.31,0,0,1-.25,1.74c-.15.56-.23,1.14-.41,1.69-.08.23-.14.47-.22.7-.27.8-.51,1.61-.83,2.38s-.68,1.52-1.05,2.26c-.25.49-.56.95-.85,1.42-.16.27-.33.54-.48.82-.39.72-1,1.31-1.31,2.06-.46.44-.71,1-1.13,1.5a3.25,3.25,0,0,0-.87,1.38c-.19.84-.51,1.64-.64,2.5a12.81,12.81,0,0,1-.37,1.48c-.1.43-.21.85-.34,1.39a8.84,8.84,0,0,1,3.93-2.13,1,1,0,0,0,.27.09,2,2,0,0,1,1.59.93,2.49,2.49,0,0,0,.42.44,4.17,4.17,0,0,1,1.08,1.93,2.31,2.31,0,0,1,.25,1.13c.15.15.09.34.11.52s-.06.43.1.63a.36.36,0,0,1,0,.27,4.5,4.5,0,0,0-.1,1.51,5,5,0,0,1-.22,1.63.81.81,0,0,0,0,.22,13.66,13.66,0,0,1-.37,2.2c-.05.28-.13.55-.18.82a10.33,10.33,0,0,1-.42,1.91,4.45,4.45,0,0,0-.13.89,4.38,4.38,0,0,1-.12.63,8.8,8.8,0,0,0-.41,1.74,17.78,17.78,0,0,1-.45,2.17c-.07.25,0,.54-.12.79a17.72,17.72,0,0,0-.22,2.63,1.23,1.23,0,0,1,0,.23l.44-.41.39-.39c.14-.14.29-.28.42-.43s.18-.31.28-.45.29-.37.41-.57a21.3,21.3,0,0,0,1-1.95c.29-.65.59-1.31.85-2,.18-.44.3-.89.45-1.35.07-.24.2-.47.28-.72.14-.43.31-.86.42-1.3a5.39,5.39,0,0,1,.41-1.25c.26-.49.31-1,.53-1.54s.42-1.12.64-1.67c.07-.2.17-.39.24-.59a1.24,1.24,0,0,1,.57-.82Zm-27.05,3-1,.8-1.21,1-.66.55c-.09.08-.17.19-.27.27l-1.91,1.58-.62.51a21.43,21.43,0,0,0-2.46,2.46,2.33,2.33,0,0,0-.26.28q-.6.84-1.17,1.71a6.13,6.13,0,0,0-.79,1.55,5.93,5.93,0,0,0-.38,2.68,3,3,0,0,0,.44,1.36,4.23,4.23,0,0,0,.68.12,3.76,3.76,0,0,0,.73-.14,5.73,5.73,0,0,0,1.89-.92,9,9,0,0,0,1.6-1.36c.35-.39.71-.77,1.06-1.17a6.82,6.82,0,0,0,.63-.79,16.12,16.12,0,0,0,1.32-2.41c.21-.47.39-.95.56-1.43s.32-1.07.53-1.59a7.43,7.43,0,0,0,.44-1.56c.13-.73.41-1.42.52-2.15C800.56,770.77,800.68,770.35,800.78,769.86Zm-.69-9.15c.06-.6-.42-.83-.72-1.16h-.69a2.64,2.64,0,0,0-1.08.79,5.45,5.45,0,0,0-1,1.19c-.36.6-.68,1.23-1,1.87-.18.37-.31.77-.5,1.25.2-.07.33-.07.41-.14.63-.5,1.27-1,1.86-1.53s1.1-1.08,1.64-1.62A2.31,2.31,0,0,1,800.09,760.71Zm16.77-9.08H817c.44-.7.86-1.42,1.34-2.09A25.92,25.92,0,0,0,820,746.6a13.47,13.47,0,0,0,.76-1.74,13,13,0,0,0,.55-1.59c.24-.93.53-1.85.71-2.8a10,10,0,0,0,.3-2.1,5.5,5.5,0,0,0,0-.91h-.09a5.94,5.94,0,0,0-1.84,2.4c-.13.29-.28.57-.39.87s-.27.68-.4,1c-.27.7-.46,1.43-.71,2.14a11,11,0,0,1-.71,2.31s0,.07,0,.11a16.66,16.66,0,0,1-.57,2.29,5.31,5.31,0,0,0-.19.65,10.68,10.68,0,0,1-.53,2.09A.68.68,0,0,0,816.86,751.63Z" style="fill:#1d1d1b"/><path d="M857.71,743.48a5.27,5.27,0,0,1-.61.23c-.38.09-.76.15-1.14.23-.78.16-1.57.22-2.35.41a11.77,11.77,0,0,1-1.54.34,17.12,17.12,0,0,0-2.48.55c-.29.07-.59,0-.9.11-.51.18-1.05.28-1.58.41-.05,0-.1,0-.15,0a10.26,10.26,0,0,0-2.26.5,5.4,5.4,0,0,1-.78.16,5,5,0,0,0-.93.2,8.88,8.88,0,0,1-1.7.37,4.59,4.59,0,0,0-.81.21c-.7.18-1.4.37-2.11.48a14.22,14.22,0,0,0-1.63.44c-.2.47-.42.94-.61,1.44s-.47,1.28-.71,1.92l-.67,1.77c-.29.79-.58,1.58-.85,2.38-.19.57-.41,1.12-.6,1.68-.26.76-.42,1.57-.71,2.31-.39,1-.59,2.06-.94,3.07-.24.69-.37,1.42-.59,2.13s-.35,1.43-.53,2.14c-.11.47-.25.92-.36,1.38s-.16.9-.3,1.34a12.38,12.38,0,0,0-.26,1.24c-.06.31-.12.62-.19.93a12.4,12.4,0,0,1-.29,1.45c-.11.3,0,.63-.13.95a10.19,10.19,0,0,0-.13,1.11,8.15,8.15,0,0,0-.22,2c-.2.38,0,.82-.21,1.2a.9.9,0,0,0,0,.33c0,.44,0,.88,0,1.32s-.09,1-.1,1.45c0,.33.07.67.1,1a6.35,6.35,0,0,0,.09,1,8.9,8.9,0,0,0,.14,1,4.06,4.06,0,0,0,.58,1.29,2.75,2.75,0,0,0,1.37-.79,10.1,10.1,0,0,0,.77-.68c.57-.65,1.13-1.3,1.65-2a22.33,22.33,0,0,0,1.34-2,6.43,6.43,0,0,0,.79-1.31c.5-.49.68-1.2,1.14-1.73a10.93,10.93,0,0,0,.61-1c.2-.32.46-.59.63-.92s.45-.61.61-.93c.28-.56.73-1,1-1.54s.67-1,1-1.5c.16-.22.31-.44.47-.65.46-.59.87-1.23,1.31-1.84a7.68,7.68,0,0,1,.5-.63c.32-.37.66-.73,1-1.09s.49-.58.75-.86a2.16,2.16,0,0,1,.51-.39.56.56,0,0,1,.4,0,4.41,4.41,0,0,1,.58.44v.32a1.25,1.25,0,0,0-.09.12l-.24.23a14.45,14.45,0,0,0-1.68,1.91c-.4.52-.79,1.06-1.16,1.6-.49.7-1,1.41-1.44,2.12-.35.52-.68,1.07-1,1.61s-.76,1.16-1.14,1.74c-.25.38-.47.79-.7,1.18s-.52.85-.77,1.28-.52,1-.78,1.42a7.4,7.4,0,0,1-.49.82c-.48.67-.81,1.41-1.26,2.09s-.88,1.29-1.32,1.94a7.68,7.68,0,0,1-1.23,1.44,12.53,12.53,0,0,1-1.14.9,2.55,2.55,0,0,1-1.5.35.62.62,0,0,0-.12-.08,5.72,5.72,0,0,1-1.48-.94,4.61,4.61,0,0,1-1.56-2.41,10.74,10.74,0,0,1-.47-2.11c0-.34,0-.69-.1-1a10.52,10.52,0,0,1-.09-2.17c0-.73,0-1.47,0-2.2,0-.28.08-.56.1-.85a7.48,7.48,0,0,1,0-.82c.12-.6.14-1.2.22-1.8s.11-1.25.24-1.85a10.32,10.32,0,0,1,.29-1.34c.08-.26,0-.56.11-.85a10,10,0,0,0,.27-1.23c.1-.5.19-1,.29-1.51,0-.24.11-.48.17-.71.16-.61.33-1.22.49-1.83l.33-1.17c.19-.65.35-1.32.55-2,.32-1,.66-2.07,1-3.11.25-.78.46-1.59.78-2.34.51-1.16.83-2.39,1.34-3.55.31-.68.55-1.4.85-2.1.08-.19.14-.39.24-.66-.85.24-1.61.51-2.4.66s-1.73.46-2.61.63c-.54.1-1.06.27-1.59.38a6.87,6.87,0,0,0-.81.22c-.45.16-.93.16-1.4.3a12.76,12.76,0,0,1-1.41.41c-.34.06-.69.12-1,.21s-.94.3-1.42.41c-.87.21-1.72.49-2.57.76a20.47,20.47,0,0,0-2.73.94,5.72,5.72,0,0,1-1,.27L814,754v-.86a1.49,1.49,0,0,1,.74-.56l1.56-.67a1.45,1.45,0,0,1,.3-.06,1,1,0,0,0,.26-.06,24,24,0,0,1,2.71-1,15.07,15.07,0,0,1,1.64-.56,34.79,34.79,0,0,1,3.49-1,4.9,4.9,0,0,0,.88-.32,11.24,11.24,0,0,1,1.68-.44l.36-.11a17.83,17.83,0,0,1,1.78-.45c.64-.14,1.26-.33,1.88-.5l.84-.21v-.5c.33-.3.43-.28.57.08a2.4,2.4,0,0,0,.16.27l1.16-.28c.34-.21.34-.67.54-1s.29-.8.46-1.18c.55-1.18,1.12-2.36,1.67-3.55.24-.52.46-1.06.7-1.59.14-.29.33-.55.47-.83.3-.62.58-1.26.89-1.87.82-1.63,1.64-3.26,2.49-4.88.42-.79.92-1.55,1.33-2.35a12.18,12.18,0,0,1,1.12-1.87l.38-.51c.35.1.31.45.5.62a3.89,3.89,0,0,1-.22,1.48,35.73,35.73,0,0,1-1.28,3.45c-.41,1-.71,2-1.18,2.88-.32.63-.55,1.29-.83,1.93a17.85,17.85,0,0,0-1,2.44,4.63,4.63,0,0,1-.36.82c-.53,1-.86,2.16-1.34,3.21-.25.55-.47,1.11-.66,1.67,0,.08,0,.17-.07.29a2.34,2.34,0,0,0,.89-.14,11,11,0,0,1,1.81-.39c.39-.05.78-.18,1.17-.27a10.71,10.71,0,0,1,1.87-.39,5,5,0,0,0,1.07-.25,9.81,9.81,0,0,1,1.51-.29l.46-.11a14,14,0,0,0,1.58-.39.85.85,0,0,1,.26,0,8.86,8.86,0,0,0,1.62-.28,8.19,8.19,0,0,1,1.57-.28,2.64,2.64,0,0,0,.73-.11,16.81,16.81,0,0,1,1.88-.34,6.29,6.29,0,0,0,1.6-.31h.06l1.8-.14C857.59,742.61,857.64,743,857.71,743.48Z" style="fill:#1d1d1b"/><path d="M874.14,766.26a2.84,2.84,0,0,1-.41.79,21.82,21.82,0,0,0-1.85,2.73c-.52,1-1,2-1.49,2.94a10.61,10.61,0,0,1-1.55,2.42c-.17.2-.36.38-.53.57a4,4,0,0,1-.63.47,1.39,1.39,0,0,1-.83.31s-.06.07-.09.1h-.44c-.2-.1-.39-.22-.59-.3-.35-.15-.51-.49-.74-.75a13.25,13.25,0,0,1-1-1.18,7.43,7.43,0,0,1-1-2.63,15.1,15.1,0,0,1-.09-2c0-.19,0-.39,0-.69a2.41,2.41,0,0,1-1.17.53l-.8-.27a3.47,3.47,0,0,1-1-1.49,3.32,3.32,0,0,0-.31-.49,5.9,5.9,0,0,1-1-2,4.23,4.23,0,0,1-.19-1c0-.35,0-.7,0-1a3.78,3.78,0,0,1,.16-1.06c.1-.55.26-1.09.39-1.63a17.34,17.34,0,0,1,.72-2.25,9.49,9.49,0,0,1,.82-1.66l.4-.58.45-.13c.14.12.31.26.47.42s.29.58.64.68a2.4,2.4,0,0,1,.68,1.47c0,.49,0,1,0,1.48,0,.28-.07.56-.1.85s.06.54-.11.79c0,0,0,.07,0,.11a14.92,14.92,0,0,1-.12,1.5c-.12.57-.13,1.16-.29,1.72a9.57,9.57,0,0,0-.15,1.28,4.5,4.5,0,0,0,1.54-.93l.2-.2a3.63,3.63,0,0,0,.85-1.16,11.21,11.21,0,0,1,1.41-2.19L867,761c.51,0,.69.47,1,.65a2,2,0,0,1,.7.88c0,.4,0,.82,0,1.24a11.05,11.05,0,0,1-.28,1.89l-.36,1.48c-.19.83-.49,1.61-.71,2.43-.16.57-.36,1.14-.55,1.7s-.32.92-.5,1.38a4.3,4.3,0,0,0-.21,2.08,1.45,1.45,0,0,0,1.26-.44,8,8,0,0,0,1.78-2.23c.39-.73.74-1.49,1.14-2.21.53-.92,1.09-1.83,1.64-2.73a1.65,1.65,0,0,1,.34-.36l1.16-1A1.27,1.27,0,0,1,874.14,766.26Z" style="fill:#1d1d1b"/><path d="M892.14,766.56c.05.24-.12.38-.3.46a6.73,6.73,0,0,1-1.37.68,2.07,2.07,0,0,0-.55.32c-.81.46-1.62.93-2.46,1.34a4.13,4.13,0,0,0-.59.37.7.7,0,0,0-.24.4,17.86,17.86,0,0,1-1.28,3.11c-.34.63-.76,1.2-1.14,1.8a4.51,4.51,0,0,1-1.71,1.33h-.92c-.73-.15-1-.7-1.41-1.17-.09-.11-.16-.24-.26-.34a1,1,0,0,1-.3-.67c0-.3-.1-.59-.13-.82s.2-.46.31-.72.27-.37.44-.58a4.77,4.77,0,0,1,1-.86c.51-.36,1-.7,1.54-1.05l.71-.5a22.18,22.18,0,0,0,.94-2.55,7.34,7.34,0,0,0,.31-2.84.88.88,0,0,0-.51-.54h-.48a2.63,2.63,0,0,1-.3.14,2.86,2.86,0,0,0-1.13.68c-.33.33-.76.56-1.08.89A15.68,15.68,0,0,0,880,767a14.63,14.63,0,0,0-.9,1.32c-.2.33-.46.64-.62,1a18,18,0,0,0-1.17,2.42,8.69,8.69,0,0,1-.56,1.25c-.34.68-.58,1.4-.87,2.09a15.92,15.92,0,0,1-.68,1.78,1.47,1.47,0,0,0-.08.25l-.87,2.64-.21.58a4.58,4.58,0,0,1-.34,1.17c-.23.79-.43,1.59-.67,2.38-.29.94-.53,1.89-.77,2.85,0,.08-.08.15-.1.24a17.86,17.86,0,0,1-.64,2.16,16.75,16.75,0,0,1-.46,2,1.49,1.49,0,0,1-.49.91c-.52.07-.76-.31-1-.61-.1-.1-.15-.24-.25-.34a3.16,3.16,0,0,1-.79-1c0-.83-.1-1.67-.06-2.49a13.08,13.08,0,0,1,.2-2.08,11,11,0,0,0,.12-1.29c0-.14.06-.28.08-.41a3.7,3.7,0,0,0,.15-.95,1.91,1.91,0,0,1,.1-.62c.15-.53.19-1.09.35-1.6s.19-1.07.4-1.58a13.56,13.56,0,0,0,.35-1.43c.2-.69.43-1.37.64-2.06a2,2,0,0,0,0-.43h0a12.26,12.26,0,0,0,.44-1.29c.1-.45.3-.86.44-1.3.2-.61.44-1.21.62-1.84.15-.47.39-.9.53-1.37s.35-.89.5-1.33c.29-.81.62-1.61.93-2.41q.17-.39.3-.78a12.57,12.57,0,0,1,.66-1.56c.3-.6.48-1.25.78-1.84s.59-1.28.87-1.92c.4-.91.89-1.77,1.3-2.68a.64.64,0,0,1,.51-.46,3.44,3.44,0,0,1,1.08,1.37,6.43,6.43,0,0,1-.42,2.34,10.79,10.79,0,0,1-.34,1.27,5.89,5.89,0,0,0-.23.61v.31c-.47,1.16-.81,2.36-1.22,3.53s-.79,2.4-1.17,3.6-.83,2.34-1.1,3.55c.15-.3.42-.53.42-.9a.56.56,0,0,1,.08-.2c.27-.53.51-1.07.76-1.62s.58-1,.81-1.49.56-.76.67-1.25c0-.16.23-.27.31-.43.26-.58.72-1,1-1.6a8.93,8.93,0,0,1,.69-.83,10.81,10.81,0,0,1,1.58-1.66,9.49,9.49,0,0,1,1.25-.85,2.53,2.53,0,0,1,1.69.31s.13.06.18.1l.86.75a2.69,2.69,0,0,1,.76,1,4.19,4.19,0,0,1,.46,1.11,11.55,11.55,0,0,1,.2,1.42v1c1.36-.79,2.74-1.38,4.1-2,.06,0,.14,0,.21,0Z" style="fill:#1d1d1b"/><path d="M635.58,947.35c-177.11,0-321.19-144.08-321.19-321.18S458.47,305,635.58,305a321.61,321.61,0,0,1,153.09,38.77l-1.56,2.87a318.37,318.37,0,0,0-151.53-38.37c-175.3,0-317.92,142.62-317.92,317.92S460.28,944.08,635.58,944.08a318,318,0,0,0,316.87-292c.69-8.58,1-17.31,1-26a324.06,324.06,0,0,0-1.69-33c-.4-3.82-.86-7.67-1.39-11.45l3.24-.45c.53,3.81,1,7.7,1.4,11.57a324.67,324.67,0,0,1,1.71,33.35c0,8.74-.35,17.56-1,26.22a321.21,321.21,0,0,1-320.13,295Z" style="fill:#1d1d1b"/><path d="M646.71,935.74c-176.65,0-320.36-143.71-320.36-320.36S470.06,295,646.71,295a319.63,319.63,0,0,1,168.41,47.78l-.87,1.39a318,318,0,0,0-167.54-47.54C471,296.64,328,439.63,328,615.38S471,934.11,646.71,934.11s318.74-143,318.74-318.73a321,321,0,0,0-6-61.9l1.6-.31a322.5,322.5,0,0,1,6,62.21C967.08,792,823.36,935.74,646.71,935.74Z" style="fill:#1d1d1b"/><path d="M955.69,563.24c-6-9.19-9.31-20.14-12.49-30.54-3.77-12.38-7-24.93-11-37.24-8.64-26.57-22.75-51.3-40-73.21a179.44,179.44,0,0,0-14.82-16.71c-4.81-4.76-10.09-9.61-15.91-13.11-1.4-.84-1.44,3.76-.45,4.58,4.81,4,9.64,7.86,14.09,12.27A191.48,191.48,0,0,1,888.48,424a263.49,263.49,0,0,1,24.33,35.8,199.67,199.67,0,0,1,16.56,36.36c4.07,12.15,7.4,24.53,11.17,36.77C944.07,544.36,948,556,954.74,566c.78,1.14,1.43-2,1-2.73Z" style="fill:#1d1d1b"/><path d="M946.91,511.58c-.11-.27-.09-.05,0-.2a7.88,7.88,0,0,1,.45-1c.54-1,1.24-1.9,1.84-2.87a27.66,27.66,0,0,0,3.88-10.1c1.56-9.32-1.28-18.29-4.17-27-.64-1.94-1.29-3.88-2-5.81-.32-.91-.57-2.23-1.35-2.86-.59-.46-1,.69-1.13,1a5.6,5.6,0,0,0,.27,3.08,17.39,17.39,0,0,1-.36,8.77c-1.34,4.79-4,9-5.91,13.56l2,3a96,96,0,0,0,2-19,67.36,67.36,0,0,0-2.74-17.56c-.61-2.14-2-.9-2.24.67-1,7.44-1,15.55-4.67,22.31l2.35,1.93a114.51,114.51,0,0,0-21.65-67.87A109.23,109.23,0,0,0,855.17,371a108,108,0,0,0-40.57-3.84c-2,.19-1.58,5.06-.57,6,17.93,17.05,35.79,34.18,53.79,51.17l.56-5.75c-3,0-6-.89-8.89-1.56-2.49-.56-5.5-1.49-8-.76-5.34,1.54-2.66,10.3-1,13.71,2.68,5.57,7.12,10.27,11.56,14.47a163.58,163.58,0,0,0,18.09,14.6,229.2,229.2,0,0,0,21.71,13.65l.23-6.24-26-4.06c-2.06-.32-1.55,5.57-.24,6.34q16.51,9.76,33,19.52l.24-6.46-23.93-.09c-2,0-1.86,5.76-.23,6.25a65.66,65.66,0,0,1,41.07,37.39c.53,1.29,1.66,1,2.2,0a6,6,0,0,0-.12-4.71,68.07,68.07,0,0,0-42.52-38.78l-.24,6.25,23.93.3c2.22,0,1.62-5.65.25-6.46l-33.05-19.4-.24,6.35,26,4c2,.3,1.57-5.51.23-6.24a210.08,210.08,0,0,1-34.25-23.11,81.39,81.39,0,0,1-12.94-13.1,24.9,24.9,0,0,1-3.55-6c-.27-.73-.36-1.5-.53-2s0,.18-.1.14c1.59.69-.63.14,0,.18.13,0,.4-.31.56-.35,2.53-.71,5.33.09,7.83.68,3,.72,6,1.69,9.13,1.74,1.94,0,1.44-4.9.56-5.75-17.85-17.21-35.84-34.28-53.76-51.42l-.57,6a109.77,109.77,0,0,1,67,15.13,105.49,105.49,0,0,1,43.84,52.79,104.36,104.36,0,0,1,6.76,38c0,1.29,1.19,4.09,2.35,1.92,4.07-7.54,4-16.6,5.08-24.91l-2.24.68c3.13,10.47,2.7,20.74.68,31.39a4.16,4.16,0,0,0,.39,3.21c.53.66,1.19.66,1.56-.23,2-4.93,4.78-9.49,6.18-14.68a25.57,25.57,0,0,0,.94-8.74,21.66,21.66,0,0,0-.78-4.31,6,6,0,0,0-.26-.82l-.06-.22a3.76,3.76,0,0,1,0,2l-1.13,1c-.47-.33-.19-.46-.32-.26s0,.07.09.21c.19.63.46,1.25.68,1.87q.93,2.63,1.8,5.26c1.22,3.68,2.49,7.38,3.36,11.16a29.89,29.89,0,0,1,0,14.56c-.84,3-2.46,5.41-4,8-1.31,2.27-2.1,4.74-.89,7.25.33.68.8.44,1.14,0a2.72,2.72,0,0,0-.06-2.3Z" style="fill:#1d1d1b"/></svg>